<svg xmlns="http://www.w3.org/2000/svg" xmlns:svg="http://www.w3.org/2000/svg" id="svg4149" width="521.045" height="540.301" version="1.1" viewBox="0 0 137.86 142.955"><metadata id="metadata4146"/><g id="layer1" transform="translate(-36.903436,-7.8976728)"><path style="font-variation-settings:normal;opacity:1;vector-effect:none;fill:#76c07c;fill-opacity:1;stroke:#000;stroke-width:.529167;stroke-linecap:butt;stroke-linejoin:miter;stroke-miterlimit:4;stroke-dasharray:none;stroke-dashoffset:0;stroke-opacity:1;stop-color:#000;stop-opacity:1" id="path4151" d="m 132.22474,79.375 -13.1957,22.85564 H 92.63762 L 79.441912,79.375 92.63762,56.519363 l 26.39142,0 z"/><path style="font-variation-settings:normal;opacity:1;vector-effect:none;fill:#5894c7;fill-opacity:1;stroke:#000;stroke-width:.529167;stroke-linecap:butt;stroke-linejoin:miter;stroke-miterlimit:4;stroke-dasharray:none;stroke-dashoffset:0;stroke-opacity:1;stop-color:#000;stop-opacity:1" id="path4151-0" d="m 132.22474,125.08627 -13.1957,22.85564 H 92.63762 l -13.195708,-22.85564 13.195708,-22.85563 26.39142,0 z"/><path style="font-variation-settings:normal;opacity:1;vector-effect:none;fill:#5894c7;fill-opacity:1;stroke:#000;stroke-width:.529167;stroke-linecap:butt;stroke-linejoin:miter;stroke-miterlimit:4;stroke-dasharray:none;stroke-dashoffset:0;stroke-opacity:1;stop-color:#000;stop-opacity:1" id="path4151-0-5" d="m 171.81187,102.23064 -13.19571,22.85563 h -26.39141 l -13.19571,-22.85563 13.19571,-22.855641 26.39141,0 z"/><path style="font-variation-settings:normal;opacity:1;vector-effect:none;fill:#5894c7;fill-opacity:1;stroke:#000;stroke-width:.529167;stroke-linecap:butt;stroke-linejoin:miter;stroke-miterlimit:4;stroke-dasharray:none;stroke-dashoffset:0;stroke-opacity:1;stop-color:#000;stop-opacity:1" id="path4151-0-3" d="m 171.81187,56.519363 -13.19571,22.855638 h -26.39141 l -13.19571,-22.855638 13.19571,-22.855637 26.39141,0 z"/><path style="font-variation-settings:normal;opacity:1;vector-effect:none;fill:#5894c7;fill-opacity:1;stroke:#000;stroke-width:.529167;stroke-linecap:butt;stroke-linejoin:miter;stroke-miterlimit:4;stroke-dasharray:none;stroke-dashoffset:0;stroke-opacity:1;stop-color:#000;stop-opacity:1" id="path4151-0-0" d="m 132.22474,33.663727 -13.1957,22.855637 H 92.63762 L 79.441912,33.663727 92.63762,10.80809 l 26.39142,0 z"/><path style="font-variation-settings:normal;opacity:1;vector-effect:none;fill:#5894c7;fill-opacity:1;stroke:#000;stroke-width:.529167;stroke-linecap:butt;stroke-linejoin:miter;stroke-miterlimit:4;stroke-dasharray:none;stroke-dashoffset:0;stroke-opacity:1;stop-color:#000;stop-opacity:1" id="path4151-0-4" d="M 92.637617,56.519363 79.441909,79.375001 H 53.050492 L 39.854784,56.519363 53.050492,33.663726 l 26.391417,0 z"/><path style="font-variation-settings:normal;opacity:1;vector-effect:none;fill:#5894c7;fill-opacity:1;stroke:#000;stroke-width:.529167;stroke-linecap:butt;stroke-linejoin:miter;stroke-miterlimit:4;stroke-dasharray:none;stroke-dashoffset:0;stroke-opacity:1;stop-color:#000;stop-opacity:1" id="path4151-0-7" d="M 92.637617,102.23064 79.441909,125.08627 H 53.050492 l -13.195708,-22.85563 13.195708,-22.855641 26.391417,0 z"/></g></svg>