<svg xmlns="http://www.w3.org/2000/svg" xmlns:svg="http://www.w3.org/2000/svg" id="svg4286" width="624.504" height="518.256" version="1.1" viewBox="0 0 165.233 137.122"><defs id="defs4280"><marker style="overflow:visible" id="Arrow1Lend" orient="auto" refX="0" refY="0"><path transform="matrix(-0.8,0,0,-0.8,-10,0)" style="fill:#000;fill-opacity:1;fill-rule:evenodd;stroke:#000;stroke-width:1pt;stroke-opacity:1" id="path2972" d="M 0,0 5,-5 -12.5,0 5,5 Z"/></marker><marker style="overflow:visible" id="Arrow1Lend-4" orient="auto" refX="0" refY="0"><path transform="matrix(-0.8,0,0,-0.8,-10,0)" style="fill:#000;fill-opacity:1;fill-rule:evenodd;stroke:#000;stroke-width:1pt;stroke-opacity:1" id="path2972-9" d="M 0,0 5,-5 -12.5,0 5,5 Z"/></marker></defs><metadata id="metadata4283"/><g id="layer1" transform="translate(-23.452051,-12.301529)"><g id="g4608" transform="translate(25.34841,18.38886)"><path style="font-variation-settings:normal;vector-effect:none;fill:#5894c7;fill-opacity:1;stroke:#000;stroke-width:.211138;stroke-linecap:butt;stroke-linejoin:miter;stroke-miterlimit:4;stroke-dasharray:none;stroke-dashoffset:0;stroke-opacity:1;stop-color:#000" id="path4151" d="m 119.66538,72.326408 -5.26508,9.1194 h -10.53018 l -5.265087,-9.1194 5.265087,-9.119399 10.53018,0 z" transform="rotate(-19.211927,204.66081,17.410892)"/><path style="font-variation-settings:normal;vector-effect:none;fill:#5894c7;fill-opacity:1;stroke:#000;stroke-width:.211138;stroke-linecap:butt;stroke-linejoin:miter;stroke-miterlimit:4;stroke-dasharray:none;stroke-dashoffset:0;stroke-opacity:1;stop-color:#000" id="path4151-0" d="m 119.66538,90.565208 -5.26508,9.1194 h -10.53018 l -5.265087,-9.1194 5.265087,-9.119399 10.53018,0 z" transform="rotate(-19.211927,204.66081,17.410892)"/><path style="font-variation-settings:normal;vector-effect:none;fill:#5894c7;fill-opacity:1;stroke:#000;stroke-width:.211138;stroke-linecap:butt;stroke-linejoin:miter;stroke-miterlimit:4;stroke-dasharray:none;stroke-dashoffset:0;stroke-opacity:1;stop-color:#000" id="path4151-0-5" d="m 135.46065,81.445808 -5.26509,9.1194 h -10.53017 l -5.26509,-9.1194 5.26509,-9.119399 10.53017,0 z" transform="rotate(-19.211927,204.66081,17.410892)"/><path style="font-variation-settings:normal;vector-effect:none;fill:#5894c7;fill-opacity:1;stroke:#000;stroke-width:.211138;stroke-linecap:butt;stroke-linejoin:miter;stroke-miterlimit:4;stroke-dasharray:none;stroke-dashoffset:0;stroke-opacity:1;stop-color:#000" id="path4151-0-3" d="m 135.46065,63.207008 -5.26509,9.1194 h -10.53017 l -5.26509,-9.1194 5.26509,-9.119399 10.53017,0 z" transform="rotate(-19.211927,204.66081,17.410892)"/><path style="font-variation-settings:normal;vector-effect:none;fill:#5894c7;fill-opacity:1;stroke:#000;stroke-width:.211138;stroke-linecap:butt;stroke-linejoin:miter;stroke-miterlimit:4;stroke-dasharray:none;stroke-dashoffset:0;stroke-opacity:1;stop-color:#000" id="path4151-0-0" d="m 119.66538,54.087612 -5.26508,9.119399 h -10.53018 l -5.265087,-9.119399 5.265087,-9.119399 10.53018,0 z" transform="rotate(-19.211927,204.66081,17.410892)"/><path style="font-variation-settings:normal;vector-effect:none;fill:#5894c7;fill-opacity:1;stroke:#000;stroke-width:.211138;stroke-linecap:butt;stroke-linejoin:miter;stroke-miterlimit:4;stroke-dasharray:none;stroke-dashoffset:0;stroke-opacity:1;stop-color:#000" id="path4151-0-4" d="m 103.87011,63.207008 -5.265087,9.1194 H 88.074848 l -5.265088,-9.1194 5.265088,-9.119399 10.530175,0 z" transform="rotate(-19.211927,204.66081,17.410892)"/><path style="font-variation-settings:normal;vector-effect:none;fill:#5894c7;fill-opacity:1;stroke:#000;stroke-width:.211138;stroke-linecap:butt;stroke-linejoin:miter;stroke-miterlimit:4;stroke-dasharray:none;stroke-dashoffset:0;stroke-opacity:1;stop-color:#000" id="path4151-0-7" d="m 103.87011,81.445808 -5.265087,9.1194 H 88.074848 l -5.265088,-9.1194 5.265088,-9.119399 10.530175,0 z" transform="rotate(-19.211927,204.66081,17.410892)"/></g><path style="font-variation-settings:normal;opacity:1;vector-effect:none;fill:#76c07c;fill-opacity:1;stroke:#000;stroke-width:.529167;stroke-linecap:butt;stroke-linejoin:miter;stroke-miterlimit:4;stroke-dasharray:none;stroke-dashoffset:0;stroke-opacity:1;stop-color:#000;stop-opacity:1" id="path4151-1" d="m 185.734,39.339142 -13.92984,24.127196 -27.85969,0 -13.92984,-24.127196 13.92984,-24.127196 27.85969,0 z"/><rect style="fill:#76c07c;fill-opacity:1;stroke:#000;stroke-width:.635;stroke-miterlimit:4;stroke-dasharray:none;stroke-opacity:1;stop-color:#000" id="rect10-1" width="47.625" height="47.625" x="26.415" y="15.527"/><g id="g4614" transform="translate(1.8842916,11.120169)"><rect style="font-variation-settings:normal;opacity:1;vector-effect:none;fill:#5894c7;fill-opacity:1;stroke:#000;stroke-width:.211138;stroke-linecap:butt;stroke-linejoin:miter;stroke-miterlimit:4;stroke-dasharray:none;stroke-dashoffset:0;stroke-opacity:1;stop-color:#000;stop-opacity:1" id="rect10-1-9" width="23.813" height="23.813" x="24.531" y="84.158"/><rect style="font-variation-settings:normal;vector-effect:none;fill:#5894c7;fill-opacity:1;stroke:#000;stroke-width:.211138;stroke-linecap:butt;stroke-linejoin:miter;stroke-miterlimit:4;stroke-dasharray:none;stroke-dashoffset:0;stroke-opacity:1;stop-color:#000" id="rect10-1-9-8" width="23.813" height="23.813" x="48.344" y="84.158"/><rect style="font-variation-settings:normal;vector-effect:none;fill:#5894c7;fill-opacity:1;stroke:#000;stroke-width:.211138;stroke-linecap:butt;stroke-linejoin:miter;stroke-miterlimit:4;stroke-dasharray:none;stroke-dashoffset:0;stroke-opacity:1;stop-color:#000" id="rect10-1-9-4" width="23.813" height="23.813" x="24.531" y="107.971"/><rect style="font-variation-settings:normal;vector-effect:none;fill:#5894c7;fill-opacity:1;stroke:#000;stroke-width:.211138;stroke-linecap:butt;stroke-linejoin:miter;stroke-miterlimit:4;stroke-dasharray:none;stroke-dashoffset:0;stroke-opacity:1;stop-color:#000" id="rect10-1-9-8-7" width="23.813" height="23.813" x="48.344" y="107.971"/></g><path style="fill:none;stroke:#000;stroke-width:.529167;stroke-linecap:butt;stroke-linejoin:miter;stroke-miterlimit:4;stroke-dasharray:none;stroke-opacity:1;marker-end:url(#Arrow1Lend)" id="path4616" d="M 50.227884,70.939008 V 87.427534"/><path style="fill:none;stroke:#000;stroke-width:.529167;stroke-linecap:butt;stroke-linejoin:miter;stroke-miterlimit:4;stroke-dasharray:none;stroke-opacity:1;marker-end:url(#Arrow1Lend-4)" id="path4616-7" d="M 157.87431,70.939008 V 87.427534"/><path style="font-variation-settings:normal;vector-effect:none;fill:none;fill-opacity:1;stroke:#000;stroke-width:.529167;stroke-linecap:butt;stroke-linejoin:miter;stroke-miterlimit:4;stroke-dasharray:1.5875,1.5875;stroke-dashoffset:0;stroke-opacity:1;stop-color:#000" id="path4151-1-1" d="M 187.42553,76.833565 173.49568,100.96076 H 145.636 L 131.70616,76.833565 145.636,52.706369 l 27.85968,0 z" transform="rotate(0.4,-5899.7902,-104.56138)"/></g></svg>