<svg xmlns="http://www.w3.org/2000/svg" xmlns:xlink="http://www.w3.org/1999/xlink" width="630pt" height="90pt" viewBox="0 0 630 90" version="1.1">
<g id="surface36">
<rect x="0" y="0" width="630" height="90" style="fill:rgb(98.039216%,92.156863%,84.313725%);fill-opacity:1;stroke:none;"></rect>
<path style="fill:none;stroke-width:2;stroke-linecap:butt;stroke-linejoin:miter;stroke:rgb(0%,0%,0%);stroke-opacity:1;stroke-miterlimit:10;" d="M 25 15 C 25 20.523438 20.523438 25 15 25 C 9.476563 25 5 20.523438 5 15 C 5 9.476563 9.476563 5 15 5 C 20.523438 5 25 9.476563 25 15 "></path>
<path style=" stroke:none;fill-rule:nonzero;fill:rgb(0%,0%,0%);fill-opacity:1;" d="M 25 45 C 25 50.523438 20.523438 55 15 55 C 9.476563 55 5 50.523438 5 45 C 5 39.476563 9.476563 35 15 35 C 20.523438 35 25 39.476563 25 45 "></path>
<path style="fill:none;stroke-width:2;stroke-linecap:butt;stroke-linejoin:miter;stroke:rgb(0%,0%,0%);stroke-opacity:1;stroke-miterlimit:10;" d="M 25 75 C 25 80.523438 20.523438 85 15 85 C 9.476563 85 5 80.523438 5 75 C 5 69.476563 9.476563 65 15 65 C 20.523438 65 25 69.476563 25 75 "></path>
<path style="fill:none;stroke-width:2;stroke-linecap:butt;stroke-linejoin:miter;stroke:rgb(0%,0%,0%);stroke-opacity:1;stroke-miterlimit:10;" d="M 55 15 C 55 20.523438 50.523438 25 45 25 C 39.476563 25 35 20.523438 35 15 C 35 9.476563 39.476563 5 45 5 C 50.523438 5 55 9.476563 55 15 "></path>
<path style="fill:none;stroke-width:2;stroke-linecap:butt;stroke-linejoin:miter;stroke:rgb(0%,0%,0%);stroke-opacity:1;stroke-miterlimit:10;" d="M 55 45 C 55 50.523438 50.523438 55 45 55 C 39.476563 55 35 50.523438 35 45 C 35 39.476563 39.476563 35 45 35 C 50.523438 35 55 39.476563 55 45 "></path>
<path style=" stroke:none;fill-rule:nonzero;fill:rgb(0%,0%,0%);fill-opacity:1;" d="M 55 75 C 55 80.523438 50.523438 85 45 85 C 39.476563 85 35 80.523438 35 75 C 35 69.476563 39.476563 65 45 65 C 50.523438 65 55 69.476563 55 75 "></path>
<path style="fill:none;stroke-width:2;stroke-linecap:butt;stroke-linejoin:miter;stroke:rgb(0%,0%,0%);stroke-opacity:1;stroke-miterlimit:10;" d="M 85 15 C 85 20.523438 80.523438 25 75 25 C 69.476563 25 65 20.523438 65 15 C 65 9.476563 69.476563 5 75 5 C 80.523438 5 85 9.476563 85 15 "></path>
<path style=" stroke:none;fill-rule:nonzero;fill:rgb(0%,0%,0%);fill-opacity:1;" d="M 85 45 C 85 50.523438 80.523438 55 75 55 C 69.476563 55 65 50.523438 65 45 C 65 39.476563 69.476563 35 75 35 C 80.523438 35 85 39.476563 85 45 "></path>
<path style=" stroke:none;fill-rule:nonzero;fill:rgb(0%,0%,0%);fill-opacity:1;" d="M 85 75 C 85 80.523438 80.523438 85 75 85 C 69.476563 85 65 80.523438 65 75 C 65 69.476563 69.476563 65 75 65 C 80.523438 65 85 69.476563 85 75 "></path>
<path style="fill:none;stroke-width:2;stroke-linecap:butt;stroke-linejoin:miter;stroke:rgb(0%,0%,0%);stroke-opacity:1;stroke-miterlimit:10;" d="M 115 15 C 115 20.523438 110.523438 25 105 25 C 99.476563 25 95 20.523438 95 15 C 95 9.476563 99.476563 5 105 5 C 110.523438 5 115 9.476563 115 15 "></path>
<path style=" stroke:none;fill-rule:nonzero;fill:rgb(0%,0%,0%);fill-opacity:1;" d="M 115 45 C 115 50.523438 110.523438 55 105 55 C 99.476563 55 95 50.523438 95 45 C 95 39.476563 99.476563 35 105 35 C 110.523438 35 115 39.476563 115 45 "></path>
<path style=" stroke:none;fill-rule:nonzero;fill:rgb(0%,0%,0%);fill-opacity:1;" d="M 115 75 C 115 80.523438 110.523438 85 105 85 C 99.476563 85 95 80.523438 95 75 C 95 69.476563 99.476563 65 105 65 C 110.523438 65 115 69.476563 115 75 "></path>
<path style=" stroke:none;fill-rule:nonzero;fill:rgb(0%,0%,0%);fill-opacity:1;" d="M 145 15 C 145 20.523438 140.523438 25 135 25 C 129.476563 25 125 20.523438 125 15 C 125 9.476563 129.476563 5 135 5 C 140.523438 5 145 9.476563 145 15 "></path>
<path style=" stroke:none;fill-rule:nonzero;fill:rgb(0%,0%,0%);fill-opacity:1;" d="M 145 45 C 145 50.523438 140.523438 55 135 55 C 129.476563 55 125 50.523438 125 45 C 125 39.476563 129.476563 35 135 35 C 140.523438 35 145 39.476563 145 45 "></path>
<path style="fill:none;stroke-width:2;stroke-linecap:butt;stroke-linejoin:miter;stroke:rgb(0%,0%,0%);stroke-opacity:1;stroke-miterlimit:10;" d="M 145 75 C 145 80.523438 140.523438 85 135 85 C 129.476563 85 125 80.523438 125 75 C 125 69.476563 129.476563 65 135 65 C 140.523438 65 145 69.476563 145 75 "></path>
<path style=" stroke:none;fill-rule:nonzero;fill:rgb(0%,0%,0%);fill-opacity:1;" d="M 175 15 C 175 20.523438 170.523438 25 165 25 C 159.476563 25 155 20.523438 155 15 C 155 9.476563 159.476563 5 165 5 C 170.523438 5 175 9.476563 175 15 "></path>
<path style="fill:none;stroke-width:2;stroke-linecap:butt;stroke-linejoin:miter;stroke:rgb(0%,0%,0%);stroke-opacity:1;stroke-miterlimit:10;" d="M 175 45 C 175 50.523438 170.523438 55 165 55 C 159.476563 55 155 50.523438 155 45 C 155 39.476563 159.476563 35 165 35 C 170.523438 35 175 39.476563 175 45 "></path>
<path style=" stroke:none;fill-rule:nonzero;fill:rgb(0%,0%,0%);fill-opacity:1;" d="M 175 75 C 175 80.523438 170.523438 85 165 85 C 159.476563 85 155 80.523438 155 75 C 155 69.476563 159.476563 65 165 65 C 170.523438 65 175 69.476563 175 75 "></path>
<path style=" stroke:none;fill-rule:nonzero;fill:rgb(0%,0%,0%);fill-opacity:1;" d="M 205 15 C 205 20.523438 200.523438 25 195 25 C 189.476563 25 185 20.523438 185 15 C 185 9.476563 189.476563 5 195 5 C 200.523438 5 205 9.476563 205 15 "></path>
<path style="fill:none;stroke-width:2;stroke-linecap:butt;stroke-linejoin:miter;stroke:rgb(0%,0%,0%);stroke-opacity:1;stroke-miterlimit:10;" d="M 205 45 C 205 50.523438 200.523438 55 195 55 C 189.476563 55 185 50.523438 185 45 C 185 39.476563 189.476563 35 195 35 C 200.523438 35 205 39.476563 205 45 "></path>
<path style=" stroke:none;fill-rule:nonzero;fill:rgb(0%,0%,0%);fill-opacity:1;" d="M 205 75 C 205 80.523438 200.523438 85 195 85 C 189.476563 85 185 80.523438 185 75 C 185 69.476563 189.476563 65 195 65 C 200.523438 65 205 69.476563 205 75 "></path>
<path style="fill:none;stroke-width:2;stroke-linecap:butt;stroke-linejoin:miter;stroke:rgb(0%,0%,0%);stroke-opacity:1;stroke-miterlimit:10;" d="M 235 15 C 235 20.523438 230.523438 25 225 25 C 219.476563 25 215 20.523438 215 15 C 215 9.476563 219.476563 5 225 5 C 230.523438 5 235 9.476563 235 15 "></path>
<path style=" stroke:none;fill-rule:nonzero;fill:rgb(0%,0%,0%);fill-opacity:1;" d="M 235 45 C 235 50.523438 230.523438 55 225 55 C 219.476563 55 215 50.523438 215 45 C 215 39.476563 219.476563 35 225 35 C 230.523438 35 235 39.476563 235 45 "></path>
<path style=" stroke:none;fill-rule:nonzero;fill:rgb(0%,0%,0%);fill-opacity:1;" d="M 235 75 C 235 80.523438 230.523438 85 225 85 C 219.476563 85 215 80.523438 215 75 C 215 69.476563 219.476563 65 225 65 C 230.523438 65 235 69.476563 235 75 "></path>
<path style="fill:none;stroke-width:2;stroke-linecap:butt;stroke-linejoin:miter;stroke:rgb(0%,0%,0%);stroke-opacity:1;stroke-miterlimit:10;" d="M 265 15 C 265 20.523438 260.523438 25 255 25 C 249.476563 25 245 20.523438 245 15 C 245 9.476563 249.476563 5 255 5 C 260.523438 5 265 9.476563 265 15 "></path>
<path style=" stroke:none;fill-rule:nonzero;fill:rgb(0%,0%,0%);fill-opacity:1;" d="M 265 45 C 265 50.523438 260.523438 55 255 55 C 249.476563 55 245 50.523438 245 45 C 245 39.476563 249.476563 35 255 35 C 260.523438 35 265 39.476563 265 45 "></path>
<path style="fill:none;stroke-width:2;stroke-linecap:butt;stroke-linejoin:miter;stroke:rgb(0%,0%,0%);stroke-opacity:1;stroke-miterlimit:10;" d="M 265 75 C 265 80.523438 260.523438 85 255 85 C 249.476563 85 245 80.523438 245 75 C 245 69.476563 249.476563 65 255 65 C 260.523438 65 265 69.476563 265 75 "></path>
<path style=" stroke:none;fill-rule:nonzero;fill:rgb(0%,0%,0%);fill-opacity:1;" d="M 295 15 C 295 20.523438 290.523438 25 285 25 C 279.476563 25 275 20.523438 275 15 C 275 9.476563 279.476563 5 285 5 C 290.523438 5 295 9.476563 295 15 "></path>
<path style=" stroke:none;fill-rule:nonzero;fill:rgb(0%,0%,0%);fill-opacity:1;" d="M 295 45 C 295 50.523438 290.523438 55 285 55 C 279.476563 55 275 50.523438 275 45 C 275 39.476563 279.476563 35 285 35 C 290.523438 35 295 39.476563 295 45 "></path>
<path style="fill:none;stroke-width:2;stroke-linecap:butt;stroke-linejoin:miter;stroke:rgb(0%,0%,0%);stroke-opacity:1;stroke-miterlimit:10;" d="M 295 75 C 295 80.523438 290.523438 85 285 85 C 279.476563 85 275 80.523438 275 75 C 275 69.476563 279.476563 65 285 65 C 290.523438 65 295 69.476563 295 75 "></path>
<path style=" stroke:none;fill-rule:nonzero;fill:rgb(0%,0%,0%);fill-opacity:1;" d="M 325 15 C 325 20.523438 320.523438 25 315 25 C 309.476563 25 305 20.523438 305 15 C 305 9.476563 309.476563 5 315 5 C 320.523438 5 325 9.476563 325 15 "></path>
<path style="fill:none;stroke-width:2;stroke-linecap:butt;stroke-linejoin:miter;stroke:rgb(0%,0%,0%);stroke-opacity:1;stroke-miterlimit:10;" d="M 325 45 C 325 50.523438 320.523438 55 315 55 C 309.476563 55 305 50.523438 305 45 C 305 39.476563 309.476563 35 315 35 C 320.523438 35 325 39.476563 325 45 "></path>
<path style=" stroke:none;fill-rule:nonzero;fill:rgb(0%,0%,0%);fill-opacity:1;" d="M 325 75 C 325 80.523438 320.523438 85 315 85 C 309.476563 85 305 80.523438 305 75 C 305 69.476563 309.476563 65 315 65 C 320.523438 65 325 69.476563 325 75 "></path>
<path style="fill:none;stroke-width:2;stroke-linecap:butt;stroke-linejoin:miter;stroke:rgb(0%,0%,0%);stroke-opacity:1;stroke-miterlimit:10;" d="M 355 15 C 355 20.523438 350.523438 25 345 25 C 339.476563 25 335 20.523438 335 15 C 335 9.476563 339.476563 5 345 5 C 350.523438 5 355 9.476563 355 15 "></path>
<path style=" stroke:none;fill-rule:nonzero;fill:rgb(0%,0%,0%);fill-opacity:1;" d="M 355 45 C 355 50.523438 350.523438 55 345 55 C 339.476563 55 335 50.523438 335 45 C 335 39.476563 339.476563 35 345 35 C 350.523438 35 355 39.476563 355 45 "></path>
<path style=" stroke:none;fill-rule:nonzero;fill:rgb(0%,0%,0%);fill-opacity:1;" d="M 355 75 C 355 80.523438 350.523438 85 345 85 C 339.476563 85 335 80.523438 335 75 C 335 69.476563 339.476563 65 345 65 C 350.523438 65 355 69.476563 355 75 "></path>
<path style=" stroke:none;fill-rule:nonzero;fill:rgb(0%,0%,0%);fill-opacity:1;" d="M 385 15 C 385 20.523438 380.523438 25 375 25 C 369.476563 25 365 20.523438 365 15 C 365 9.476563 369.476563 5 375 5 C 380.523438 5 385 9.476563 385 15 "></path>
<path style=" stroke:none;fill-rule:nonzero;fill:rgb(0%,0%,0%);fill-opacity:1;" d="M 385 45 C 385 50.523438 380.523438 55 375 55 C 369.476563 55 365 50.523438 365 45 C 365 39.476563 369.476563 35 375 35 C 380.523438 35 385 39.476563 385 45 "></path>
<path style="fill:none;stroke-width:2;stroke-linecap:butt;stroke-linejoin:miter;stroke:rgb(0%,0%,0%);stroke-opacity:1;stroke-miterlimit:10;" d="M 385 75 C 385 80.523438 380.523438 85 375 85 C 369.476563 85 365 80.523438 365 75 C 365 69.476563 369.476563 65 375 65 C 380.523438 65 385 69.476563 385 75 "></path>
<path style=" stroke:none;fill-rule:nonzero;fill:rgb(0%,0%,0%);fill-opacity:1;" d="M 415 15 C 415 20.523438 410.523438 25 405 25 C 399.476563 25 395 20.523438 395 15 C 395 9.476563 399.476563 5 405 5 C 410.523438 5 415 9.476563 415 15 "></path>
<path style=" stroke:none;fill-rule:nonzero;fill:rgb(0%,0%,0%);fill-opacity:1;" d="M 415 45 C 415 50.523438 410.523438 55 405 55 C 399.476563 55 395 50.523438 395 45 C 395 39.476563 399.476563 35 405 35 C 410.523438 35 415 39.476563 415 45 "></path>
<path style="fill:none;stroke-width:2;stroke-linecap:butt;stroke-linejoin:miter;stroke:rgb(0%,0%,0%);stroke-opacity:1;stroke-miterlimit:10;" d="M 415 75 C 415 80.523438 410.523438 85 405 85 C 399.476563 85 395 80.523438 395 75 C 395 69.476563 399.476563 65 405 65 C 410.523438 65 415 69.476563 415 75 "></path>
<path style=" stroke:none;fill-rule:nonzero;fill:rgb(0%,0%,0%);fill-opacity:1;" d="M 445 15 C 445 20.523438 440.523438 25 435 25 C 429.476563 25 425 20.523438 425 15 C 425 9.476563 429.476563 5 435 5 C 440.523438 5 445 9.476563 445 15 "></path>
<path style="fill:none;stroke-width:2;stroke-linecap:butt;stroke-linejoin:miter;stroke:rgb(0%,0%,0%);stroke-opacity:1;stroke-miterlimit:10;" d="M 445 45 C 445 50.523438 440.523438 55 435 55 C 429.476563 55 425 50.523438 425 45 C 425 39.476563 429.476563 35 435 35 C 440.523438 35 445 39.476563 445 45 "></path>
<path style="fill:none;stroke-width:2;stroke-linecap:butt;stroke-linejoin:miter;stroke:rgb(0%,0%,0%);stroke-opacity:1;stroke-miterlimit:10;" d="M 445 75 C 445 80.523438 440.523438 85 435 85 C 429.476563 85 425 80.523438 425 75 C 425 69.476563 429.476563 65 435 65 C 440.523438 65 445 69.476563 445 75 "></path>
<path style=" stroke:none;fill-rule:nonzero;fill:rgb(0%,0%,0%);fill-opacity:1;" d="M 475 15 C 475 20.523438 470.523438 25 465 25 C 459.476563 25 455 20.523438 455 15 C 455 9.476563 459.476563 5 465 5 C 470.523438 5 475 9.476563 475 15 "></path>
<path style="fill:none;stroke-width:2;stroke-linecap:butt;stroke-linejoin:miter;stroke:rgb(0%,0%,0%);stroke-opacity:1;stroke-miterlimit:10;" d="M 475 45 C 475 50.523438 470.523438 55 465 55 C 459.476563 55 455 50.523438 455 45 C 455 39.476563 459.476563 35 465 35 C 470.523438 35 475 39.476563 475 45 "></path>
<path style="fill:none;stroke-width:2;stroke-linecap:butt;stroke-linejoin:miter;stroke:rgb(0%,0%,0%);stroke-opacity:1;stroke-miterlimit:10;" d="M 475 75 C 475 80.523438 470.523438 85 465 85 C 459.476563 85 455 80.523438 455 75 C 455 69.476563 459.476563 65 465 65 C 470.523438 65 475 69.476563 475 75 "></path>
<path style=" stroke:none;fill-rule:nonzero;fill:rgb(0%,0%,0%);fill-opacity:1;" d="M 505 15 C 505 20.523438 500.523438 25 495 25 C 489.476563 25 485 20.523438 485 15 C 485 9.476563 489.476563 5 495 5 C 500.523438 5 505 9.476563 505 15 "></path>
<path style=" stroke:none;fill-rule:nonzero;fill:rgb(0%,0%,0%);fill-opacity:1;" d="M 505 45 C 505 50.523438 500.523438 55 495 55 C 489.476563 55 485 50.523438 485 45 C 485 39.476563 489.476563 35 495 35 C 500.523438 35 505 39.476563 505 45 "></path>
<path style="fill:none;stroke-width:2;stroke-linecap:butt;stroke-linejoin:miter;stroke:rgb(0%,0%,0%);stroke-opacity:1;stroke-miterlimit:10;" d="M 505 75 C 505 80.523438 500.523438 85 495 85 C 489.476563 85 485 80.523438 485 75 C 485 69.476563 489.476563 65 495 65 C 500.523438 65 505 69.476563 505 75 "></path>
<path style=" stroke:none;fill-rule:nonzero;fill:rgb(0%,0%,0%);fill-opacity:1;" d="M 535 15 C 535 20.523438 530.523438 25 525 25 C 519.476563 25 515 20.523438 515 15 C 515 9.476563 519.476563 5 525 5 C 530.523438 5 535 9.476563 535 15 "></path>
<path style="fill:none;stroke-width:2;stroke-linecap:butt;stroke-linejoin:miter;stroke:rgb(0%,0%,0%);stroke-opacity:1;stroke-miterlimit:10;" d="M 535 45 C 535 50.523438 530.523438 55 525 55 C 519.476563 55 515 50.523438 515 45 C 515 39.476563 519.476563 35 525 35 C 530.523438 35 535 39.476563 535 45 "></path>
<path style="fill:none;stroke-width:2;stroke-linecap:butt;stroke-linejoin:miter;stroke:rgb(0%,0%,0%);stroke-opacity:1;stroke-miterlimit:10;" d="M 535 75 C 535 80.523438 530.523438 85 525 85 C 519.476563 85 515 80.523438 515 75 C 515 69.476563 519.476563 65 525 65 C 530.523438 65 535 69.476563 535 75 "></path>
<path style=" stroke:none;fill-rule:nonzero;fill:rgb(0%,0%,0%);fill-opacity:1;" d="M 565 15 C 565 20.523438 560.523438 25 555 25 C 549.476563 25 545 20.523438 545 15 C 545 9.476563 549.476563 5 555 5 C 560.523438 5 565 9.476563 565 15 "></path>
<path style=" stroke:none;fill-rule:nonzero;fill:rgb(0%,0%,0%);fill-opacity:1;" d="M 565 45 C 565 50.523438 560.523438 55 555 55 C 549.476563 55 545 50.523438 545 45 C 545 39.476563 549.476563 35 555 35 C 560.523438 35 565 39.476563 565 45 "></path>
<path style="fill:none;stroke-width:2;stroke-linecap:butt;stroke-linejoin:miter;stroke:rgb(0%,0%,0%);stroke-opacity:1;stroke-miterlimit:10;" d="M 565 75 C 565 80.523438 560.523438 85 555 85 C 549.476563 85 545 80.523438 545 75 C 545 69.476563 549.476563 65 555 65 C 560.523438 65 565 69.476563 565 75 "></path>
<path style="fill:none;stroke-width:2;stroke-linecap:butt;stroke-linejoin:miter;stroke:rgb(0%,0%,0%);stroke-opacity:1;stroke-miterlimit:10;" d="M 595 15 C 595 20.523438 590.523438 25 585 25 C 579.476563 25 575 20.523438 575 15 C 575 9.476563 579.476563 5 585 5 C 590.523438 5 595 9.476563 595 15 "></path>
<path style=" stroke:none;fill-rule:nonzero;fill:rgb(0%,0%,0%);fill-opacity:1;" d="M 595 45 C 595 50.523438 590.523438 55 585 55 C 579.476563 55 575 50.523438 575 45 C 575 39.476563 579.476563 35 585 35 C 590.523438 35 595 39.476563 595 45 "></path>
<path style=" stroke:none;fill-rule:nonzero;fill:rgb(0%,0%,0%);fill-opacity:1;" d="M 595 75 C 595 80.523438 590.523438 85 585 85 C 579.476563 85 575 80.523438 575 75 C 575 69.476563 579.476563 65 585 65 C 590.523438 65 595 69.476563 595 75 "></path>
<path style=" stroke:none;fill-rule:nonzero;fill:rgb(0%,0%,0%);fill-opacity:1;" d="M 625 15 C 625 20.523438 620.523438 25 615 25 C 609.476563 25 605 20.523438 605 15 C 605 9.476563 609.476563 5 615 5 C 620.523438 5 625 9.476563 625 15 "></path>
<path style="fill:none;stroke-width:2;stroke-linecap:butt;stroke-linejoin:miter;stroke:rgb(0%,0%,0%);stroke-opacity:1;stroke-miterlimit:10;" d="M 625 45 C 625 50.523438 620.523438 55 615 55 C 609.476563 55 605 50.523438 605 45 C 605 39.476563 609.476563 35 615 35 C 620.523438 35 625 39.476563 625 45 "></path>
<path style=" stroke:none;fill-rule:nonzero;fill:rgb(0%,0%,0%);fill-opacity:1;" d="M 625 75 C 625 80.523438 620.523438 85 615 85 C 609.476563 85 605 80.523438 605 75 C 605 69.476563 609.476563 65 615 65 C 620.523438 65 625 69.476563 625 75 "></path>
<path style="fill:none;stroke-width:2;stroke-linecap:butt;stroke-linejoin:miter;stroke:rgb(0%,0%,0%);stroke-opacity:1;stroke-miterlimit:10;" d="M 15 45 L 45 75 "></path>
<path style="fill:none;stroke-width:2;stroke-linecap:butt;stroke-linejoin:miter;stroke:rgb(0%,0%,0%);stroke-opacity:1;stroke-miterlimit:10;" d="M 45 75 L 75 45 "></path>
<path style="fill:none;stroke-width:2;stroke-linecap:butt;stroke-linejoin:miter;stroke:rgb(0%,0%,0%);stroke-opacity:1;stroke-miterlimit:10;" d="M 45 75 L 75 75 "></path>
<path style="fill:none;stroke-width:2;stroke-linecap:butt;stroke-linejoin:miter;stroke:rgb(0%,0%,0%);stroke-opacity:1;stroke-miterlimit:10;" d="M 75 45 L 105 45 "></path>
<path style="fill:none;stroke-width:2;stroke-linecap:butt;stroke-linejoin:miter;stroke:rgb(0%,0%,0%);stroke-opacity:1;stroke-miterlimit:10;" d="M 75 75 L 105 75 "></path>
<path style="fill:none;stroke-width:2;stroke-linecap:butt;stroke-linejoin:miter;stroke:rgb(0%,0%,0%);stroke-opacity:1;stroke-miterlimit:10;" d="M 105 45 L 135 15 "></path>
<path style="fill:none;stroke-width:2;stroke-linecap:butt;stroke-linejoin:miter;stroke:rgb(0%,0%,0%);stroke-opacity:1;stroke-miterlimit:10;" d="M 105 75 L 135 45 "></path>
<path style="fill:none;stroke-width:2;stroke-linecap:butt;stroke-linejoin:miter;stroke:rgb(0%,0%,0%);stroke-opacity:1;stroke-miterlimit:10;" d="M 135 15 L 165 15 "></path>
<path style="fill:none;stroke-width:2;stroke-linecap:butt;stroke-linejoin:miter;stroke:rgb(0%,0%,0%);stroke-opacity:1;stroke-miterlimit:10;" d="M 135 45 L 165 75 "></path>
<path style="fill:none;stroke-width:2;stroke-linecap:butt;stroke-linejoin:miter;stroke:rgb(0%,0%,0%);stroke-opacity:1;stroke-miterlimit:10;" d="M 165 15 L 195 15 "></path>
<path style="fill:none;stroke-width:2;stroke-linecap:butt;stroke-linejoin:miter;stroke:rgb(0%,0%,0%);stroke-opacity:1;stroke-miterlimit:10;" d="M 165 75 L 195 75 "></path>
<path style="fill:none;stroke-width:2;stroke-linecap:butt;stroke-linejoin:miter;stroke:rgb(0%,0%,0%);stroke-opacity:1;stroke-miterlimit:10;" d="M 195 15 L 225 45 "></path>
<path style="fill:none;stroke-width:2;stroke-linecap:butt;stroke-linejoin:miter;stroke:rgb(0%,0%,0%);stroke-opacity:1;stroke-miterlimit:10;" d="M 195 75 L 225 75 "></path>
<path style="fill:none;stroke-width:2;stroke-linecap:butt;stroke-linejoin:miter;stroke:rgb(0%,0%,0%);stroke-opacity:1;stroke-miterlimit:10;" d="M 225 45 L 255 45 "></path>
<path style="fill:none;stroke-width:2;stroke-linecap:butt;stroke-linejoin:miter;stroke:rgb(0%,0%,0%);stroke-opacity:1;stroke-miterlimit:10;" d="M 225 75 L 255 45 "></path>
<path style="fill:none;stroke-width:2;stroke-linecap:butt;stroke-linejoin:miter;stroke:rgb(0%,0%,0%);stroke-opacity:1;stroke-miterlimit:10;" d="M 255 45 L 285 15 "></path>
<path style="fill:none;stroke-width:2;stroke-linecap:butt;stroke-linejoin:miter;stroke:rgb(0%,0%,0%);stroke-opacity:1;stroke-miterlimit:10;" d="M 255 45 L 285 45 "></path>
<path style="fill:none;stroke-width:2;stroke-linecap:butt;stroke-linejoin:miter;stroke:rgb(0%,0%,0%);stroke-opacity:1;stroke-miterlimit:10;" d="M 285 15 L 315 15 "></path>
<path style="fill:none;stroke-width:2;stroke-linecap:butt;stroke-linejoin:miter;stroke:rgb(0%,0%,0%);stroke-opacity:1;stroke-miterlimit:10;" d="M 285 45 L 315 75 "></path>
<path style="fill:none;stroke-width:2;stroke-linecap:butt;stroke-linejoin:miter;stroke:rgb(0%,0%,0%);stroke-opacity:1;stroke-miterlimit:10;" d="M 315 15 L 345 45 "></path>
<path style="fill:none;stroke-width:2;stroke-linecap:butt;stroke-linejoin:miter;stroke:rgb(0%,0%,0%);stroke-opacity:1;stroke-miterlimit:10;" d="M 315 75 L 345 75 "></path>
<path style="fill:none;stroke-width:2;stroke-linecap:butt;stroke-linejoin:miter;stroke:rgb(0%,0%,0%);stroke-opacity:1;stroke-miterlimit:10;" d="M 345 45 L 375 15 "></path>
<path style="fill:none;stroke-width:2;stroke-linecap:butt;stroke-linejoin:miter;stroke:rgb(0%,0%,0%);stroke-opacity:1;stroke-miterlimit:10;" d="M 345 75 L 375 45 "></path>
<path style="fill:none;stroke-width:2;stroke-linecap:butt;stroke-linejoin:miter;stroke:rgb(0%,0%,0%);stroke-opacity:1;stroke-miterlimit:10;" d="M 375 15 L 405 15 "></path>
<path style="fill:none;stroke-width:2;stroke-linecap:butt;stroke-linejoin:miter;stroke:rgb(0%,0%,0%);stroke-opacity:1;stroke-miterlimit:10;" d="M 375 45 L 405 45 "></path>
<path style="fill:none;stroke-width:2;stroke-linecap:butt;stroke-linejoin:miter;stroke:rgb(0%,0%,0%);stroke-opacity:1;stroke-miterlimit:10;" d="M 405 15 L 435 15 "></path>
<path style="fill:none;stroke-width:2;stroke-linecap:butt;stroke-linejoin:miter;stroke:rgb(0%,0%,0%);stroke-opacity:1;stroke-miterlimit:10;" d="M 405 45 L 435 15 "></path>
<path style="fill:none;stroke-width:2;stroke-linecap:butt;stroke-linejoin:miter;stroke:rgb(0%,0%,0%);stroke-opacity:1;stroke-miterlimit:10;" d="M 435 15 L 465 15 "></path>
<path style="fill:none;stroke-width:2;stroke-linecap:butt;stroke-linejoin:miter;stroke:rgb(0%,0%,0%);stroke-opacity:1;stroke-miterlimit:10;" d="M 465 15 L 495 15 "></path>
<path style="fill:none;stroke-width:2;stroke-linecap:butt;stroke-linejoin:miter;stroke:rgb(0%,0%,0%);stroke-opacity:1;stroke-miterlimit:10;" d="M 465 15 L 495 45 "></path>
<path style="fill:none;stroke-width:2;stroke-linecap:butt;stroke-linejoin:miter;stroke:rgb(0%,0%,0%);stroke-opacity:1;stroke-miterlimit:10;" d="M 495 15 L 525 15 "></path>
<path style="fill:none;stroke-width:2;stroke-linecap:butt;stroke-linejoin:miter;stroke:rgb(0%,0%,0%);stroke-opacity:1;stroke-miterlimit:10;" d="M 495 45 L 525 15 "></path>
<path style="fill:none;stroke-width:2;stroke-linecap:butt;stroke-linejoin:miter;stroke:rgb(0%,0%,0%);stroke-opacity:1;stroke-miterlimit:10;" d="M 525 15 L 555 15 "></path>
<path style="fill:none;stroke-width:2;stroke-linecap:butt;stroke-linejoin:miter;stroke:rgb(0%,0%,0%);stroke-opacity:1;stroke-miterlimit:10;" d="M 525 15 L 555 45 "></path>
<path style="fill:none;stroke-width:2;stroke-linecap:butt;stroke-linejoin:miter;stroke:rgb(0%,0%,0%);stroke-opacity:1;stroke-miterlimit:10;" d="M 555 15 L 585 45 "></path>
<path style="fill:none;stroke-width:2;stroke-linecap:butt;stroke-linejoin:miter;stroke:rgb(0%,0%,0%);stroke-opacity:1;stroke-miterlimit:10;" d="M 555 45 L 585 75 "></path>
<path style="fill:none;stroke-width:2;stroke-linecap:butt;stroke-linejoin:miter;stroke:rgb(0%,0%,0%);stroke-opacity:1;stroke-miterlimit:10;" d="M 585 45 L 615 15 "></path>
<path style="fill:none;stroke-width:2;stroke-linecap:butt;stroke-linejoin:miter;stroke:rgb(0%,0%,0%);stroke-opacity:1;stroke-miterlimit:10;" d="M 585 75 L 615 75 "></path>
</g>
</svg>