<svg xmlns="http://www.w3.org/2000/svg" xmlns:xlink="http://www.w3.org/1999/xlink" width="480pt" height="480pt" viewBox="0 0 480 480" version="1.1">
<g id="surface1">
<rect x="0" y="0" width="480" height="480" style="fill:rgb(98.039216%,92.156863%,84.313725%);fill-opacity:1;stroke:none;"></rect>
<path style="fill:none;stroke-width:2;stroke-linecap:round;stroke-linejoin:miter;stroke:rgb(0%,0%,0%);stroke-opacity:1;stroke-miterlimit:10;" d="M 30 50 L 30 30 L 50 30 L 50 50 "></path>
<path style=" stroke:none;fill-rule:nonzero;fill:rgb(0%,0%,0%);fill-opacity:1;" d="M 35 30 C 35 36.667969 25 36.667969 25 30 C 25 23.332031 35 23.332031 35 30 "></path>
<path style=" stroke:none;fill-rule:nonzero;fill:rgb(0%,0%,0%);fill-opacity:1;" d="M 55 30 C 55 36.667969 45 36.667969 45 30 C 45 23.332031 55 23.332031 55 30 "></path>
<path style="fill:none;stroke-width:2;stroke-linecap:round;stroke-linejoin:miter;stroke:rgb(0%,0%,0%);stroke-opacity:1;stroke-miterlimit:10;" d="M 130 50 L 110 50 L 110 30 L 130 30 "></path>
<path style=" stroke:none;fill-rule:nonzero;fill:rgb(0%,0%,0%);fill-opacity:1;" d="M 115 50 C 115 56.667969 105 56.667969 105 50 C 105 43.332031 115 43.332031 115 50 "></path>
<path style=" stroke:none;fill-rule:nonzero;fill:rgb(0%,0%,0%);fill-opacity:1;" d="M 115 30 C 115 36.667969 105 36.667969 105 30 C 105 23.332031 115 23.332031 115 30 "></path>
<path style="fill:none;stroke-width:2;stroke-linecap:round;stroke-linejoin:miter;stroke:rgb(0%,0%,0%);stroke-opacity:1;stroke-miterlimit:10;" d="M 210 30 L 210 50 L 190 50 L 190 30 "></path>
<path style=" stroke:none;fill-rule:nonzero;fill:rgb(0%,0%,0%);fill-opacity:1;" d="M 215 50 C 215 56.667969 205 56.667969 205 50 C 205 43.332031 215 43.332031 215 50 "></path>
<path style=" stroke:none;fill-rule:nonzero;fill:rgb(0%,0%,0%);fill-opacity:1;" d="M 195 50 C 195 56.667969 185 56.667969 185 50 C 185 43.332031 195 43.332031 195 50 "></path>
<path style="fill:none;stroke-width:2;stroke-linecap:round;stroke-linejoin:miter;stroke:rgb(0%,0%,0%);stroke-opacity:1;stroke-miterlimit:10;" d="M 290 50 L 270 50 L 270 30 L 290 30 Z M 290 50 "></path>
<path style=" stroke:none;fill-rule:nonzero;fill:rgb(0%,0%,0%);fill-opacity:1;" d="M 295 50 C 295 56.667969 285 56.667969 285 50 C 285 43.332031 295 43.332031 295 50 "></path>
<path style=" stroke:none;fill-rule:nonzero;fill:rgb(0%,0%,0%);fill-opacity:1;" d="M 275 50 C 275 56.667969 265 56.667969 265 50 C 265 43.332031 275 43.332031 275 50 "></path>
<path style=" stroke:none;fill-rule:nonzero;fill:rgb(0%,0%,0%);fill-opacity:1;" d="M 275 30 C 275 36.667969 265 36.667969 265 30 C 265 23.332031 275 23.332031 275 30 "></path>
<path style=" stroke:none;fill-rule:nonzero;fill:rgb(0%,0%,0%);fill-opacity:1;" d="M 295 30 C 295 36.667969 285 36.667969 285 30 C 285 23.332031 295 23.332031 295 30 "></path>
<path style="fill:none;stroke-width:2;stroke-linecap:round;stroke-linejoin:miter;stroke:rgb(0%,0%,0%);stroke-opacity:1;stroke-miterlimit:10;" d="M 365.257813 56.179688 L 346.234375 50 L 346.234375 30 L 365.257813 23.820313 L 377.011719 40 Z M 365.257813 56.179688 "></path>
<path style=" stroke:none;fill-rule:nonzero;fill:rgb(0%,0%,0%);fill-opacity:1;" d="M 370.257813 56.179688 C 370.257813 62.847656 360.257813 62.847656 360.257813 56.179688 C 360.257813 49.515625 370.257813 49.515625 370.257813 56.179688 "></path>
<path style=" stroke:none;fill-rule:nonzero;fill:rgb(0%,0%,0%);fill-opacity:1;" d="M 351.234375 50 C 351.234375 56.667969 341.234375 56.667969 341.234375 50 C 341.234375 43.332031 351.234375 43.332031 351.234375 50 "></path>
<path style=" stroke:none;fill-rule:nonzero;fill:rgb(0%,0%,0%);fill-opacity:1;" d="M 351.234375 30 C 351.234375 36.667969 341.234375 36.667969 341.234375 30 C 341.234375 23.332031 351.234375 23.332031 351.234375 30 "></path>
<path style=" stroke:none;fill-rule:nonzero;fill:rgb(0%,0%,0%);fill-opacity:1;" d="M 370.257813 23.820313 C 370.257813 30.484375 360.257813 30.484375 360.257813 23.820313 C 360.257813 17.152344 370.257813 17.152344 370.257813 23.820313 "></path>
<path style=" stroke:none;fill-rule:nonzero;fill:rgb(0%,0%,0%);fill-opacity:1;" d="M 382.011719 40 C 382.011719 46.667969 372.011719 46.667969 372.011719 40 C 372.011719 33.332031 382.011719 33.332031 382.011719 40 "></path>
<path style="fill:none;stroke-width:2;stroke-linecap:round;stroke-linejoin:miter;stroke:rgb(0%,0%,0%);stroke-opacity:1;stroke-miterlimit:10;" d="M 422.679688 50 L 422.679688 30 L 440 20 "></path>
<path style=" stroke:none;fill-rule:nonzero;fill:rgb(0%,0%,0%);fill-opacity:1;" d="M 427.679688 30 C 427.679688 36.667969 417.679688 36.667969 417.679688 30 C 417.679688 23.332031 427.679688 23.332031 427.679688 30 "></path>
<path style="fill:none;stroke-width:2;stroke-linecap:round;stroke-linejoin:miter;stroke:rgb(0%,0%,0%);stroke-opacity:1;stroke-miterlimit:10;" d="M 40 140 L 22.679688 130 L 22.679688 110 "></path>
<path style=" stroke:none;fill-rule:nonzero;fill:rgb(0%,0%,0%);fill-opacity:1;" d="M 27.679688 130 C 27.679688 136.667969 17.679688 136.667969 17.679688 130 C 17.679688 123.332031 27.679688 123.332031 27.679688 130 "></path>
<path style="fill:none;stroke-width:2;stroke-linecap:round;stroke-linejoin:miter;stroke:rgb(0%,0%,0%);stroke-opacity:1;stroke-miterlimit:10;" d="M 102.679688 130 L 102.679688 110 L 120 100 L 137.320313 110 "></path>
<path style=" stroke:none;fill-rule:nonzero;fill:rgb(0%,0%,0%);fill-opacity:1;" d="M 107.679688 110 C 107.679688 116.667969 97.679688 116.667969 97.679688 110 C 97.679688 103.332031 107.679688 103.332031 107.679688 110 "></path>
<path style=" stroke:none;fill-rule:nonzero;fill:rgb(0%,0%,0%);fill-opacity:1;" d="M 125 100 C 125 106.667969 115 106.667969 115 100 C 115 93.332031 125 93.332031 125 100 "></path>
<path style="fill:none;stroke-width:2;stroke-linecap:round;stroke-linejoin:miter;stroke:rgb(0%,0%,0%);stroke-opacity:1;stroke-miterlimit:10;" d="M 200 140 L 182.679688 130 L 182.679688 110 L 200 100 "></path>
<path style=" stroke:none;fill-rule:nonzero;fill:rgb(0%,0%,0%);fill-opacity:1;" d="M 187.679688 130 C 187.679688 136.667969 177.679688 136.667969 177.679688 130 C 177.679688 123.332031 187.679688 123.332031 187.679688 130 "></path>
<path style=" stroke:none;fill-rule:nonzero;fill:rgb(0%,0%,0%);fill-opacity:1;" d="M 187.679688 110 C 187.679688 116.667969 177.679688 116.667969 177.679688 110 C 177.679688 103.332031 187.679688 103.332031 187.679688 110 "></path>
<path style="fill:none;stroke-width:2;stroke-linecap:round;stroke-linejoin:miter;stroke:rgb(0%,0%,0%);stroke-opacity:1;stroke-miterlimit:10;" d="M 297.320313 130 L 280 140 L 262.679688 130 L 262.679688 110 "></path>
<path style=" stroke:none;fill-rule:nonzero;fill:rgb(0%,0%,0%);fill-opacity:1;" d="M 285 140 C 285 146.667969 275 146.667969 275 140 C 275 133.332031 285 133.332031 285 140 "></path>
<path style=" stroke:none;fill-rule:nonzero;fill:rgb(0%,0%,0%);fill-opacity:1;" d="M 267.679688 130 C 267.679688 136.667969 257.679688 136.667969 257.679688 130 C 257.679688 123.332031 267.679688 123.332031 267.679688 130 "></path>
<path style="fill:none;stroke-width:2;stroke-linecap:round;stroke-linejoin:miter;stroke:rgb(0%,0%,0%);stroke-opacity:1;stroke-miterlimit:10;" d="M 360 140 L 342.679688 130 L 342.679688 110 L 360 100 L 377.320313 110 "></path>
<path style=" stroke:none;fill-rule:nonzero;fill:rgb(0%,0%,0%);fill-opacity:1;" d="M 347.679688 130 C 347.679688 136.667969 337.679688 136.667969 337.679688 130 C 337.679688 123.332031 347.679688 123.332031 347.679688 130 "></path>
<path style=" stroke:none;fill-rule:nonzero;fill:rgb(0%,0%,0%);fill-opacity:1;" d="M 347.679688 110 C 347.679688 116.667969 337.679688 116.667969 337.679688 110 C 337.679688 103.332031 347.679688 103.332031 347.679688 110 "></path>
<path style=" stroke:none;fill-rule:nonzero;fill:rgb(0%,0%,0%);fill-opacity:1;" d="M 365 100 C 365 106.667969 355 106.667969 355 100 C 355 93.332031 365 93.332031 365 100 "></path>
<path style="fill:none;stroke-width:2;stroke-linecap:round;stroke-linejoin:miter;stroke:rgb(0%,0%,0%);stroke-opacity:1;stroke-miterlimit:10;" d="M 457.320313 130 L 440 140 L 422.679688 130 L 422.679688 110 L 440 100 "></path>
<path style=" stroke:none;fill-rule:nonzero;fill:rgb(0%,0%,0%);fill-opacity:1;" d="M 445 140 C 445 146.667969 435 146.667969 435 140 C 435 133.332031 445 133.332031 445 140 "></path>
<path style=" stroke:none;fill-rule:nonzero;fill:rgb(0%,0%,0%);fill-opacity:1;" d="M 427.679688 130 C 427.679688 136.667969 417.679688 136.667969 417.679688 130 C 417.679688 123.332031 427.679688 123.332031 427.679688 130 "></path>
<path style=" stroke:none;fill-rule:nonzero;fill:rgb(0%,0%,0%);fill-opacity:1;" d="M 427.679688 110 C 427.679688 116.667969 417.679688 116.667969 417.679688 110 C 417.679688 103.332031 427.679688 103.332031 427.679688 110 "></path>
<path style="fill:none;stroke-width:2;stroke-linecap:round;stroke-linejoin:miter;stroke:rgb(0%,0%,0%);stroke-opacity:1;stroke-miterlimit:10;" d="M 40 220 L 22.679688 210 L 22.679688 190 L 40 180 L 57.320313 190 L 57.320313 210 "></path>
<path style=" stroke:none;fill-rule:nonzero;fill:rgb(0%,0%,0%);fill-opacity:1;" d="M 27.679688 210 C 27.679688 216.667969 17.679688 216.667969 17.679688 210 C 17.679688 203.332031 27.679688 203.332031 27.679688 210 "></path>
<path style=" stroke:none;fill-rule:nonzero;fill:rgb(0%,0%,0%);fill-opacity:1;" d="M 27.679688 190 C 27.679688 196.667969 17.679688 196.667969 17.679688 190 C 17.679688 183.332031 27.679688 183.332031 27.679688 190 "></path>
<path style=" stroke:none;fill-rule:nonzero;fill:rgb(0%,0%,0%);fill-opacity:1;" d="M 45 180 C 45 186.667969 35 186.667969 35 180 C 35 173.332031 45 173.332031 45 180 "></path>
<path style=" stroke:none;fill-rule:nonzero;fill:rgb(0%,0%,0%);fill-opacity:1;" d="M 62.320313 190 C 62.320313 196.667969 52.320313 196.667969 52.320313 190 C 52.320313 183.332031 62.320313 183.332031 62.320313 190 "></path>
<path style="fill:none;stroke-width:2;stroke-linecap:round;stroke-linejoin:miter;stroke:rgb(0%,0%,0%);stroke-opacity:1;stroke-miterlimit:10;" d="M 137.320313 210 L 120 220 L 102.679688 210 L 102.679688 190 L 120 180 L 137.320313 190 "></path>
<path style=" stroke:none;fill-rule:nonzero;fill:rgb(0%,0%,0%);fill-opacity:1;" d="M 125 220 C 125 226.667969 115 226.667969 115 220 C 115 213.332031 125 213.332031 125 220 "></path>
<path style=" stroke:none;fill-rule:nonzero;fill:rgb(0%,0%,0%);fill-opacity:1;" d="M 107.679688 210 C 107.679688 216.667969 97.679688 216.667969 97.679688 210 C 97.679688 203.332031 107.679688 203.332031 107.679688 210 "></path>
<path style=" stroke:none;fill-rule:nonzero;fill:rgb(0%,0%,0%);fill-opacity:1;" d="M 107.679688 190 C 107.679688 196.667969 97.679688 196.667969 97.679688 190 C 97.679688 183.332031 107.679688 183.332031 107.679688 190 "></path>
<path style=" stroke:none;fill-rule:nonzero;fill:rgb(0%,0%,0%);fill-opacity:1;" d="M 125 180 C 125 186.667969 115 186.667969 115 180 C 115 173.332031 125 173.332031 125 180 "></path>
<path style="fill:none;stroke-width:2;stroke-linecap:round;stroke-linejoin:miter;stroke:rgb(0%,0%,0%);stroke-opacity:1;stroke-miterlimit:10;" d="M 217.320313 190 L 217.320313 210 L 200 220 L 182.679688 210 L 182.679688 190 L 200 180 "></path>
<path style=" stroke:none;fill-rule:nonzero;fill:rgb(0%,0%,0%);fill-opacity:1;" d="M 222.320313 210 C 222.320313 216.667969 212.320313 216.667969 212.320313 210 C 212.320313 203.332031 222.320313 203.332031 222.320313 210 "></path>
<path style=" stroke:none;fill-rule:nonzero;fill:rgb(0%,0%,0%);fill-opacity:1;" d="M 205 220 C 205 226.667969 195 226.667969 195 220 C 195 213.332031 205 213.332031 205 220 "></path>
<path style=" stroke:none;fill-rule:nonzero;fill:rgb(0%,0%,0%);fill-opacity:1;" d="M 187.679688 210 C 187.679688 216.667969 177.679688 216.667969 177.679688 210 C 177.679688 203.332031 187.679688 203.332031 187.679688 210 "></path>
<path style=" stroke:none;fill-rule:nonzero;fill:rgb(0%,0%,0%);fill-opacity:1;" d="M 187.679688 190 C 187.679688 196.667969 177.679688 196.667969 177.679688 190 C 177.679688 183.332031 187.679688 183.332031 187.679688 190 "></path>
<path style="fill:none;stroke-width:2;stroke-linecap:round;stroke-linejoin:miter;stroke:rgb(0%,0%,0%);stroke-opacity:1;stroke-miterlimit:10;" d="M 280 220 L 262.679688 210 L 262.679688 190 L 280 180 L 297.320313 190 L 297.320313 210 Z M 280 220 "></path>
<path style=" stroke:none;fill-rule:nonzero;fill:rgb(0%,0%,0%);fill-opacity:1;" d="M 285 220 C 285 226.667969 275 226.667969 275 220 C 275 213.332031 285 213.332031 285 220 "></path>
<path style=" stroke:none;fill-rule:nonzero;fill:rgb(0%,0%,0%);fill-opacity:1;" d="M 267.679688 210 C 267.679688 216.667969 257.679688 216.667969 257.679688 210 C 257.679688 203.332031 267.679688 203.332031 267.679688 210 "></path>
<path style=" stroke:none;fill-rule:nonzero;fill:rgb(0%,0%,0%);fill-opacity:1;" d="M 267.679688 190 C 267.679688 196.667969 257.679688 196.667969 257.679688 190 C 257.679688 183.332031 267.679688 183.332031 267.679688 190 "></path>
<path style=" stroke:none;fill-rule:nonzero;fill:rgb(0%,0%,0%);fill-opacity:1;" d="M 285 180 C 285 186.667969 275 186.667969 275 180 C 275 173.332031 285 173.332031 285 180 "></path>
<path style=" stroke:none;fill-rule:nonzero;fill:rgb(0%,0%,0%);fill-opacity:1;" d="M 302.320313 190 C 302.320313 196.667969 292.320313 196.667969 292.320313 190 C 292.320313 183.332031 302.320313 183.332031 302.320313 190 "></path>
<path style=" stroke:none;fill-rule:nonzero;fill:rgb(0%,0%,0%);fill-opacity:1;" d="M 302.320313 210 C 302.320313 216.667969 292.320313 216.667969 292.320313 210 C 292.320313 203.332031 302.320313 203.332031 302.320313 210 "></path>
<path style="fill:none;stroke-width:2;stroke-linecap:round;stroke-linejoin:miter;stroke:rgb(0%,0%,0%);stroke-opacity:1;stroke-miterlimit:10;" d="M 367 207 L 353 207 L 353 193 L 367 193 Z M 367 207 "></path>
<path style=" stroke:none;fill-rule:nonzero;fill:rgb(0%,0%,0%);fill-opacity:1;" d="M 372 207 C 372 213.667969 362 213.667969 362 207 C 362 200.332031 372 200.332031 372 207 "></path>
<path style=" stroke:none;fill-rule:nonzero;fill:rgb(0%,0%,0%);fill-opacity:1;" d="M 358 207 C 358 213.667969 348 213.667969 348 207 C 348 200.332031 358 200.332031 358 207 "></path>
<path style=" stroke:none;fill-rule:nonzero;fill:rgb(0%,0%,0%);fill-opacity:1;" d="M 358 193 C 358 199.667969 348 199.667969 348 193 C 348 186.332031 358 186.332031 358 193 "></path>
<path style=" stroke:none;fill-rule:nonzero;fill:rgb(0%,0%,0%);fill-opacity:1;" d="M 372 193 C 372 199.667969 362 199.667969 362 193 C 362 186.332031 372 186.332031 372 193 "></path>
<path style="fill:none;stroke-width:2;stroke-linecap:round;stroke-linejoin:miter;stroke:rgb(0%,0%,0%);stroke-opacity:1;stroke-miterlimit:10;" d="M 353 193 L 367 193 L 367 179 L 353 179 Z M 353 193 "></path>
<path style=" stroke:none;fill-rule:nonzero;fill:rgb(0%,0%,0%);fill-opacity:1;" d="M 358 193 C 358 199.667969 348 199.667969 348 193 C 348 186.332031 358 186.332031 358 193 "></path>
<path style=" stroke:none;fill-rule:nonzero;fill:rgb(0%,0%,0%);fill-opacity:1;" d="M 372 193 C 372 199.667969 362 199.667969 362 193 C 362 186.332031 372 186.332031 372 193 "></path>
<path style=" stroke:none;fill-rule:nonzero;fill:rgb(0%,0%,0%);fill-opacity:1;" d="M 372 179 C 372 185.667969 362 185.667969 362 179 C 362 172.332031 372 172.332031 372 179 "></path>
<path style=" stroke:none;fill-rule:nonzero;fill:rgb(0%,0%,0%);fill-opacity:1;" d="M 358 179 C 358 185.667969 348 185.667969 348 179 C 348 172.332031 358 172.332031 358 179 "></path>
<path style="fill:none;stroke-width:2;stroke-linecap:round;stroke-linejoin:miter;stroke:rgb(0%,0%,0%);stroke-opacity:1;stroke-miterlimit:10;" d="M 424.410156 209 L 424.410156 191 L 440 182 L 455.589844 191 "></path>
<path style=" stroke:none;fill-rule:nonzero;fill:rgb(0%,0%,0%);fill-opacity:1;" d="M 429.410156 191 C 429.410156 197.667969 419.410156 197.667969 419.410156 191 C 419.410156 184.332031 429.410156 184.332031 429.410156 191 "></path>
<path style=" stroke:none;fill-rule:nonzero;fill:rgb(0%,0%,0%);fill-opacity:1;" d="M 445 182 C 445 188.667969 435 188.667969 435 182 C 435 175.332031 445 175.332031 445 182 "></path>
<path style="fill:none;stroke-width:2;stroke-linecap:round;stroke-linejoin:miter;stroke:rgb(0%,0%,0%);stroke-opacity:1;stroke-miterlimit:10;" d="M 440 182 L 455.589844 191 L 464.589844 175.410156 L 449 166.410156 Z M 440 182 "></path>
<path style=" stroke:none;fill-rule:nonzero;fill:rgb(0%,0%,0%);fill-opacity:1;" d="M 445 182 C 445 188.667969 435 188.667969 435 182 C 435 175.332031 445 175.332031 445 182 "></path>
<path style=" stroke:none;fill-rule:nonzero;fill:rgb(0%,0%,0%);fill-opacity:1;" d="M 460.589844 191 C 460.589844 197.667969 450.589844 197.667969 450.589844 191 C 450.589844 184.332031 460.589844 184.332031 460.589844 191 "></path>
<path style=" stroke:none;fill-rule:nonzero;fill:rgb(0%,0%,0%);fill-opacity:1;" d="M 469.589844 175.410156 C 469.589844 182.078125 459.589844 182.078125 459.589844 175.410156 C 459.589844 168.746094 469.589844 168.746094 469.589844 175.410156 "></path>
<path style=" stroke:none;fill-rule:nonzero;fill:rgb(0%,0%,0%);fill-opacity:1;" d="M 454 166.410156 C 454 173.078125 444 173.078125 444 166.410156 C 444 159.746094 454 159.746094 454 166.410156 "></path>
<path style="fill:none;stroke-width:2;stroke-linecap:round;stroke-linejoin:miter;stroke:rgb(0%,0%,0%);stroke-opacity:1;stroke-miterlimit:10;" d="M 55.589844 289 L 40 298 L 24.410156 289 L 24.410156 271 "></path>
<path style=" stroke:none;fill-rule:nonzero;fill:rgb(0%,0%,0%);fill-opacity:1;" d="M 45 298 C 45 304.667969 35 304.667969 35 298 C 35 291.332031 45 291.332031 45 298 "></path>
<path style=" stroke:none;fill-rule:nonzero;fill:rgb(0%,0%,0%);fill-opacity:1;" d="M 29.410156 289 C 29.410156 295.667969 19.410156 295.667969 19.410156 289 C 19.410156 282.332031 29.410156 282.332031 29.410156 289 "></path>
<path style="fill:none;stroke-width:2;stroke-linecap:round;stroke-linejoin:miter;stroke:rgb(0%,0%,0%);stroke-opacity:1;stroke-miterlimit:10;" d="M 55.589844 289 L 40 298 L 49 313.589844 L 64.589844 304.589844 Z M 55.589844 289 "></path>
<path style=" stroke:none;fill-rule:nonzero;fill:rgb(0%,0%,0%);fill-opacity:1;" d="M 60.589844 289 C 60.589844 295.667969 50.589844 295.667969 50.589844 289 C 50.589844 282.332031 60.589844 282.332031 60.589844 289 "></path>
<path style=" stroke:none;fill-rule:nonzero;fill:rgb(0%,0%,0%);fill-opacity:1;" d="M 45 298 C 45 304.667969 35 304.667969 35 298 C 35 291.332031 45 291.332031 45 298 "></path>
<path style=" stroke:none;fill-rule:nonzero;fill:rgb(0%,0%,0%);fill-opacity:1;" d="M 54 313.589844 C 54 320.253906 44 320.253906 44 313.589844 C 44 306.921875 54 306.921875 54 313.589844 "></path>
<path style=" stroke:none;fill-rule:nonzero;fill:rgb(0%,0%,0%);fill-opacity:1;" d="M 69.589844 304.589844 C 69.589844 311.253906 59.589844 311.253906 59.589844 304.589844 C 59.589844 297.921875 69.589844 297.921875 69.589844 304.589844 "></path>
<path style="fill:none;stroke-width:2;stroke-linecap:round;stroke-linejoin:miter;stroke:rgb(0%,0%,0%);stroke-opacity:1;stroke-miterlimit:10;" d="M 120 298 L 104.410156 289 L 104.410156 271 L 120 262 L 135.589844 271 "></path>
<path style=" stroke:none;fill-rule:nonzero;fill:rgb(0%,0%,0%);fill-opacity:1;" d="M 109.410156 289 C 109.410156 295.667969 99.410156 295.667969 99.410156 289 C 99.410156 282.332031 109.410156 282.332031 109.410156 289 "></path>
<path style=" stroke:none;fill-rule:nonzero;fill:rgb(0%,0%,0%);fill-opacity:1;" d="M 109.410156 271 C 109.410156 277.667969 99.410156 277.667969 99.410156 271 C 99.410156 264.332031 109.410156 264.332031 109.410156 271 "></path>
<path style=" stroke:none;fill-rule:nonzero;fill:rgb(0%,0%,0%);fill-opacity:1;" d="M 125 262 C 125 268.667969 115 268.667969 115 262 C 115 255.332031 125 255.332031 125 262 "></path>
<path style="fill:none;stroke-width:2;stroke-linecap:round;stroke-linejoin:miter;stroke:rgb(0%,0%,0%);stroke-opacity:1;stroke-miterlimit:10;" d="M 120 262 L 135.589844 271 L 144.589844 255.410156 L 129 246.410156 Z M 120 262 "></path>
<path style=" stroke:none;fill-rule:nonzero;fill:rgb(0%,0%,0%);fill-opacity:1;" d="M 125 262 C 125 268.667969 115 268.667969 115 262 C 115 255.332031 125 255.332031 125 262 "></path>
<path style=" stroke:none;fill-rule:nonzero;fill:rgb(0%,0%,0%);fill-opacity:1;" d="M 140.589844 271 C 140.589844 277.667969 130.589844 277.667969 130.589844 271 C 130.589844 264.332031 140.589844 264.332031 140.589844 271 "></path>
<path style=" stroke:none;fill-rule:nonzero;fill:rgb(0%,0%,0%);fill-opacity:1;" d="M 149.589844 255.410156 C 149.589844 262.078125 139.589844 262.078125 139.589844 255.410156 C 139.589844 248.746094 149.589844 248.746094 149.589844 255.410156 "></path>
<path style=" stroke:none;fill-rule:nonzero;fill:rgb(0%,0%,0%);fill-opacity:1;" d="M 134 246.410156 C 134 253.078125 124 253.078125 124 246.410156 C 124 239.746094 134 239.746094 134 246.410156 "></path>
<path style="fill:none;stroke-width:2;stroke-linecap:round;stroke-linejoin:miter;stroke:rgb(0%,0%,0%);stroke-opacity:1;stroke-miterlimit:10;" d="M 215.589844 289 L 200 298 L 184.410156 289 L 184.410156 271 L 200 262 "></path>
<path style=" stroke:none;fill-rule:nonzero;fill:rgb(0%,0%,0%);fill-opacity:1;" d="M 205 298 C 205 304.667969 195 304.667969 195 298 C 195 291.332031 205 291.332031 205 298 "></path>
<path style=" stroke:none;fill-rule:nonzero;fill:rgb(0%,0%,0%);fill-opacity:1;" d="M 189.410156 289 C 189.410156 295.667969 179.410156 295.667969 179.410156 289 C 179.410156 282.332031 189.410156 282.332031 189.410156 289 "></path>
<path style=" stroke:none;fill-rule:nonzero;fill:rgb(0%,0%,0%);fill-opacity:1;" d="M 189.410156 271 C 189.410156 277.667969 179.410156 277.667969 179.410156 271 C 179.410156 264.332031 189.410156 264.332031 189.410156 271 "></path>
<path style="fill:none;stroke-width:2;stroke-linecap:round;stroke-linejoin:miter;stroke:rgb(0%,0%,0%);stroke-opacity:1;stroke-miterlimit:10;" d="M 215.589844 289 L 200 298 L 209 313.589844 L 224.589844 304.589844 Z M 215.589844 289 "></path>
<path style=" stroke:none;fill-rule:nonzero;fill:rgb(0%,0%,0%);fill-opacity:1;" d="M 220.589844 289 C 220.589844 295.667969 210.589844 295.667969 210.589844 289 C 210.589844 282.332031 220.589844 282.332031 220.589844 289 "></path>
<path style=" stroke:none;fill-rule:nonzero;fill:rgb(0%,0%,0%);fill-opacity:1;" d="M 205 298 C 205 304.667969 195 304.667969 195 298 C 195 291.332031 205 291.332031 205 298 "></path>
<path style=" stroke:none;fill-rule:nonzero;fill:rgb(0%,0%,0%);fill-opacity:1;" d="M 214 313.589844 C 214 320.253906 204 320.253906 204 313.589844 C 204 306.921875 214 306.921875 214 313.589844 "></path>
<path style=" stroke:none;fill-rule:nonzero;fill:rgb(0%,0%,0%);fill-opacity:1;" d="M 229.589844 304.589844 C 229.589844 311.253906 219.589844 311.253906 219.589844 304.589844 C 219.589844 297.921875 229.589844 297.921875 229.589844 304.589844 "></path>
<path style="fill:none;stroke-width:2;stroke-linecap:round;stroke-linejoin:miter;stroke:rgb(0%,0%,0%);stroke-opacity:1;stroke-miterlimit:10;" d="M 280 298 L 264.410156 289 L 264.410156 271 L 280 262 L 295.589844 271 L 295.589844 289 Z M 280 298 "></path>
<path style=" stroke:none;fill-rule:nonzero;fill:rgb(0%,0%,0%);fill-opacity:1;" d="M 285 298 C 285 304.667969 275 304.667969 275 298 C 275 291.332031 285 291.332031 285 298 "></path>
<path style=" stroke:none;fill-rule:nonzero;fill:rgb(0%,0%,0%);fill-opacity:1;" d="M 269.410156 289 C 269.410156 295.667969 259.410156 295.667969 259.410156 289 C 259.410156 282.332031 269.410156 282.332031 269.410156 289 "></path>
<path style=" stroke:none;fill-rule:nonzero;fill:rgb(0%,0%,0%);fill-opacity:1;" d="M 269.410156 271 C 269.410156 277.667969 259.410156 277.667969 259.410156 271 C 259.410156 264.332031 269.410156 264.332031 269.410156 271 "></path>
<path style=" stroke:none;fill-rule:nonzero;fill:rgb(0%,0%,0%);fill-opacity:1;" d="M 285 262 C 285 268.667969 275 268.667969 275 262 C 275 255.332031 285 255.332031 285 262 "></path>
<path style=" stroke:none;fill-rule:nonzero;fill:rgb(0%,0%,0%);fill-opacity:1;" d="M 300.589844 271 C 300.589844 277.667969 290.589844 277.667969 290.589844 271 C 290.589844 264.332031 300.589844 264.332031 300.589844 271 "></path>
<path style=" stroke:none;fill-rule:nonzero;fill:rgb(0%,0%,0%);fill-opacity:1;" d="M 300.589844 289 C 300.589844 295.667969 290.589844 295.667969 290.589844 289 C 290.589844 282.332031 300.589844 282.332031 300.589844 289 "></path>
<path style="fill:none;stroke-width:2;stroke-linecap:round;stroke-linejoin:miter;stroke:rgb(0%,0%,0%);stroke-opacity:1;stroke-miterlimit:10;" d="M 295.589844 289 L 280 298 L 289 313.589844 L 304.589844 304.589844 Z M 295.589844 289 "></path>
<path style=" stroke:none;fill-rule:nonzero;fill:rgb(0%,0%,0%);fill-opacity:1;" d="M 300.589844 289 C 300.589844 295.667969 290.589844 295.667969 290.589844 289 C 290.589844 282.332031 300.589844 282.332031 300.589844 289 "></path>
<path style=" stroke:none;fill-rule:nonzero;fill:rgb(0%,0%,0%);fill-opacity:1;" d="M 285 298 C 285 304.667969 275 304.667969 275 298 C 275 291.332031 285 291.332031 285 298 "></path>
<path style=" stroke:none;fill-rule:nonzero;fill:rgb(0%,0%,0%);fill-opacity:1;" d="M 294 313.589844 C 294 320.253906 284 320.253906 284 313.589844 C 284 306.921875 294 306.921875 294 313.589844 "></path>
<path style=" stroke:none;fill-rule:nonzero;fill:rgb(0%,0%,0%);fill-opacity:1;" d="M 309.589844 304.589844 C 309.589844 311.253906 299.589844 311.253906 299.589844 304.589844 C 299.589844 297.921875 309.589844 297.921875 309.589844 304.589844 "></path>
<path style="fill:none;stroke-width:2;stroke-linecap:round;stroke-linejoin:miter;stroke:rgb(0%,0%,0%);stroke-opacity:1;stroke-miterlimit:10;" d="M 350 290 L 350 270 L 370 270 L 370 290 "></path>
<path style=" stroke:none;fill-rule:nonzero;fill:rgb(0%,0%,0%);fill-opacity:1;" d="M 355 270 C 355 276.667969 345 276.667969 345 270 C 345 263.332031 355 263.332031 355 270 "></path>
<path style=" stroke:none;fill-rule:nonzero;fill:rgb(0%,0%,0%);fill-opacity:1;" d="M 375 270 C 375 276.667969 365 276.667969 365 270 C 365 263.332031 375 263.332031 375 270 "></path>
<path style="fill:none;stroke-width:2;stroke-linecap:round;stroke-linejoin:miter;stroke:rgb(0%,0%,0%);stroke-opacity:1;stroke-miterlimit:10;" d="M 370 270 L 380.605469 259.394531 "></path>
<path style="fill:none;stroke-width:2;stroke-linecap:round;stroke-linejoin:miter;stroke:rgb(0%,0%,0%);stroke-opacity:1;stroke-miterlimit:10;" d="M 450 290 L 430 290 L 430 270 L 450 270 "></path>
<path style=" stroke:none;fill-rule:nonzero;fill:rgb(0%,0%,0%);fill-opacity:1;" d="M 435 290 C 435 296.667969 425 296.667969 425 290 C 425 283.332031 435 283.332031 435 290 "></path>
<path style=" stroke:none;fill-rule:nonzero;fill:rgb(0%,0%,0%);fill-opacity:1;" d="M 435 270 C 435 276.667969 425 276.667969 425 270 C 425 263.332031 435 263.332031 435 270 "></path>
<path style="fill:none;stroke-width:2;stroke-linecap:round;stroke-linejoin:miter;stroke:rgb(0%,0%,0%);stroke-opacity:1;stroke-miterlimit:10;" d="M 430 290 L 419.394531 300.605469 "></path>
<path style="fill:none;stroke-width:2;stroke-linecap:round;stroke-linejoin:miter;stroke:rgb(0%,0%,0%);stroke-opacity:1;stroke-miterlimit:10;" d="M 50 350 L 50 370 L 30 370 L 30 350 "></path>
<path style=" stroke:none;fill-rule:nonzero;fill:rgb(0%,0%,0%);fill-opacity:1;" d="M 55 370 C 55 376.667969 45 376.667969 45 370 C 45 363.332031 55 363.332031 55 370 "></path>
<path style=" stroke:none;fill-rule:nonzero;fill:rgb(0%,0%,0%);fill-opacity:1;" d="M 35 370 C 35 376.667969 25 376.667969 25 370 C 25 363.332031 35 363.332031 35 370 "></path>
<path style="fill:none;stroke-width:2;stroke-linecap:round;stroke-linejoin:miter;stroke:rgb(0%,0%,0%);stroke-opacity:1;stroke-miterlimit:10;" d="M 30 370 L 19.394531 380.605469 "></path>
<path style="fill:none;stroke-width:2;stroke-linecap:round;stroke-linejoin:miter;stroke:rgb(0%,0%,0%);stroke-opacity:1;stroke-miterlimit:10;" d="M 125.257813 376.179688 L 106.234375 370 L 106.234375 350 L 125.257813 343.820313 L 137.011719 360 Z M 125.257813 376.179688 "></path>
<path style=" stroke:none;fill-rule:nonzero;fill:rgb(0%,0%,0%);fill-opacity:1;" d="M 130.257813 376.179688 C 130.257813 382.847656 120.257813 382.847656 120.257813 376.179688 C 120.257813 369.515625 130.257813 369.515625 130.257813 376.179688 "></path>
<path style=" stroke:none;fill-rule:nonzero;fill:rgb(0%,0%,0%);fill-opacity:1;" d="M 111.234375 370 C 111.234375 376.667969 101.234375 376.667969 101.234375 370 C 101.234375 363.332031 111.234375 363.332031 111.234375 370 "></path>
<path style=" stroke:none;fill-rule:nonzero;fill:rgb(0%,0%,0%);fill-opacity:1;" d="M 111.234375 350 C 111.234375 356.667969 101.234375 356.667969 101.234375 350 C 101.234375 343.332031 111.234375 343.332031 111.234375 350 "></path>
<path style=" stroke:none;fill-rule:nonzero;fill:rgb(0%,0%,0%);fill-opacity:1;" d="M 130.257813 343.820313 C 130.257813 350.484375 120.257813 350.484375 120.257813 343.820313 C 120.257813 337.152344 130.257813 337.152344 130.257813 343.820313 "></path>
<path style=" stroke:none;fill-rule:nonzero;fill:rgb(0%,0%,0%);fill-opacity:1;" d="M 142.011719 360 C 142.011719 366.667969 132.011719 366.667969 132.011719 360 C 132.011719 353.332031 142.011719 353.332031 142.011719 360 "></path>
<path style="fill:none;stroke-width:2;stroke-linecap:round;stroke-linejoin:miter;stroke:rgb(0%,0%,0%);stroke-opacity:1;stroke-miterlimit:10;" d="M 125.257813 343.820313 L 129.890625 329.554688 "></path>
<path style="fill:none;stroke-width:2;stroke-linecap:round;stroke-linejoin:miter;stroke:rgb(0%,0%,0%);stroke-opacity:1;stroke-miterlimit:10;" d="M 205.257813 376.179688 L 186.234375 370 L 186.234375 350 L 205.257813 343.820313 L 217.011719 360 Z M 205.257813 376.179688 "></path>
<path style=" stroke:none;fill-rule:nonzero;fill:rgb(0%,0%,0%);fill-opacity:1;" d="M 210.257813 376.179688 C 210.257813 382.847656 200.257813 382.847656 200.257813 376.179688 C 200.257813 369.515625 210.257813 369.515625 210.257813 376.179688 "></path>
<path style=" stroke:none;fill-rule:nonzero;fill:rgb(0%,0%,0%);fill-opacity:1;" d="M 191.234375 370 C 191.234375 376.667969 181.234375 376.667969 181.234375 370 C 181.234375 363.332031 191.234375 363.332031 191.234375 370 "></path>
<path style=" stroke:none;fill-rule:nonzero;fill:rgb(0%,0%,0%);fill-opacity:1;" d="M 191.234375 350 C 191.234375 356.667969 181.234375 356.667969 181.234375 350 C 181.234375 343.332031 191.234375 343.332031 191.234375 350 "></path>
<path style=" stroke:none;fill-rule:nonzero;fill:rgb(0%,0%,0%);fill-opacity:1;" d="M 210.257813 343.820313 C 210.257813 350.484375 200.257813 350.484375 200.257813 343.820313 C 200.257813 337.152344 210.257813 337.152344 210.257813 343.820313 "></path>
<path style=" stroke:none;fill-rule:nonzero;fill:rgb(0%,0%,0%);fill-opacity:1;" d="M 222.011719 360 C 222.011719 366.667969 212.011719 366.667969 212.011719 360 C 212.011719 353.332031 222.011719 353.332031 222.011719 360 "></path>
<path style="fill:none;stroke-width:2;stroke-linecap:round;stroke-linejoin:miter;stroke:rgb(0%,0%,0%);stroke-opacity:1;stroke-miterlimit:10;" d="M 205.257813 376.179688 L 209.890625 390.445313 "></path>
<path style="fill:none;stroke-width:2;stroke-linecap:round;stroke-linejoin:miter;stroke:rgb(0%,0%,0%);stroke-opacity:1;stroke-miterlimit:10;" d="M 285.257813 376.179688 L 266.234375 370 L 266.234375 350 L 285.257813 343.820313 L 297.011719 360 Z M 285.257813 376.179688 "></path>
<path style=" stroke:none;fill-rule:nonzero;fill:rgb(0%,0%,0%);fill-opacity:1;" d="M 290.257813 376.179688 C 290.257813 382.847656 280.257813 382.847656 280.257813 376.179688 C 280.257813 369.515625 290.257813 369.515625 290.257813 376.179688 "></path>
<path style=" stroke:none;fill-rule:nonzero;fill:rgb(0%,0%,0%);fill-opacity:1;" d="M 271.234375 370 C 271.234375 376.667969 261.234375 376.667969 261.234375 370 C 261.234375 363.332031 271.234375 363.332031 271.234375 370 "></path>
<path style=" stroke:none;fill-rule:nonzero;fill:rgb(0%,0%,0%);fill-opacity:1;" d="M 271.234375 350 C 271.234375 356.667969 261.234375 356.667969 261.234375 350 C 261.234375 343.332031 271.234375 343.332031 271.234375 350 "></path>
<path style=" stroke:none;fill-rule:nonzero;fill:rgb(0%,0%,0%);fill-opacity:1;" d="M 290.257813 343.820313 C 290.257813 350.484375 280.257813 350.484375 280.257813 343.820313 C 280.257813 337.152344 290.257813 337.152344 290.257813 343.820313 "></path>
<path style=" stroke:none;fill-rule:nonzero;fill:rgb(0%,0%,0%);fill-opacity:1;" d="M 302.011719 360 C 302.011719 366.667969 292.011719 366.667969 292.011719 360 C 292.011719 353.332031 302.011719 353.332031 302.011719 360 "></path>
<path style="fill:none;stroke-width:2;stroke-linecap:round;stroke-linejoin:miter;stroke:rgb(0%,0%,0%);stroke-opacity:1;stroke-miterlimit:10;" d="M 297.011719 360 L 312.011719 360 "></path>
<path style="fill:none;stroke-width:2;stroke-linecap:round;stroke-linejoin:miter;stroke:rgb(0%,0%,0%);stroke-opacity:1;stroke-miterlimit:10;" d="M 350 370 L 350 350 L 370 350 L 370 370 "></path>
<path style=" stroke:none;fill-rule:nonzero;fill:rgb(0%,0%,0%);fill-opacity:1;" d="M 355 350 C 355 356.667969 345 356.667969 345 350 C 345 343.332031 355 343.332031 355 350 "></path>
<path style=" stroke:none;fill-rule:nonzero;fill:rgb(0%,0%,0%);fill-opacity:1;" d="M 375 350 C 375 356.667969 365 356.667969 365 350 C 365 343.332031 375 343.332031 375 350 "></path>
<path style="fill:none;stroke-width:2;stroke-linecap:round;stroke-linejoin:miter;stroke:rgb(0%,0%,0%);stroke-opacity:1;stroke-miterlimit:10;" d="M 339.394531 339.394531 L 350 350 L 370 350 L 380.605469 339.394531 "></path>
<path style=" stroke:none;fill-rule:nonzero;fill:rgb(0%,0%,0%);fill-opacity:1;" d="M 355 350 C 355 356.667969 345 356.667969 345 350 C 345 343.332031 355 343.332031 355 350 "></path>
<path style=" stroke:none;fill-rule:nonzero;fill:rgb(0%,0%,0%);fill-opacity:1;" d="M 375 350 C 375 356.667969 365 356.667969 365 350 C 365 343.332031 375 343.332031 375 350 "></path>
<path style="fill:none;stroke-width:2;stroke-linecap:round;stroke-linejoin:miter;stroke:rgb(0%,0%,0%);stroke-opacity:1;stroke-miterlimit:10;" d="M 450 370 L 430 370 L 430 350 L 450 350 "></path>
<path style=" stroke:none;fill-rule:nonzero;fill:rgb(0%,0%,0%);fill-opacity:1;" d="M 435 370 C 435 376.667969 425 376.667969 425 370 C 425 363.332031 435 363.332031 435 370 "></path>
<path style=" stroke:none;fill-rule:nonzero;fill:rgb(0%,0%,0%);fill-opacity:1;" d="M 435 350 C 435 356.667969 425 356.667969 425 350 C 425 343.332031 435 343.332031 435 350 "></path>
<path style="fill:none;stroke-width:2;stroke-linecap:round;stroke-linejoin:miter;stroke:rgb(0%,0%,0%);stroke-opacity:1;stroke-miterlimit:10;" d="M 419.394531 380.605469 L 430 370 L 430 350 L 419.394531 339.394531 "></path>
<path style=" stroke:none;fill-rule:nonzero;fill:rgb(0%,0%,0%);fill-opacity:1;" d="M 435 370 C 435 376.667969 425 376.667969 425 370 C 425 363.332031 435 363.332031 435 370 "></path>
<path style=" stroke:none;fill-rule:nonzero;fill:rgb(0%,0%,0%);fill-opacity:1;" d="M 435 350 C 435 356.667969 425 356.667969 425 350 C 425 343.332031 435 343.332031 435 350 "></path>
<path style="fill:none;stroke-width:2;stroke-linecap:round;stroke-linejoin:miter;stroke:rgb(0%,0%,0%);stroke-opacity:1;stroke-miterlimit:10;" d="M 50 430 L 50 450 L 30 450 L 30 430 "></path>
<path style=" stroke:none;fill-rule:nonzero;fill:rgb(0%,0%,0%);fill-opacity:1;" d="M 55 450 C 55 456.667969 45 456.667969 45 450 C 45 443.332031 55 443.332031 55 450 "></path>
<path style=" stroke:none;fill-rule:nonzero;fill:rgb(0%,0%,0%);fill-opacity:1;" d="M 35 450 C 35 456.667969 25 456.667969 25 450 C 25 443.332031 35 443.332031 35 450 "></path>
<path style="fill:none;stroke-width:2;stroke-linecap:round;stroke-linejoin:miter;stroke:rgb(0%,0%,0%);stroke-opacity:1;stroke-miterlimit:10;" d="M 60.605469 460.605469 L 50 450 L 30 450 L 19.394531 460.605469 "></path>
<path style=" stroke:none;fill-rule:nonzero;fill:rgb(0%,0%,0%);fill-opacity:1;" d="M 55 450 C 55 456.667969 45 456.667969 45 450 C 45 443.332031 55 443.332031 55 450 "></path>
<path style=" stroke:none;fill-rule:nonzero;fill:rgb(0%,0%,0%);fill-opacity:1;" d="M 35 450 C 35 456.667969 25 456.667969 25 450 C 25 443.332031 35 443.332031 35 450 "></path>
<path style="fill:none;stroke-width:2;stroke-linecap:round;stroke-linejoin:miter;stroke:rgb(0%,0%,0%);stroke-opacity:1;stroke-miterlimit:10;" d="M 130 450 L 110 450 L 110 430 L 130 430 Z M 130 450 "></path>
<path style=" stroke:none;fill-rule:nonzero;fill:rgb(0%,0%,0%);fill-opacity:1;" d="M 135 450 C 135 456.667969 125 456.667969 125 450 C 125 443.332031 135 443.332031 135 450 "></path>
<path style=" stroke:none;fill-rule:nonzero;fill:rgb(0%,0%,0%);fill-opacity:1;" d="M 115 450 C 115 456.667969 105 456.667969 105 450 C 105 443.332031 115 443.332031 115 450 "></path>
<path style=" stroke:none;fill-rule:nonzero;fill:rgb(0%,0%,0%);fill-opacity:1;" d="M 115 430 C 115 436.667969 105 436.667969 105 430 C 105 423.332031 115 423.332031 115 430 "></path>
<path style=" stroke:none;fill-rule:nonzero;fill:rgb(0%,0%,0%);fill-opacity:1;" d="M 135 430 C 135 436.667969 125 436.667969 125 430 C 125 423.332031 135 423.332031 135 430 "></path>
<path style="fill:none;stroke-width:2;stroke-linecap:round;stroke-linejoin:miter;stroke:rgb(0%,0%,0%);stroke-opacity:1;stroke-miterlimit:10;" d="M 140.605469 419.394531 L 130 430 L 130 450 L 140.605469 460.605469 "></path>
<path style=" stroke:none;fill-rule:nonzero;fill:rgb(0%,0%,0%);fill-opacity:1;" d="M 135 430 C 135 436.667969 125 436.667969 125 430 C 125 423.332031 135 423.332031 135 430 "></path>
<path style=" stroke:none;fill-rule:nonzero;fill:rgb(0%,0%,0%);fill-opacity:1;" d="M 135 450 C 135 456.667969 125 456.667969 125 450 C 125 443.332031 135 443.332031 135 450 "></path>
<path style="fill:none;stroke-width:2;stroke-linecap:round;stroke-linejoin:miter;stroke:rgb(0%,0%,0%);stroke-opacity:1;stroke-miterlimit:10;" d="M 200 453 L 188.742188 446.5 L 188.742188 433.5 L 200 427 L 211.257813 433.5 L 211.257813 446.5 Z M 200 453 "></path>
<path style=" stroke:none;fill-rule:nonzero;fill:rgb(0%,0%,0%);fill-opacity:1;" d="M 205 453 C 205 459.667969 195 459.667969 195 453 C 195 446.332031 205 446.332031 205 453 "></path>
<path style=" stroke:none;fill-rule:nonzero;fill:rgb(0%,0%,0%);fill-opacity:1;" d="M 193.742188 446.5 C 193.742188 453.167969 183.742188 453.167969 183.742188 446.5 C 183.742188 439.832031 193.742188 439.832031 193.742188 446.5 "></path>
<path style=" stroke:none;fill-rule:nonzero;fill:rgb(0%,0%,0%);fill-opacity:1;" d="M 193.742188 433.5 C 193.742188 440.167969 183.742188 440.167969 183.742188 433.5 C 183.742188 426.832031 193.742188 426.832031 193.742188 433.5 "></path>
<path style=" stroke:none;fill-rule:nonzero;fill:rgb(0%,0%,0%);fill-opacity:1;" d="M 205 427 C 205 433.667969 195 433.667969 195 427 C 195 420.332031 205 420.332031 205 427 "></path>
<path style=" stroke:none;fill-rule:nonzero;fill:rgb(0%,0%,0%);fill-opacity:1;" d="M 216.257813 433.5 C 216.257813 440.167969 206.257813 440.167969 206.257813 433.5 C 206.257813 426.832031 216.257813 426.832031 216.257813 433.5 "></path>
<path style=" stroke:none;fill-rule:nonzero;fill:rgb(0%,0%,0%);fill-opacity:1;" d="M 216.257813 446.5 C 216.257813 453.167969 206.257813 453.167969 206.257813 446.5 C 206.257813 439.832031 216.257813 439.832031 216.257813 446.5 "></path>
<path style="fill:none;stroke-width:2;stroke-linecap:round;stroke-linejoin:miter;stroke:rgb(0%,0%,0%);stroke-opacity:1;stroke-miterlimit:10;" d="M 223.621094 450.515625 L 211.257813 446.5 L 211.257813 433.5 L 223.621094 429.484375 L 231.261719 440 Z M 223.621094 450.515625 "></path>
<path style=" stroke:none;fill-rule:nonzero;fill:rgb(0%,0%,0%);fill-opacity:1;" d="M 228.621094 450.515625 C 228.621094 457.183594 218.621094 457.183594 218.621094 450.515625 C 218.621094 443.851563 228.621094 443.851563 228.621094 450.515625 "></path>
<path style=" stroke:none;fill-rule:nonzero;fill:rgb(0%,0%,0%);fill-opacity:1;" d="M 216.257813 446.5 C 216.257813 453.167969 206.257813 453.167969 206.257813 446.5 C 206.257813 439.832031 216.257813 439.832031 216.257813 446.5 "></path>
<path style=" stroke:none;fill-rule:nonzero;fill:rgb(0%,0%,0%);fill-opacity:1;" d="M 216.257813 433.5 C 216.257813 440.167969 206.257813 440.167969 206.257813 433.5 C 206.257813 426.832031 216.257813 426.832031 216.257813 433.5 "></path>
<path style=" stroke:none;fill-rule:nonzero;fill:rgb(0%,0%,0%);fill-opacity:1;" d="M 228.621094 429.484375 C 228.621094 436.148438 218.621094 436.148438 218.621094 429.484375 C 218.621094 422.816406 228.621094 422.816406 228.621094 429.484375 "></path>
<path style=" stroke:none;fill-rule:nonzero;fill:rgb(0%,0%,0%);fill-opacity:1;" d="M 236.261719 440 C 236.261719 446.667969 226.261719 446.667969 226.261719 440 C 226.261719 433.332031 236.261719 433.332031 236.261719 440 "></path>
</g>
</svg>