<svg xmlns="http://www.w3.org/2000/svg" xmlns:xlink="http://www.w3.org/1999/xlink" width="1725.948247pt" height="1432.501668pt" viewBox="0 0 1725.948247 1432.501668" version="1.1">
<g id="surface49">
<rect x="0" y="0" width="1725.948247" height="1432.501668" style="fill:rgb(98.039216%,92.156863%,84.313725%);fill-opacity:1;stroke:none;"></rect>
<path style="fill:none;stroke-width:4;stroke-linecap:round;stroke-linejoin:miter;stroke:rgb(6.27451%,30.588235%,54.509804%);stroke-opacity:1;stroke-miterlimit:10;" d="M 1387.328125 513.699219 L 1370.128906 502.289063 L 1371.414063 481.6875 L 1389.894531 472.5 "></path>
<path style=" stroke:none;fill-rule:nonzero;fill:rgb(6.27451%,30.588235%,54.509804%);fill-opacity:1;" d="M 1372.355469 506.765625 C 1366.386719 509.734375 1361.933594 500.78125 1367.902344 497.8125 C 1373.875 494.84375 1378.324219 503.796875 1372.355469 506.765625 "></path>
<path style=" stroke:none;fill-rule:nonzero;fill:rgb(6.27451%,30.588235%,54.509804%);fill-opacity:1;" d="M 1373.640625 486.167969 C 1367.667969 489.132813 1363.21875 480.179688 1369.1875 477.210938 C 1375.15625 474.242188 1379.609375 483.199219 1373.640625 486.167969 "></path>
<path style="fill:none;stroke-width:4;stroke-linecap:round;stroke-linejoin:miter;stroke:rgb(6.27451%,30.588235%,54.509804%);stroke-opacity:1;stroke-miterlimit:10;" d="M 1387.328125 513.699219 L 1370.128906 502.289063 L 1358.71875 519.488281 L 1375.917969 530.898438 Z M 1387.328125 513.699219 "></path>
<path style=" stroke:none;fill-rule:nonzero;fill:rgb(6.27451%,30.588235%,54.509804%);fill-opacity:1;" d="M 1389.554688 518.175781 C 1383.585938 521.144531 1379.132813 512.191406 1385.101563 509.222656 C 1391.070313 506.253906 1395.523438 515.210938 1389.554688 518.175781 "></path>
<path style=" stroke:none;fill-rule:nonzero;fill:rgb(6.27451%,30.588235%,54.509804%);fill-opacity:1;" d="M 1372.355469 506.765625 C 1366.386719 509.734375 1361.933594 500.78125 1367.902344 497.8125 C 1373.875 494.84375 1378.324219 503.796875 1372.355469 506.765625 "></path>
<path style=" stroke:none;fill-rule:nonzero;fill:rgb(6.27451%,30.588235%,54.509804%);fill-opacity:1;" d="M 1360.945313 523.964844 C 1354.976563 526.933594 1350.523438 517.980469 1356.492188 515.011719 C 1362.460938 512.042969 1366.914063 520.996094 1360.945313 523.964844 "></path>
<path style=" stroke:none;fill-rule:nonzero;fill:rgb(6.27451%,30.588235%,54.509804%);fill-opacity:1;" d="M 1378.144531 535.375 C 1372.171875 538.34375 1367.722656 529.390625 1373.691406 526.421875 C 1379.660156 523.453125 1384.113281 532.40625 1378.144531 535.375 "></path>
<path style="fill:none;stroke-width:4;stroke-linecap:round;stroke-linejoin:miter;stroke:rgb(6.27451%,30.588235%,54.509804%);stroke-opacity:1;stroke-miterlimit:10;" d="M 1420.839844 596.414063 L 1417.480469 580.132813 L 1433.765625 576.773438 L 1437.121094 593.054688 Z M 1420.839844 596.414063 "></path>
<path style=" stroke:none;fill-rule:nonzero;fill:rgb(6.27451%,30.588235%,54.509804%);fill-opacity:1;" d="M 1421.847656 601.3125 C 1415.320313 602.65625 1413.300781 592.863281 1419.828125 591.515625 C 1426.359375 590.171875 1428.378906 599.964844 1421.847656 601.3125 "></path>
<path style=" stroke:none;fill-rule:nonzero;fill:rgb(6.27451%,30.588235%,54.509804%);fill-opacity:1;" d="M 1418.492188 585.027344 C 1411.960938 586.375 1409.941406 576.582031 1416.472656 575.234375 C 1423 573.886719 1425.019531 583.683594 1418.492188 585.027344 "></path>
<path style=" stroke:none;fill-rule:nonzero;fill:rgb(6.27451%,30.588235%,54.509804%);fill-opacity:1;" d="M 1434.773438 581.671875 C 1428.246094 583.015625 1426.226563 573.222656 1432.753906 571.878906 C 1439.285156 570.53125 1441.304688 580.324219 1434.773438 581.671875 "></path>
<path style=" stroke:none;fill-rule:nonzero;fill:rgb(6.27451%,30.588235%,54.509804%);fill-opacity:1;" d="M 1438.132813 597.953125 C 1431.601563 599.300781 1429.582031 589.507813 1436.113281 588.160156 C 1442.640625 586.8125 1444.660156 596.605469 1438.132813 597.953125 "></path>
<path style="fill:none;stroke-width:4;stroke-linecap:round;stroke-linejoin:miter;stroke:rgb(6.27451%,30.588235%,54.509804%);stroke-opacity:1;stroke-miterlimit:10;" d="M 1433.765625 576.773438 L 1437.121094 593.054688 L 1453.402344 589.699219 L 1450.046875 573.417969 Z M 1433.765625 576.773438 "></path>
<path style=" stroke:none;fill-rule:nonzero;fill:rgb(6.27451%,30.588235%,54.509804%);fill-opacity:1;" d="M 1434.773438 581.671875 C 1428.246094 583.015625 1426.226563 573.222656 1432.753906 571.878906 C 1439.285156 570.53125 1441.304688 580.324219 1434.773438 581.671875 "></path>
<path style=" stroke:none;fill-rule:nonzero;fill:rgb(6.27451%,30.588235%,54.509804%);fill-opacity:1;" d="M 1438.132813 597.953125 C 1431.601563 599.300781 1429.582031 589.507813 1436.113281 588.160156 C 1442.640625 586.8125 1444.660156 596.605469 1438.132813 597.953125 "></path>
<path style=" stroke:none;fill-rule:nonzero;fill:rgb(6.27451%,30.588235%,54.509804%);fill-opacity:1;" d="M 1454.414063 594.597656 C 1447.882813 595.941406 1445.863281 586.148438 1452.394531 584.800781 C 1458.921875 583.457031 1460.941406 593.25 1454.414063 594.597656 "></path>
<path style=" stroke:none;fill-rule:nonzero;fill:rgb(6.27451%,30.588235%,54.509804%);fill-opacity:1;" d="M 1451.054688 578.3125 C 1444.527344 579.660156 1442.507813 569.867188 1449.039063 568.519531 C 1455.566406 567.171875 1457.585938 576.96875 1451.054688 578.3125 "></path>
<path style="fill:none;stroke-width:4;stroke-linecap:round;stroke-linejoin:miter;stroke:rgb(6.27451%,30.588235%,54.509804%);stroke-opacity:1;stroke-miterlimit:10;" d="M 1421.398438 694.710938 L 1429.992188 671.660156 L 1454.570313 672.714844 L 1461.164063 696.414063 L 1440.664063 710.007813 Z M 1421.398438 694.710938 "></path>
<path style=" stroke:none;fill-rule:nonzero;fill:rgb(6.27451%,30.588235%,54.509804%);fill-opacity:1;" d="M 1421.183594 699.707031 C 1414.523438 699.421875 1414.949219 689.429688 1421.613281 689.714844 C 1428.273438 690 1427.84375 699.992188 1421.183594 699.707031 "></path>
<path style=" stroke:none;fill-rule:nonzero;fill:rgb(6.27451%,30.588235%,54.509804%);fill-opacity:1;" d="M 1429.78125 676.65625 C 1423.117188 676.371094 1423.546875 666.378906 1430.207031 666.664063 C 1436.867188 666.953125 1436.441406 676.941406 1429.78125 676.65625 "></path>
<path style=" stroke:none;fill-rule:nonzero;fill:rgb(6.27451%,30.588235%,54.509804%);fill-opacity:1;" d="M 1454.355469 677.710938 C 1447.695313 677.425781 1448.125 667.433594 1454.785156 667.71875 C 1461.445313 668.003906 1461.015625 677.996094 1454.355469 677.710938 "></path>
<path style=" stroke:none;fill-rule:nonzero;fill:rgb(6.27451%,30.588235%,54.509804%);fill-opacity:1;" d="M 1460.949219 701.410156 C 1454.289063 701.125 1454.71875 691.132813 1461.378906 691.417969 C 1468.039063 691.703125 1467.613281 701.695313 1460.949219 701.410156 "></path>
<path style=" stroke:none;fill-rule:nonzero;fill:rgb(6.27451%,30.588235%,54.509804%);fill-opacity:1;" d="M 1440.449219 715.003906 C 1433.789063 714.71875 1434.214844 704.726563 1440.875 705.011719 C 1447.535156 705.296875 1447.109375 715.289063 1440.449219 715.003906 "></path>
<path style="fill:none;stroke-width:4;stroke-linecap:round;stroke-linejoin:miter;stroke:rgb(6.27451%,30.588235%,54.509804%);stroke-opacity:1;stroke-miterlimit:10;" d="M 1313.242188 975.710938 L 1336.738281 968.371094 L 1354.839844 985.046875 L 1349.449219 1009.066406 L 1325.953125 1016.40625 "></path>
<path style=" stroke:none;fill-rule:nonzero;fill:rgb(6.27451%,30.588235%,54.509804%);fill-opacity:1;" d="M 1333.351563 972.046875 C 1328.445313 967.53125 1335.222656 960.175781 1340.125 964.691406 C 1345.027344 969.210938 1338.253906 976.5625 1333.351563 972.046875 "></path>
<path style=" stroke:none;fill-rule:nonzero;fill:rgb(6.27451%,30.588235%,54.509804%);fill-opacity:1;" d="M 1351.453125 988.726563 C 1346.550781 984.207031 1353.324219 976.851563 1358.230469 981.371094 C 1363.132813 985.886719 1356.355469 993.242188 1351.453125 988.726563 "></path>
<path style=" stroke:none;fill-rule:nonzero;fill:rgb(6.27451%,30.588235%,54.509804%);fill-opacity:1;" d="M 1346.0625 1012.742188 C 1341.160156 1008.226563 1347.933594 1000.871094 1352.835938 1005.386719 C 1357.742188 1009.90625 1350.964844 1017.257813 1346.0625 1012.742188 "></path>
<path style="fill:none;stroke-width:4;stroke-linecap:round;stroke-linejoin:miter;stroke:rgb(6.27451%,30.588235%,54.509804%);stroke-opacity:1;stroke-miterlimit:10;" d="M 1349.449219 1009.066406 L 1325.953125 1016.40625 L 1333.292969 1039.898438 L 1356.789063 1032.558594 Z M 1349.449219 1009.066406 "></path>
<path style=" stroke:none;fill-rule:nonzero;fill:rgb(6.27451%,30.588235%,54.509804%);fill-opacity:1;" d="M 1346.0625 1012.742188 C 1341.160156 1008.226563 1347.933594 1000.871094 1352.835938 1005.386719 C 1357.742188 1009.90625 1350.964844 1017.257813 1346.0625 1012.742188 "></path>
<path style=" stroke:none;fill-rule:nonzero;fill:rgb(6.27451%,30.588235%,54.509804%);fill-opacity:1;" d="M 1322.566406 1020.082031 C 1317.664063 1015.566406 1324.4375 1008.210938 1329.34375 1012.726563 C 1334.246094 1017.246094 1327.46875 1024.597656 1322.566406 1020.082031 "></path>
<path style=" stroke:none;fill-rule:nonzero;fill:rgb(6.27451%,30.588235%,54.509804%);fill-opacity:1;" d="M 1329.90625 1043.578125 C 1325.003906 1039.058594 1331.777344 1031.707031 1336.679688 1036.222656 C 1341.585938 1040.738281 1334.808594 1048.09375 1329.90625 1043.578125 "></path>
<path style=" stroke:none;fill-rule:nonzero;fill:rgb(6.27451%,30.588235%,54.509804%);fill-opacity:1;" d="M 1353.402344 1036.238281 C 1348.5 1031.722656 1355.273438 1024.367188 1360.175781 1028.882813 C 1365.078125 1033.398438 1358.304688 1040.753906 1353.402344 1036.238281 "></path>
<path style="fill:none;stroke-width:4;stroke-linecap:round;stroke-linejoin:miter;stroke:rgb(6.27451%,30.588235%,54.509804%);stroke-opacity:1;stroke-miterlimit:10;" d="M 1229.085938 1068.640625 L 1252.339844 1052.449219 L 1268.53125 1075.703125 L 1245.277344 1091.894531 Z M 1229.085938 1068.640625 "></path>
<path style=" stroke:none;fill-rule:nonzero;fill:rgb(6.27451%,30.588235%,54.509804%);fill-opacity:1;" d="M 1224.984375 1071.5 C 1221.175781 1066.027344 1229.382813 1060.3125 1233.191406 1065.785156 C 1237 1071.253906 1228.792969 1076.96875 1224.984375 1071.5 "></path>
<path style=" stroke:none;fill-rule:nonzero;fill:rgb(6.27451%,30.588235%,54.509804%);fill-opacity:1;" d="M 1248.234375 1055.308594 C 1244.425781 1049.835938 1252.632813 1044.121094 1256.441406 1049.59375 C 1260.253906 1055.0625 1252.046875 1060.777344 1248.234375 1055.308594 "></path>
<path style=" stroke:none;fill-rule:nonzero;fill:rgb(6.27451%,30.588235%,54.509804%);fill-opacity:1;" d="M 1264.425781 1078.558594 C 1260.617188 1073.089844 1268.824219 1067.375 1272.632813 1072.84375 C 1276.441406 1078.316406 1268.234375 1084.03125 1264.425781 1078.558594 "></path>
<path style=" stroke:none;fill-rule:nonzero;fill:rgb(6.27451%,30.588235%,54.509804%);fill-opacity:1;" d="M 1241.175781 1094.75 C 1237.367188 1089.277344 1245.570313 1083.566406 1249.382813 1089.035156 C 1253.191406 1094.507813 1244.984375 1100.222656 1241.175781 1094.75 "></path>
<path style="fill:none;stroke-width:4;stroke-linecap:round;stroke-linejoin:miter;stroke:rgb(6.27451%,30.588235%,54.509804%);stroke-opacity:1;stroke-miterlimit:10;" d="M 1241.535156 1112.808594 L 1245.277344 1091.894531 L 1229.085938 1068.640625 L 1208.171875 1064.894531 "></path>
<path style=" stroke:none;fill-rule:nonzero;fill:rgb(6.27451%,30.588235%,54.509804%);fill-opacity:1;" d="M 1241.175781 1094.75 C 1237.367188 1089.277344 1245.570313 1083.566406 1249.382813 1089.035156 C 1253.191406 1094.507813 1244.984375 1100.222656 1241.175781 1094.75 "></path>
<path style=" stroke:none;fill-rule:nonzero;fill:rgb(6.27451%,30.588235%,54.509804%);fill-opacity:1;" d="M 1224.984375 1071.5 C 1221.175781 1066.027344 1229.382813 1060.3125 1233.191406 1065.785156 C 1237 1071.253906 1228.792969 1076.96875 1224.984375 1071.5 "></path>
<path style="fill:none;stroke-width:4;stroke-linecap:round;stroke-linejoin:miter;stroke:rgb(6.27451%,30.588235%,54.509804%);stroke-opacity:1;stroke-miterlimit:10;" d="M 1016.964844 1161.878906 L 1046.832031 1156.210938 L 1052.5 1186.078125 L 1022.632813 1191.746094 "></path>
<path style=" stroke:none;fill-rule:nonzero;fill:rgb(6.27451%,30.588235%,54.509804%);fill-opacity:1;" d="M 1041.917969 1157.144531 C 1040.675781 1150.59375 1050.5 1148.730469 1051.742188 1155.28125 C 1052.984375 1161.832031 1043.160156 1163.695313 1041.917969 1157.144531 "></path>
<path style=" stroke:none;fill-rule:nonzero;fill:rgb(6.27451%,30.588235%,54.509804%);fill-opacity:1;" d="M 1047.585938 1187.011719 C 1046.34375 1180.460938 1056.167969 1178.597656 1057.410156 1185.148438 C 1058.652344 1191.699219 1048.828125 1193.5625 1047.585938 1187.011719 "></path>
<path style="fill:none;stroke-width:4;stroke-linecap:round;stroke-linejoin:miter;stroke:rgb(6.27451%,30.588235%,54.509804%);stroke-opacity:1;stroke-miterlimit:10;" d="M 1046.832031 1156.210938 L 1059.664063 1137.367188 "></path>
<path style="fill:none;stroke-width:4;stroke-linecap:round;stroke-linejoin:miter;stroke:rgb(6.27451%,30.588235%,54.509804%);stroke-opacity:1;stroke-miterlimit:10;" d="M 912.839844 1158.945313 L 939.863281 1175.097656 L 939.390625 1206.578125 "></path>
<path style=" stroke:none;fill-rule:nonzero;fill:rgb(6.27451%,30.588235%,54.509804%);fill-opacity:1;" d="M 934.867188 1175.019531 C 934.964844 1168.355469 944.964844 1168.507813 944.863281 1175.171875 C 944.761719 1181.839844 934.765625 1181.6875 934.867188 1175.019531 "></path>
<path style="fill:none;stroke-width:4;stroke-linecap:round;stroke-linejoin:miter;stroke:rgb(6.27451%,30.588235%,54.509804%);stroke-opacity:1;stroke-miterlimit:10;" d="M 792.484375 1153.308594 L 814.214844 1173.023438 L 808.007813 1201.699219 L 780.070313 1210.660156 L 758.339844 1190.945313 "></path>
<path style=" stroke:none;fill-rule:nonzero;fill:rgb(6.27451%,30.588235%,54.509804%);fill-opacity:1;" d="M 809.328125 1171.964844 C 810.738281 1165.449219 820.511719 1167.566406 819.101563 1174.082031 C 817.691406 1180.597656 807.917969 1178.480469 809.328125 1171.964844 "></path>
<path style=" stroke:none;fill-rule:nonzero;fill:rgb(6.27451%,30.588235%,54.509804%);fill-opacity:1;" d="M 803.121094 1200.640625 C 804.53125 1194.125 814.304688 1196.242188 812.894531 1202.757813 C 811.484375 1209.273438 801.710938 1207.15625 803.121094 1200.640625 "></path>
<path style=" stroke:none;fill-rule:nonzero;fill:rgb(6.27451%,30.588235%,54.509804%);fill-opacity:1;" d="M 775.183594 1209.601563 C 776.59375 1203.085938 786.367188 1205.203125 784.957031 1211.71875 C 783.546875 1218.234375 773.773438 1216.117188 775.183594 1209.601563 "></path>
<path style="fill:none;stroke-width:4;stroke-linecap:round;stroke-linejoin:miter;stroke:rgb(6.27451%,30.588235%,54.509804%);stroke-opacity:1;stroke-miterlimit:10;" d="M 780.070313 1210.660156 L 758.339844 1190.945313 L 738.625 1212.675781 L 760.355469 1232.390625 Z M 780.070313 1210.660156 "></path>
<path style=" stroke:none;fill-rule:nonzero;fill:rgb(6.27451%,30.588235%,54.509804%);fill-opacity:1;" d="M 775.183594 1209.601563 C 776.59375 1203.085938 786.367188 1205.203125 784.957031 1211.71875 C 783.546875 1218.234375 773.773438 1216.117188 775.183594 1209.601563 "></path>
<path style=" stroke:none;fill-rule:nonzero;fill:rgb(6.27451%,30.588235%,54.509804%);fill-opacity:1;" d="M 753.453125 1189.886719 C 754.863281 1183.371094 764.636719 1185.488281 763.226563 1192.003906 C 761.816406 1198.519531 752.042969 1196.402344 753.453125 1189.886719 "></path>
<path style=" stroke:none;fill-rule:nonzero;fill:rgb(6.27451%,30.588235%,54.509804%);fill-opacity:1;" d="M 733.738281 1211.617188 C 735.148438 1205.101563 744.921875 1207.21875 743.511719 1213.734375 C 742.101563 1220.25 732.328125 1218.132813 733.738281 1211.617188 "></path>
<path style=" stroke:none;fill-rule:nonzero;fill:rgb(6.27451%,30.588235%,54.509804%);fill-opacity:1;" d="M 755.46875 1231.332031 C 756.878906 1224.816406 766.652344 1226.933594 765.242188 1233.449219 C 763.832031 1239.964844 754.058594 1237.847656 755.46875 1231.332031 "></path>
<path style="fill:none;stroke-width:4;stroke-linecap:round;stroke-linejoin:miter;stroke:rgb(6.27451%,30.588235%,54.509804%);stroke-opacity:1;stroke-miterlimit:10;" d="M 639.878906 1157.625 L 653.144531 1126.59375 L 684.175781 1139.855469 L 670.914063 1170.890625 "></path>
<path style=" stroke:none;fill-rule:nonzero;fill:rgb(6.27451%,30.588235%,54.509804%);fill-opacity:1;" d="M 648.546875 1124.625 C 651.164063 1118.496094 660.359375 1122.425781 657.742188 1128.558594 C 655.121094 1134.6875 645.925781 1130.757813 648.546875 1124.625 "></path>
<path style=" stroke:none;fill-rule:nonzero;fill:rgb(6.27451%,30.588235%,54.509804%);fill-opacity:1;" d="M 679.578125 1137.890625 C 682.199219 1131.761719 691.394531 1135.691406 688.773438 1141.820313 C 686.15625 1147.949219 676.960938 1144.019531 679.578125 1137.890625 "></path>
<path style="fill:none;stroke-width:4;stroke-linecap:round;stroke-linejoin:miter;stroke:rgb(6.27451%,30.588235%,54.509804%);stroke-opacity:1;stroke-miterlimit:10;" d="M 684.175781 1139.855469 L 707.671875 1130.433594 "></path>
<path style="fill:none;stroke-width:4;stroke-linecap:round;stroke-linejoin:miter;stroke:rgb(6.27451%,30.588235%,54.509804%);stroke-opacity:1;stroke-miterlimit:10;" d="M 564.253906 1063.160156 L 579.890625 1094.398438 L 560.652344 1123.558594 "></path>
<path style=" stroke:none;fill-rule:nonzero;fill:rgb(6.27451%,30.588235%,54.509804%);fill-opacity:1;" d="M 575.714844 1091.644531 C 579.386719 1086.078125 587.734375 1091.585938 584.0625 1097.152344 C 580.390625 1102.714844 572.042969 1097.210938 575.714844 1091.644531 "></path>
<path style="fill:none;stroke-width:4;stroke-linecap:round;stroke-linejoin:miter;stroke:rgb(6.27451%,30.588235%,54.509804%);stroke-opacity:1;stroke-miterlimit:10;" d="M 449.511719 984.363281 L 466.378906 1016.335938 L 441.183594 1042.261719 L 408.742188 1026.308594 L 413.890625 990.527344 Z M 449.511719 984.363281 "></path>
<path style=" stroke:none;fill-rule:nonzero;fill:rgb(6.27451%,30.588235%,54.509804%);fill-opacity:1;" d="M 445.925781 980.878906 C 450.570313 976.097656 457.742188 983.070313 453.097656 987.847656 C 448.449219 992.628906 441.277344 985.660156 445.925781 980.878906 "></path>
<path style=" stroke:none;fill-rule:nonzero;fill:rgb(6.27451%,30.588235%,54.509804%);fill-opacity:1;" d="M 462.792969 1012.851563 C 467.441406 1008.070313 474.613281 1015.042969 469.964844 1019.824219 C 465.320313 1024.601563 458.148438 1017.632813 462.792969 1012.851563 "></path>
<path style=" stroke:none;fill-rule:nonzero;fill:rgb(6.27451%,30.588235%,54.509804%);fill-opacity:1;" d="M 437.597656 1038.777344 C 442.246094 1033.996094 449.417969 1040.964844 444.769531 1045.746094 C 440.125 1050.527344 432.953125 1043.554688 437.597656 1038.777344 "></path>
<path style=" stroke:none;fill-rule:nonzero;fill:rgb(6.27451%,30.588235%,54.509804%);fill-opacity:1;" d="M 405.160156 1022.824219 C 409.804688 1018.042969 416.976563 1025.011719 412.328125 1029.792969 C 407.683594 1034.574219 400.511719 1027.605469 405.160156 1022.824219 "></path>
<path style=" stroke:none;fill-rule:nonzero;fill:rgb(6.27451%,30.588235%,54.509804%);fill-opacity:1;" d="M 410.304688 987.042969 C 414.953125 982.261719 422.121094 989.230469 417.476563 994.011719 C 412.828125 998.792969 405.660156 991.824219 410.304688 987.042969 "></path>
<path style="fill:none;stroke-width:4;stroke-linecap:round;stroke-linejoin:miter;stroke:rgb(6.27451%,30.588235%,54.509804%);stroke-opacity:1;stroke-miterlimit:10;" d="M 449.511719 984.363281 L 461.476563 960.035156 "></path>
<path style="fill:none;stroke-width:4;stroke-linecap:round;stroke-linejoin:miter;stroke:rgb(6.27451%,30.588235%,54.509804%);stroke-opacity:1;stroke-miterlimit:10;" d="M 361.609375 887.652344 L 373.152344 923.226563 L 342.886719 945.199219 L 312.636719 923.199219 L 324.210938 887.636719 Z M 361.609375 887.652344 "></path>
<path style=" stroke:none;fill-rule:nonzero;fill:rgb(6.27451%,30.588235%,54.509804%);fill-opacity:1;" d="M 358.675781 883.605469 C 364.070313 879.691406 369.941406 887.785156 364.546875 891.699219 C 359.152344 895.617188 353.277344 887.523438 358.675781 883.605469 "></path>
<path style=" stroke:none;fill-rule:nonzero;fill:rgb(6.27451%,30.588235%,54.509804%);fill-opacity:1;" d="M 370.214844 919.179688 C 375.609375 915.265625 381.484375 923.359375 376.089844 927.273438 C 370.695313 931.191406 364.820313 923.097656 370.214844 919.179688 "></path>
<path style=" stroke:none;fill-rule:nonzero;fill:rgb(6.27451%,30.588235%,54.509804%);fill-opacity:1;" d="M 339.949219 941.152344 C 345.34375 937.234375 351.21875 945.328125 345.824219 949.242188 C 340.425781 953.160156 334.554688 945.066406 339.949219 941.152344 "></path>
<path style=" stroke:none;fill-rule:nonzero;fill:rgb(6.27451%,30.588235%,54.509804%);fill-opacity:1;" d="M 309.699219 919.15625 C 315.097656 915.238281 320.96875 923.332031 315.574219 927.246094 C 310.179688 931.164063 304.304688 923.070313 309.699219 919.15625 "></path>
<path style=" stroke:none;fill-rule:nonzero;fill:rgb(6.27451%,30.588235%,54.509804%);fill-opacity:1;" d="M 321.273438 883.589844 C 326.667969 879.675781 332.542969 887.765625 327.148438 891.683594 C 321.753906 895.597656 315.878906 887.507813 321.273438 883.589844 "></path>
<path style="fill:none;stroke-width:4;stroke-linecap:round;stroke-linejoin:miter;stroke:rgb(6.27451%,30.588235%,54.509804%);stroke-opacity:1;stroke-miterlimit:10;" d="M 312.636719 923.199219 L 285.957031 931.855469 "></path>
<path style="fill:none;stroke-width:4;stroke-linecap:round;stroke-linejoin:miter;stroke:rgb(6.27451%,30.588235%,54.509804%);stroke-opacity:1;stroke-miterlimit:10;" d="M 219.164063 627.609375 L 248.121094 655.203125 L 238.703125 694.082031 L 200.324219 705.359375 L 171.367188 677.765625 L 180.785156 638.890625 "></path>
<path style=" stroke:none;fill-rule:nonzero;fill:rgb(6.27451%,30.588235%,54.509804%);fill-opacity:1;" d="M 246.710938 650.40625 C 253.105469 648.527344 255.925781 658.121094 249.53125 660 C 243.132813 661.882813 240.3125 652.289063 246.710938 650.40625 "></path>
<path style=" stroke:none;fill-rule:nonzero;fill:rgb(6.27451%,30.588235%,54.509804%);fill-opacity:1;" d="M 237.292969 689.28125 C 243.6875 687.402344 246.507813 696.996094 240.113281 698.878906 C 233.714844 700.757813 230.894531 691.164063 237.292969 689.28125 "></path>
<path style=" stroke:none;fill-rule:nonzero;fill:rgb(6.27451%,30.588235%,54.509804%);fill-opacity:1;" d="M 198.914063 700.5625 C 205.3125 698.683594 208.132813 708.277344 201.734375 710.160156 C 195.339844 712.039063 192.519531 702.445313 198.914063 700.5625 "></path>
<path style=" stroke:none;fill-rule:nonzero;fill:rgb(6.27451%,30.588235%,54.509804%);fill-opacity:1;" d="M 169.957031 672.96875 C 176.355469 671.089844 179.175781 680.683594 172.777344 682.5625 C 166.382813 684.445313 163.5625 674.851563 169.957031 672.96875 "></path>
<path style="fill:none;stroke-width:4;stroke-linecap:round;stroke-linejoin:miter;stroke:rgb(6.27451%,30.588235%,54.509804%);stroke-opacity:1;stroke-miterlimit:10;" d="M 1087.636719 389.867188 L 1067.640625 390.222656 L 1067.289063 370.222656 L 1087.285156 369.871094 Z M 1087.636719 389.867188 "></path>
<path style=" stroke:none;fill-rule:nonzero;fill:rgb(6.27451%,30.588235%,54.509804%);fill-opacity:1;" d="M 1092.636719 389.78125 C 1092.753906 396.445313 1082.757813 396.621094 1082.640625 389.957031 C 1082.519531 383.289063 1092.519531 383.113281 1092.636719 389.78125 "></path>
<path style=" stroke:none;fill-rule:nonzero;fill:rgb(6.27451%,30.588235%,54.509804%);fill-opacity:1;" d="M 1072.640625 390.132813 C 1072.757813 396.796875 1062.757813 396.976563 1062.640625 390.308594 C 1062.523438 383.644531 1072.523438 383.46875 1072.640625 390.132813 "></path>
<path style=" stroke:none;fill-rule:nonzero;fill:rgb(6.27451%,30.588235%,54.509804%);fill-opacity:1;" d="M 1072.289063 370.136719 C 1072.40625 376.800781 1062.40625 376.976563 1062.289063 370.3125 C 1062.171875 363.648438 1072.171875 363.46875 1072.289063 370.136719 "></path>
<path style=" stroke:none;fill-rule:nonzero;fill:rgb(6.27451%,30.588235%,54.509804%);fill-opacity:1;" d="M 1092.285156 369.785156 C 1092.402344 376.449219 1082.402344 376.625 1082.285156 369.960938 C 1082.167969 363.292969 1092.167969 363.117188 1092.285156 369.785156 "></path>
<path style="fill:none;stroke-width:4;stroke-linecap:round;stroke-linejoin:miter;stroke:rgb(6.27451%,30.588235%,54.509804%);stroke-opacity:1;stroke-miterlimit:10;" d="M 1225.738281 430.96875 L 1206.496094 430.144531 L 1197.589844 413.070313 L 1207.921875 396.816406 "></path>
<path style=" stroke:none;fill-rule:nonzero;fill:rgb(6.27451%,30.588235%,54.509804%);fill-opacity:1;" d="M 1210.71875 432.828125 C 1207.140625 438.453125 1198.703125 433.089844 1202.277344 427.460938 C 1205.855469 421.835938 1214.292969 427.203125 1210.71875 432.828125 "></path>
<path style=" stroke:none;fill-rule:nonzero;fill:rgb(6.27451%,30.588235%,54.509804%);fill-opacity:1;" d="M 1201.808594 415.753906 C 1198.230469 421.378906 1189.792969 416.011719 1193.371094 410.386719 C 1196.945313 404.761719 1205.386719 410.125 1201.808594 415.753906 "></path>
<path style="fill:none;stroke-width:4;stroke-linecap:round;stroke-linejoin:miter;stroke:rgb(6.27451%,30.588235%,54.509804%);stroke-opacity:1;stroke-miterlimit:10;" d="M 1225.738281 430.96875 L 1206.496094 430.144531 L 1205.675781 449.386719 L 1224.917969 450.210938 Z M 1225.738281 430.96875 "></path>
<path style=" stroke:none;fill-rule:nonzero;fill:rgb(6.27451%,30.588235%,54.509804%);fill-opacity:1;" d="M 1229.960938 433.652344 C 1226.382813 439.277344 1217.945313 433.910156 1221.519531 428.285156 C 1225.097656 422.660156 1233.535156 428.023438 1229.960938 433.652344 "></path>
<path style=" stroke:none;fill-rule:nonzero;fill:rgb(6.27451%,30.588235%,54.509804%);fill-opacity:1;" d="M 1210.71875 432.828125 C 1207.140625 438.453125 1198.703125 433.089844 1202.277344 427.460938 C 1205.855469 421.835938 1214.292969 427.203125 1210.71875 432.828125 "></path>
<path style=" stroke:none;fill-rule:nonzero;fill:rgb(6.27451%,30.588235%,54.509804%);fill-opacity:1;" d="M 1209.894531 452.070313 C 1206.316406 457.695313 1197.878906 452.332031 1201.457031 446.703125 C 1205.03125 441.078125 1213.472656 446.445313 1209.894531 452.070313 "></path>
<path style=" stroke:none;fill-rule:nonzero;fill:rgb(6.27451%,30.588235%,54.509804%);fill-opacity:1;" d="M 1229.136719 452.894531 C 1225.558594 458.519531 1217.121094 453.152344 1220.699219 447.527344 C 1224.273438 441.902344 1232.714844 447.269531 1229.136719 452.894531 "></path>
<path style="fill:none;stroke-width:4;stroke-linecap:round;stroke-linejoin:miter;stroke:rgb(6.27451%,30.588235%,54.509804%);stroke-opacity:1;stroke-miterlimit:10;" d="M 1267.699219 477.496094 L 1258.820313 457.203125 L 1275.375 442.488281 L 1294.488281 453.683594 L 1289.742188 475.320313 Z M 1267.699219 477.496094 "></path>
<path style=" stroke:none;fill-rule:nonzero;fill:rgb(6.27451%,30.588235%,54.509804%);fill-opacity:1;" d="M 1271.023438 481.234375 C 1266.039063 485.660156 1259.394531 478.1875 1264.378906 473.757813 C 1269.359375 469.328125 1276.003906 476.804688 1271.023438 481.234375 "></path>
<path style=" stroke:none;fill-rule:nonzero;fill:rgb(6.27451%,30.588235%,54.509804%);fill-opacity:1;" d="M 1262.140625 460.941406 C 1257.160156 465.371094 1250.515625 457.894531 1255.5 453.464844 C 1260.480469 449.039063 1267.125 456.511719 1262.140625 460.941406 "></path>
<path style=" stroke:none;fill-rule:nonzero;fill:rgb(6.27451%,30.588235%,54.509804%);fill-opacity:1;" d="M 1278.695313 446.226563 C 1273.714844 450.652344 1267.070313 443.179688 1272.054688 438.75 C 1277.035156 434.320313 1283.679688 441.796875 1278.695313 446.226563 "></path>
<path style=" stroke:none;fill-rule:nonzero;fill:rgb(6.27451%,30.588235%,54.509804%);fill-opacity:1;" d="M 1297.808594 457.421875 C 1292.824219 461.851563 1286.183594 454.378906 1291.164063 449.949219 C 1296.148438 445.519531 1302.792969 452.992188 1297.808594 457.421875 "></path>
<path style=" stroke:none;fill-rule:nonzero;fill:rgb(6.27451%,30.588235%,54.509804%);fill-opacity:1;" d="M 1293.066406 479.058594 C 1288.082031 483.488281 1281.4375 476.011719 1286.421875 471.585938 C 1291.402344 467.15625 1298.046875 474.628906 1293.066406 479.058594 "></path>
<path style="fill:none;stroke-width:4;stroke-linecap:round;stroke-linejoin:miter;stroke:rgb(6.27451%,30.588235%,54.509804%);stroke-opacity:1;stroke-miterlimit:10;" d="M 1289.742188 475.320313 L 1300.78125 487.738281 "></path>
<path style="fill:none;stroke-width:4;stroke-linecap:round;stroke-linejoin:miter;stroke:rgb(6.27451%,30.588235%,54.509804%);stroke-opacity:1;stroke-miterlimit:10;" d="M 1308.769531 519.992188 L 1329.304688 509.78125 L 1339.511719 530.316406 L 1318.976563 540.527344 "></path>
<path style=" stroke:none;fill-rule:nonzero;fill:rgb(6.27451%,30.588235%,54.509804%);fill-opacity:1;" d="M 1331.527344 514.257813 C 1325.558594 517.226563 1321.109375 508.273438 1327.078125 505.304688 C 1333.046875 502.335938 1337.5 511.292969 1331.527344 514.257813 "></path>
<path style=" stroke:none;fill-rule:nonzero;fill:rgb(6.27451%,30.588235%,54.509804%);fill-opacity:1;" d="M 1341.738281 534.792969 C 1335.769531 537.761719 1331.316406 528.808594 1337.285156 525.839844 C 1343.257813 522.871094 1347.707031 531.828125 1341.738281 534.792969 "></path>
<path style="fill:none;stroke-width:4;stroke-linecap:round;stroke-linejoin:miter;stroke:rgb(6.27451%,30.588235%,54.509804%);stroke-opacity:1;stroke-miterlimit:10;" d="M 1334.777344 493.476563 L 1329.304688 509.78125 L 1339.511719 530.316406 L 1355.816406 535.792969 "></path>
<path style=" stroke:none;fill-rule:nonzero;fill:rgb(6.27451%,30.588235%,54.509804%);fill-opacity:1;" d="M 1331.527344 514.257813 C 1325.558594 517.226563 1321.109375 508.273438 1327.078125 505.304688 C 1333.046875 502.335938 1337.5 511.292969 1331.527344 514.257813 "></path>
<path style=" stroke:none;fill-rule:nonzero;fill:rgb(6.27451%,30.588235%,54.509804%);fill-opacity:1;" d="M 1341.738281 534.792969 C 1335.769531 537.761719 1331.316406 528.808594 1337.285156 525.839844 C 1343.257813 522.871094 1347.707031 531.828125 1341.738281 534.792969 "></path>
<path style="fill:none;stroke-width:4;stroke-linecap:round;stroke-linejoin:miter;stroke:rgb(6.27451%,30.588235%,54.509804%);stroke-opacity:1;stroke-miterlimit:10;" d="M 1336.492188 781.183594 L 1343.617188 756.714844 L 1368.085938 763.84375 L 1360.957031 788.3125 "></path>
<path style=" stroke:none;fill-rule:nonzero;fill:rgb(6.27451%,30.588235%,54.509804%);fill-opacity:1;" d="M 1342.21875 761.515625 C 1335.820313 759.652344 1338.617188 750.050781 1345.015625 751.917969 C 1351.417969 753.78125 1348.621094 763.382813 1342.21875 761.515625 "></path>
<path style=" stroke:none;fill-rule:nonzero;fill:rgb(6.27451%,30.588235%,54.509804%);fill-opacity:1;" d="M 1366.6875 768.644531 C 1360.285156 766.78125 1363.082031 757.179688 1369.484375 759.042969 C 1375.882813 760.910156 1373.085938 770.511719 1366.6875 768.644531 "></path>
<path style="fill:none;stroke-width:4;stroke-linecap:round;stroke-linejoin:miter;stroke:rgb(6.27451%,30.588235%,54.509804%);stroke-opacity:1;stroke-miterlimit:10;" d="M 1296.9375 870.113281 L 1296.808594 843.710938 L 1319.609375 830.402344 L 1342.535156 843.496094 L 1342.660156 869.894531 "></path>
<path style=" stroke:none;fill-rule:nonzero;fill:rgb(6.27451%,30.588235%,54.509804%);fill-opacity:1;" d="M 1294.332031 848.054688 C 1288.542969 844.75 1293.5 836.066406 1299.289063 839.371094 C 1305.078125 842.675781 1300.121094 851.359375 1294.332031 848.054688 "></path>
<path style=" stroke:none;fill-rule:nonzero;fill:rgb(6.27451%,30.588235%,54.509804%);fill-opacity:1;" d="M 1317.128906 834.746094 C 1311.339844 831.441406 1316.300781 822.753906 1322.089844 826.0625 C 1327.878906 829.367188 1322.921875 838.050781 1317.128906 834.746094 "></path>
<path style=" stroke:none;fill-rule:nonzero;fill:rgb(6.27451%,30.588235%,54.509804%);fill-opacity:1;" d="M 1340.054688 847.835938 C 1334.265625 844.53125 1339.226563 835.847656 1345.015625 839.152344 C 1350.804688 842.457031 1345.847656 851.140625 1340.054688 847.835938 "></path>
<path style="fill:none;stroke-width:4;stroke-linecap:round;stroke-linejoin:miter;stroke:rgb(6.27451%,30.588235%,54.509804%);stroke-opacity:1;stroke-miterlimit:10;" d="M 1241.253906 941.59375 L 1247.242188 914.910156 L 1273.351563 906.753906 L 1293.464844 925.285156 L 1287.472656 951.972656 "></path>
<path style=" stroke:none;fill-rule:nonzero;fill:rgb(6.27451%,30.588235%,54.509804%);fill-opacity:1;" d="M 1243.855469 918.585938 C 1238.953125 914.070313 1245.726563 906.714844 1250.632813 911.230469 C 1255.535156 915.75 1248.757813 923.105469 1243.855469 918.585938 "></path>
<path style=" stroke:none;fill-rule:nonzero;fill:rgb(6.27451%,30.588235%,54.509804%);fill-opacity:1;" d="M 1269.960938 910.433594 C 1265.058594 905.914063 1271.835938 898.558594 1276.738281 903.078125 C 1281.640625 907.59375 1274.863281 914.949219 1269.960938 910.433594 "></path>
<path style=" stroke:none;fill-rule:nonzero;fill:rgb(6.27451%,30.588235%,54.509804%);fill-opacity:1;" d="M 1290.078125 928.964844 C 1285.175781 924.445313 1291.949219 917.089844 1296.851563 921.609375 C 1301.757813 926.125 1294.980469 933.480469 1290.078125 928.964844 "></path>
<path style="fill:none;stroke-width:4;stroke-linecap:round;stroke-linejoin:miter;stroke:rgb(6.27451%,30.588235%,54.509804%);stroke-opacity:1;stroke-miterlimit:10;" d="M 1120.234375 1029.011719 L 1131.402344 1056.152344 L 1104.257813 1067.320313 L 1093.09375 1040.179688 "></path>
<path style=" stroke:none;fill-rule:nonzero;fill:rgb(6.27451%,30.588235%,54.509804%);fill-opacity:1;" d="M 1126.777344 1058.058594 C 1124.242188 1051.890625 1133.488281 1048.085938 1136.027344 1054.25 C 1138.5625 1060.417969 1129.316406 1064.222656 1126.777344 1058.058594 "></path>
<path style=" stroke:none;fill-rule:nonzero;fill:rgb(6.27451%,30.588235%,54.509804%);fill-opacity:1;" d="M 1099.636719 1069.222656 C 1097.097656 1063.058594 1106.347656 1059.253906 1108.882813 1065.417969 C 1111.421875 1071.585938 1102.171875 1075.390625 1099.636719 1069.222656 "></path>
<path style="fill:none;stroke-width:4;stroke-linecap:round;stroke-linejoin:miter;stroke:rgb(6.27451%,30.588235%,54.509804%);stroke-opacity:1;stroke-miterlimit:10;" d="M 1104.257813 1067.320313 L 1095.789063 1087.636719 "></path>
<path style="fill:none;stroke-width:4;stroke-linecap:round;stroke-linejoin:miter;stroke:rgb(6.27451%,30.588235%,54.509804%);stroke-opacity:1;stroke-miterlimit:10;" d="M 1011.167969 1049.796875 L 1039.867188 1059.820313 L 1045.535156 1089.6875 L 1022.503906 1109.53125 L 993.804688 1099.503906 "></path>
<path style=" stroke:none;fill-rule:nonzero;fill:rgb(6.27451%,30.588235%,54.509804%);fill-opacity:1;" d="M 1034.953125 1060.753906 C 1033.710938 1054.203125 1043.535156 1052.339844 1044.78125 1058.890625 C 1046.023438 1065.4375 1036.199219 1067.304688 1034.953125 1060.753906 "></path>
<path style=" stroke:none;fill-rule:nonzero;fill:rgb(6.27451%,30.588235%,54.509804%);fill-opacity:1;" d="M 1040.621094 1090.621094 C 1039.378906 1084.070313 1049.203125 1082.207031 1050.445313 1088.757813 C 1051.6875 1095.304688 1041.863281 1097.171875 1040.621094 1090.621094 "></path>
<path style=" stroke:none;fill-rule:nonzero;fill:rgb(6.27451%,30.588235%,54.509804%);fill-opacity:1;" d="M 1017.589844 1110.460938 C 1016.347656 1103.914063 1026.171875 1102.046875 1027.414063 1108.597656 C 1028.65625 1115.148438 1018.832031 1117.011719 1017.589844 1110.460938 "></path>
<path style="fill:none;stroke-width:4;stroke-linecap:round;stroke-linejoin:miter;stroke:rgb(6.27451%,30.588235%,54.509804%);stroke-opacity:1;stroke-miterlimit:10;" d="M 914.171875 1070.972656 L 931.734375 1081.472656 L 931.425781 1101.933594 L 913.550781 1111.898438 L 895.984375 1101.398438 L 896.296875 1080.9375 Z M 914.171875 1070.972656 "></path>
<path style=" stroke:none;fill-rule:nonzero;fill:rgb(6.27451%,30.588235%,54.509804%);fill-opacity:1;" d="M 909.171875 1070.898438 C 909.269531 1064.234375 919.269531 1064.382813 919.167969 1071.050781 C 919.070313 1077.714844 909.070313 1077.5625 909.171875 1070.898438 "></path>
<path style=" stroke:none;fill-rule:nonzero;fill:rgb(6.27451%,30.588235%,54.509804%);fill-opacity:1;" d="M 926.738281 1081.398438 C 926.835938 1074.730469 936.835938 1074.882813 936.734375 1081.546875 C 936.632813 1088.214844 926.636719 1088.0625 926.738281 1081.398438 "></path>
<path style=" stroke:none;fill-rule:nonzero;fill:rgb(6.27451%,30.588235%,54.509804%);fill-opacity:1;" d="M 926.425781 1101.859375 C 926.527344 1095.191406 936.527344 1095.34375 936.425781 1102.011719 C 936.324219 1108.675781 926.328125 1108.523438 926.425781 1101.859375 "></path>
<path style=" stroke:none;fill-rule:nonzero;fill:rgb(6.27451%,30.588235%,54.509804%);fill-opacity:1;" d="M 908.550781 1111.820313 C 908.652344 1105.15625 918.652344 1105.308594 918.550781 1111.972656 C 918.449219 1118.640625 908.453125 1118.488281 908.550781 1111.820313 "></path>
<path style=" stroke:none;fill-rule:nonzero;fill:rgb(6.27451%,30.588235%,54.509804%);fill-opacity:1;" d="M 890.984375 1101.324219 C 891.085938 1094.65625 901.085938 1094.808594 900.984375 1101.472656 C 900.882813 1108.140625 890.886719 1107.988281 890.984375 1101.324219 "></path>
<path style=" stroke:none;fill-rule:nonzero;fill:rgb(6.27451%,30.588235%,54.509804%);fill-opacity:1;" d="M 891.296875 1080.863281 C 891.394531 1074.195313 901.394531 1074.347656 901.292969 1081.011719 C 901.195313 1087.679688 891.195313 1087.527344 891.296875 1080.863281 "></path>
<path style="fill:none;stroke-width:4;stroke-linecap:round;stroke-linejoin:miter;stroke:rgb(6.27451%,30.588235%,54.509804%);stroke-opacity:1;stroke-miterlimit:10;" d="M 876.929688 1074.320313 L 896.296875 1080.9375 L 895.984375 1101.398438 L 876.429688 1107.429688 L 864.652344 1090.691406 Z M 876.929688 1074.320313 "></path>
<path style=" stroke:none;fill-rule:nonzero;fill:rgb(6.27451%,30.588235%,54.509804%);fill-opacity:1;" d="M 871.929688 1074.246094 C 872.03125 1067.578125 882.03125 1067.730469 881.929688 1074.394531 C 881.828125 1081.0625 871.828125 1080.910156 871.929688 1074.246094 "></path>
<path style=" stroke:none;fill-rule:nonzero;fill:rgb(6.27451%,30.588235%,54.509804%);fill-opacity:1;" d="M 891.296875 1080.863281 C 891.394531 1074.195313 901.394531 1074.347656 901.292969 1081.011719 C 901.195313 1087.679688 891.195313 1087.527344 891.296875 1080.863281 "></path>
<path style=" stroke:none;fill-rule:nonzero;fill:rgb(6.27451%,30.588235%,54.509804%);fill-opacity:1;" d="M 890.984375 1101.324219 C 891.085938 1094.65625 901.085938 1094.808594 900.984375 1101.472656 C 900.882813 1108.140625 890.886719 1107.988281 890.984375 1101.324219 "></path>
<path style=" stroke:none;fill-rule:nonzero;fill:rgb(6.27451%,30.588235%,54.509804%);fill-opacity:1;" d="M 871.429688 1107.351563 C 871.53125 1100.6875 881.53125 1100.835938 881.429688 1107.503906 C 881.328125 1114.167969 871.328125 1114.019531 871.429688 1107.351563 "></path>
<path style=" stroke:none;fill-rule:nonzero;fill:rgb(6.27451%,30.588235%,54.509804%);fill-opacity:1;" d="M 859.652344 1090.617188 C 859.753906 1083.949219 869.753906 1084.101563 869.652344 1090.769531 C 869.550781 1097.433594 859.550781 1097.28125 859.652344 1090.617188 "></path>
<path style="fill:none;stroke-width:4;stroke-linecap:round;stroke-linejoin:miter;stroke:rgb(6.27451%,30.588235%,54.509804%);stroke-opacity:1;stroke-miterlimit:10;" d="M 623.722656 973.003906 L 639.359375 1004.246094 L 620.121094 1033.40625 L 585.25 1031.328125 L 569.613281 1000.089844 L 588.851563 970.929688 "></path>
<path style=" stroke:none;fill-rule:nonzero;fill:rgb(6.27451%,30.588235%,54.509804%);fill-opacity:1;" d="M 635.183594 1001.492188 C 638.855469 995.925781 647.203125 1001.433594 643.53125 1006.996094 C 639.859375 1012.5625 631.511719 1007.054688 635.183594 1001.492188 "></path>
<path style=" stroke:none;fill-rule:nonzero;fill:rgb(6.27451%,30.588235%,54.509804%);fill-opacity:1;" d="M 615.949219 1030.652344 C 619.621094 1025.085938 627.96875 1030.59375 624.296875 1036.15625 C 620.625 1041.722656 612.277344 1036.21875 615.949219 1030.652344 "></path>
<path style=" stroke:none;fill-rule:nonzero;fill:rgb(6.27451%,30.588235%,54.509804%);fill-opacity:1;" d="M 581.078125 1028.574219 C 584.746094 1023.007813 593.09375 1028.515625 589.425781 1034.078125 C 585.753906 1039.644531 577.40625 1034.140625 581.078125 1028.574219 "></path>
<path style=" stroke:none;fill-rule:nonzero;fill:rgb(6.27451%,30.588235%,54.509804%);fill-opacity:1;" d="M 565.441406 997.335938 C 569.113281 991.769531 577.460938 997.277344 573.789063 1002.839844 C 570.117188 1008.40625 561.769531 1002.898438 565.441406 997.335938 "></path>
<path style="fill:none;stroke-width:4;stroke-linecap:round;stroke-linejoin:miter;stroke:rgb(6.27451%,30.588235%,54.509804%);stroke-opacity:1;stroke-miterlimit:10;" d="M 431.652344 812.941406 L 462.398438 826.644531 L 465.902344 860.121094 L 438.660156 879.894531 L 407.917969 866.191406 "></path>
<path style=" stroke:none;fill-rule:nonzero;fill:rgb(6.27451%,30.588235%,54.509804%);fill-opacity:1;" d="M 459.460938 822.597656 C 464.855469 818.683594 470.730469 826.773438 465.335938 830.691406 C 459.941406 834.605469 454.066406 826.515625 459.460938 822.597656 "></path>
<path style=" stroke:none;fill-rule:nonzero;fill:rgb(6.27451%,30.588235%,54.509804%);fill-opacity:1;" d="M 462.964844 856.074219 C 468.359375 852.160156 474.234375 860.253906 468.839844 864.167969 C 463.441406 868.085938 457.570313 859.992188 462.964844 856.074219 "></path>
<path style=" stroke:none;fill-rule:nonzero;fill:rgb(6.27451%,30.588235%,54.509804%);fill-opacity:1;" d="M 435.722656 875.847656 C 441.117188 871.933594 446.992188 880.023438 441.597656 883.941406 C 436.203125 887.855469 430.328125 879.765625 435.722656 875.847656 "></path>
<path style="fill:none;stroke-width:4;stroke-linecap:round;stroke-linejoin:miter;stroke:rgb(6.27451%,30.588235%,54.509804%);stroke-opacity:1;stroke-miterlimit:10;" d="M 431.652344 812.941406 L 462.398438 826.644531 L 476.101563 795.902344 L 445.359375 782.195313 Z M 431.652344 812.941406 "></path>
<path style=" stroke:none;fill-rule:nonzero;fill:rgb(6.27451%,30.588235%,54.509804%);fill-opacity:1;" d="M 428.71875 808.894531 C 434.113281 804.976563 439.988281 813.070313 434.589844 816.988281 C 429.195313 820.902344 423.320313 812.808594 428.71875 808.894531 "></path>
<path style=" stroke:none;fill-rule:nonzero;fill:rgb(6.27451%,30.588235%,54.509804%);fill-opacity:1;" d="M 459.460938 822.597656 C 464.855469 818.683594 470.730469 826.773438 465.335938 830.691406 C 459.941406 834.605469 454.066406 826.515625 459.460938 822.597656 "></path>
<path style=" stroke:none;fill-rule:nonzero;fill:rgb(6.27451%,30.588235%,54.509804%);fill-opacity:1;" d="M 473.164063 791.855469 C 478.558594 787.9375 484.433594 796.03125 479.039063 799.945313 C 473.644531 803.863281 467.769531 795.769531 473.164063 791.855469 "></path>
<path style=" stroke:none;fill-rule:nonzero;fill:rgb(6.27451%,30.588235%,54.509804%);fill-opacity:1;" d="M 442.421875 778.148438 C 447.816406 774.234375 453.691406 782.328125 448.296875 786.242188 C 442.902344 790.160156 437.027344 782.066406 442.421875 778.148438 "></path>
<path style="fill:none;stroke-width:4;stroke-linecap:round;stroke-linejoin:miter;stroke:rgb(6.27451%,30.588235%,54.509804%);stroke-opacity:1;stroke-miterlimit:10;" d="M 395.054688 722.4375 L 400.429688 760.746094 L 365.65625 777.695313 L 338.792969 749.859375 L 356.960938 715.710938 Z M 395.054688 722.4375 "></path>
<path style=" stroke:none;fill-rule:nonzero;fill:rgb(6.27451%,30.588235%,54.509804%);fill-opacity:1;" d="M 392.867188 717.945313 C 398.859375 715.023438 403.238281 724.011719 397.246094 726.933594 C 391.253906 729.851563 386.871094 720.863281 392.867188 717.945313 "></path>
<path style=" stroke:none;fill-rule:nonzero;fill:rgb(6.27451%,30.588235%,54.509804%);fill-opacity:1;" d="M 398.238281 756.25 C 404.230469 753.332031 408.613281 762.320313 402.621094 765.242188 C 396.628906 768.160156 392.246094 759.171875 398.238281 756.25 "></path>
<path style=" stroke:none;fill-rule:nonzero;fill:rgb(6.27451%,30.588235%,54.509804%);fill-opacity:1;" d="M 363.464844 773.199219 C 369.457031 770.277344 373.839844 779.269531 367.847656 782.1875 C 361.855469 785.109375 357.472656 776.121094 363.464844 773.199219 "></path>
<path style=" stroke:none;fill-rule:nonzero;fill:rgb(6.27451%,30.588235%,54.509804%);fill-opacity:1;" d="M 336.601563 745.367188 C 342.59375 742.445313 346.976563 751.433594 340.984375 754.355469 C 334.988281 757.277344 330.609375 748.285156 336.601563 745.367188 "></path>
<path style=" stroke:none;fill-rule:nonzero;fill:rgb(6.27451%,30.588235%,54.509804%);fill-opacity:1;" d="M 354.773438 711.214844 C 360.765625 708.292969 365.144531 717.285156 359.152344 720.203125 C 353.160156 723.125 348.777344 714.136719 354.773438 711.214844 "></path>
<path style="fill:none;stroke-width:4;stroke-linecap:round;stroke-linejoin:miter;stroke:rgb(6.27451%,30.588235%,54.509804%);stroke-opacity:1;stroke-miterlimit:10;" d="M 338.792969 749.859375 L 310.0625 753.890625 "></path>
<path style="fill:none;stroke-width:4;stroke-linecap:round;stroke-linejoin:miter;stroke:rgb(6.27451%,30.588235%,54.509804%);stroke-opacity:1;stroke-miterlimit:10;" d="M 1125.144531 466.769531 L 1110.800781 451.863281 L 1116.539063 431.992188 L 1136.617188 427.023438 L 1150.957031 441.929688 "></path>
<path style=" stroke:none;fill-rule:nonzero;fill:rgb(6.27451%,30.588235%,54.509804%);fill-opacity:1;" d="M 1115.605469 453.25 C 1113.757813 459.65625 1104.148438 456.882813 1106 450.476563 C 1107.847656 444.070313 1117.457031 446.84375 1115.605469 453.25 "></path>
<path style=" stroke:none;fill-rule:nonzero;fill:rgb(6.27451%,30.588235%,54.509804%);fill-opacity:1;" d="M 1121.34375 433.378906 C 1119.492188 439.785156 1109.886719 437.011719 1111.734375 430.605469 C 1113.585938 424.199219 1123.191406 426.972656 1121.34375 433.378906 "></path>
<path style=" stroke:none;fill-rule:nonzero;fill:rgb(6.27451%,30.588235%,54.509804%);fill-opacity:1;" d="M 1141.421875 428.410156 C 1139.570313 434.816406 1129.964844 432.042969 1131.8125 425.636719 C 1133.664063 419.234375 1143.269531 422.007813 1141.421875 428.410156 "></path>
<path style="fill:none;stroke-width:4;stroke-linecap:round;stroke-linejoin:miter;stroke:rgb(6.27451%,30.588235%,54.509804%);stroke-opacity:1;stroke-miterlimit:10;" d="M 1202.800781 470.503906 L 1191.316406 488.5625 L 1169.9375 487.648438 L 1160.039063 468.671875 L 1171.519531 450.613281 L 1192.902344 451.527344 "></path>
<path style=" stroke:none;fill-rule:nonzero;fill:rgb(6.27451%,30.588235%,54.509804%);fill-opacity:1;" d="M 1195.535156 491.242188 C 1191.960938 496.871094 1183.519531 491.503906 1187.097656 485.878906 C 1190.675781 480.253906 1199.113281 485.617188 1195.535156 491.242188 "></path>
<path style=" stroke:none;fill-rule:nonzero;fill:rgb(6.27451%,30.588235%,54.509804%);fill-opacity:1;" d="M 1174.15625 490.328125 C 1170.578125 495.957031 1162.140625 490.589844 1165.71875 484.964844 C 1169.292969 479.339844 1177.734375 484.703125 1174.15625 490.328125 "></path>
<path style=" stroke:none;fill-rule:nonzero;fill:rgb(6.27451%,30.588235%,54.509804%);fill-opacity:1;" d="M 1164.257813 471.355469 C 1160.679688 476.980469 1152.242188 471.617188 1155.820313 465.992188 C 1159.398438 460.363281 1167.835938 465.730469 1164.257813 471.355469 "></path>
<path style=" stroke:none;fill-rule:nonzero;fill:rgb(6.27451%,30.588235%,54.509804%);fill-opacity:1;" d="M 1175.742188 453.296875 C 1172.164063 458.921875 1163.726563 453.558594 1167.300781 447.933594 C 1170.878906 442.304688 1179.316406 447.671875 1175.742188 453.296875 "></path>
<path style="fill:none;stroke-width:4;stroke-linecap:round;stroke-linejoin:miter;stroke:rgb(6.27451%,30.588235%,54.509804%);stroke-opacity:1;stroke-miterlimit:10;" d="M 1224.734375 522.714844 L 1210.019531 506.160156 L 1226.574219 491.445313 L 1241.289063 508 "></path>
<path style=" stroke:none;fill-rule:nonzero;fill:rgb(6.27451%,30.588235%,54.509804%);fill-opacity:1;" d="M 1213.339844 509.898438 C 1208.359375 514.328125 1201.714844 506.851563 1206.695313 502.421875 C 1211.679688 497.992188 1218.324219 505.46875 1213.339844 509.898438 "></path>
<path style=" stroke:none;fill-rule:nonzero;fill:rgb(6.27451%,30.588235%,54.509804%);fill-opacity:1;" d="M 1229.894531 495.179688 C 1224.914063 499.609375 1218.269531 492.136719 1223.25 487.707031 C 1228.234375 483.277344 1234.878906 490.753906 1229.894531 495.179688 "></path>
<path style="fill:none;stroke-width:4;stroke-linecap:round;stroke-linejoin:miter;stroke:rgb(6.27451%,30.588235%,54.509804%);stroke-opacity:1;stroke-miterlimit:10;" d="M 1210.019531 506.160156 L 1193.433594 505.183594 "></path>
<path style="fill:none;stroke-width:4;stroke-linecap:round;stroke-linejoin:miter;stroke:rgb(6.27451%,30.588235%,54.509804%);stroke-opacity:1;stroke-miterlimit:10;" d="M 1266.363281 607.652344 L 1289.625 602.855469 L 1294.421875 626.117188 L 1271.160156 630.914063 "></path>
<path style=" stroke:none;fill-rule:nonzero;fill:rgb(6.27451%,30.588235%,54.509804%);fill-opacity:1;" d="M 1290.632813 607.753906 C 1284.105469 609.097656 1282.085938 599.304688 1288.613281 597.960938 C 1295.144531 596.613281 1297.164063 606.40625 1290.632813 607.753906 "></path>
<path style=" stroke:none;fill-rule:nonzero;fill:rgb(6.27451%,30.588235%,54.509804%);fill-opacity:1;" d="M 1295.429688 631.015625 C 1288.902344 632.359375 1286.882813 622.566406 1293.410156 621.21875 C 1299.941406 619.875 1301.960938 629.667969 1295.429688 631.015625 "></path>
<path style="fill:none;stroke-width:4;stroke-linecap:round;stroke-linejoin:miter;stroke:rgb(6.27451%,30.588235%,54.509804%);stroke-opacity:1;stroke-miterlimit:10;" d="M 1294.421875 626.117188 L 1309.300781 635.910156 "></path>
<path style="fill:none;stroke-width:4;stroke-linecap:round;stroke-linejoin:miter;stroke:rgb(6.27451%,30.588235%,54.509804%);stroke-opacity:1;stroke-miterlimit:10;" d="M 1276.730469 690.660156 L 1277.46875 673.457031 L 1294.671875 674.195313 L 1293.933594 691.398438 Z M 1276.730469 690.660156 "></path>
<path style=" stroke:none;fill-rule:nonzero;fill:rgb(6.27451%,30.588235%,54.509804%);fill-opacity:1;" d="M 1276.515625 695.65625 C 1269.855469 695.371094 1270.285156 685.378906 1276.945313 685.664063 C 1283.605469 685.953125 1283.175781 695.941406 1276.515625 695.65625 "></path>
<path style=" stroke:none;fill-rule:nonzero;fill:rgb(6.27451%,30.588235%,54.509804%);fill-opacity:1;" d="M 1277.253906 678.453125 C 1270.59375 678.167969 1271.019531 668.175781 1277.679688 668.460938 C 1284.339844 668.746094 1283.914063 678.738281 1277.253906 678.453125 "></path>
<path style=" stroke:none;fill-rule:nonzero;fill:rgb(6.27451%,30.588235%,54.509804%);fill-opacity:1;" d="M 1294.457031 679.1875 C 1287.796875 678.902344 1288.222656 668.914063 1294.886719 669.199219 C 1301.546875 669.484375 1301.117188 679.472656 1294.457031 679.1875 "></path>
<path style=" stroke:none;fill-rule:nonzero;fill:rgb(6.27451%,30.588235%,54.509804%);fill-opacity:1;" d="M 1293.71875 696.394531 C 1287.058594 696.109375 1287.488281 686.117188 1294.148438 686.402344 C 1300.808594 686.6875 1300.382813 696.679688 1293.71875 696.394531 "></path>
<path style="fill:none;stroke-width:4;stroke-linecap:round;stroke-linejoin:miter;stroke:rgb(6.27451%,30.588235%,54.509804%);stroke-opacity:1;stroke-miterlimit:10;" d="M 1294.671875 674.195313 L 1293.933594 691.398438 L 1311.136719 692.136719 L 1311.875 674.929688 Z M 1294.671875 674.195313 "></path>
<path style=" stroke:none;fill-rule:nonzero;fill:rgb(6.27451%,30.588235%,54.509804%);fill-opacity:1;" d="M 1294.457031 679.1875 C 1287.796875 678.902344 1288.222656 668.914063 1294.886719 669.199219 C 1301.546875 669.484375 1301.117188 679.472656 1294.457031 679.1875 "></path>
<path style=" stroke:none;fill-rule:nonzero;fill:rgb(6.27451%,30.588235%,54.509804%);fill-opacity:1;" d="M 1293.71875 696.394531 C 1287.058594 696.109375 1287.488281 686.117188 1294.148438 686.402344 C 1300.808594 686.6875 1300.382813 696.679688 1293.71875 696.394531 "></path>
<path style=" stroke:none;fill-rule:nonzero;fill:rgb(6.27451%,30.588235%,54.509804%);fill-opacity:1;" d="M 1310.925781 697.128906 C 1304.265625 696.84375 1304.691406 686.855469 1311.351563 687.140625 C 1318.011719 687.425781 1317.585938 697.414063 1310.925781 697.128906 "></path>
<path style=" stroke:none;fill-rule:nonzero;fill:rgb(6.27451%,30.588235%,54.509804%);fill-opacity:1;" d="M 1311.660156 679.925781 C 1305 679.640625 1305.429688 669.648438 1312.089844 669.933594 C 1318.75 670.21875 1318.320313 680.210938 1311.660156 679.925781 "></path>
<path style="fill:none;stroke-width:4;stroke-linecap:round;stroke-linejoin:miter;stroke:rgb(6.27451%,30.588235%,54.509804%);stroke-opacity:1;stroke-miterlimit:10;" d="M 1257.957031 765.71875 L 1252.5 743.441406 L 1269.066406 727.582031 L 1291.085938 733.996094 L 1296.539063 756.273438 "></path>
<path style=" stroke:none;fill-rule:nonzero;fill:rgb(6.27451%,30.588235%,54.509804%);fill-opacity:1;" d="M 1251.101563 748.242188 C 1244.703125 746.378906 1247.5 736.777344 1253.898438 738.640625 C 1260.300781 740.507813 1257.503906 750.105469 1251.101563 748.242188 "></path>
<path style=" stroke:none;fill-rule:nonzero;fill:rgb(6.27451%,30.588235%,54.509804%);fill-opacity:1;" d="M 1267.667969 732.378906 C 1261.269531 730.515625 1264.066406 720.914063 1270.464844 722.78125 C 1276.867188 724.644531 1274.070313 734.246094 1267.667969 732.378906 "></path>
<path style=" stroke:none;fill-rule:nonzero;fill:rgb(6.27451%,30.588235%,54.509804%);fill-opacity:1;" d="M 1289.6875 738.796875 C 1283.289063 736.929688 1286.085938 727.332031 1292.484375 729.195313 C 1298.886719 731.058594 1296.089844 740.660156 1289.6875 738.796875 "></path>
<path style="fill:none;stroke-width:4;stroke-linecap:round;stroke-linejoin:miter;stroke:rgb(6.27451%,30.588235%,54.509804%);stroke-opacity:1;stroke-miterlimit:10;" d="M 1257.957031 765.71875 L 1252.5 743.441406 L 1230.222656 748.894531 L 1235.679688 771.171875 Z M 1257.957031 765.71875 "></path>
<path style=" stroke:none;fill-rule:nonzero;fill:rgb(6.27451%,30.588235%,54.509804%);fill-opacity:1;" d="M 1256.558594 770.519531 C 1250.15625 768.65625 1252.953125 759.054688 1259.355469 760.917969 C 1265.753906 762.785156 1262.957031 772.382813 1256.558594 770.519531 "></path>
<path style=" stroke:none;fill-rule:nonzero;fill:rgb(6.27451%,30.588235%,54.509804%);fill-opacity:1;" d="M 1251.101563 748.242188 C 1244.703125 746.378906 1247.5 736.777344 1253.898438 738.640625 C 1260.300781 740.507813 1257.503906 750.105469 1251.101563 748.242188 "></path>
<path style=" stroke:none;fill-rule:nonzero;fill:rgb(6.27451%,30.588235%,54.509804%);fill-opacity:1;" d="M 1228.824219 753.695313 C 1222.425781 751.832031 1225.222656 742.230469 1231.621094 744.097656 C 1238.023438 745.960938 1235.226563 755.5625 1228.824219 753.695313 "></path>
<path style=" stroke:none;fill-rule:nonzero;fill:rgb(6.27451%,30.588235%,54.509804%);fill-opacity:1;" d="M 1234.28125 775.972656 C 1227.878906 774.109375 1230.675781 764.507813 1237.078125 766.371094 C 1243.476563 768.238281 1240.679688 777.839844 1234.28125 775.972656 "></path>
<path style="fill:none;stroke-width:4;stroke-linecap:round;stroke-linejoin:miter;stroke:rgb(6.27451%,30.588235%,54.509804%);stroke-opacity:1;stroke-miterlimit:10;" d="M 1133.910156 950.101563 L 1117.71875 926.851563 L 1129.761719 901.203125 L 1157.992188 898.808594 L 1174.183594 922.058594 L 1162.140625 947.707031 "></path>
<path style=" stroke:none;fill-rule:nonzero;fill:rgb(6.27451%,30.588235%,54.509804%);fill-opacity:1;" d="M 1113.617188 929.707031 C 1109.804688 924.238281 1118.011719 918.523438 1121.820313 923.992188 C 1125.632813 929.464844 1117.425781 935.179688 1113.617188 929.707031 "></path>
<path style=" stroke:none;fill-rule:nonzero;fill:rgb(6.27451%,30.588235%,54.509804%);fill-opacity:1;" d="M 1125.65625 904.058594 C 1121.847656 898.589844 1130.054688 892.875 1133.863281 898.347656 C 1137.671875 903.816406 1129.464844 909.53125 1125.65625 904.058594 "></path>
<path style=" stroke:none;fill-rule:nonzero;fill:rgb(6.27451%,30.588235%,54.509804%);fill-opacity:1;" d="M 1153.886719 901.664063 C 1150.078125 896.195313 1158.285156 890.480469 1162.09375 895.949219 C 1165.90625 901.421875 1157.699219 907.136719 1153.886719 901.664063 "></path>
<path style=" stroke:none;fill-rule:nonzero;fill:rgb(6.27451%,30.588235%,54.509804%);fill-opacity:1;" d="M 1170.078125 924.917969 C 1166.269531 919.445313 1174.476563 913.730469 1178.285156 919.203125 C 1182.09375 924.671875 1173.890625 930.386719 1170.078125 924.917969 "></path>
<path style="fill:none;stroke-width:4;stroke-linecap:round;stroke-linejoin:miter;stroke:rgb(6.27451%,30.588235%,54.509804%);stroke-opacity:1;stroke-miterlimit:10;" d="M 1084.847656 943.007813 L 1096.015625 970.148438 L 1068.875 981.316406 L 1057.707031 954.175781 "></path>
<path style=" stroke:none;fill-rule:nonzero;fill:rgb(6.27451%,30.588235%,54.509804%);fill-opacity:1;" d="M 1091.390625 972.050781 C 1088.855469 965.886719 1098.101563 962.082031 1100.640625 968.246094 C 1103.175781 974.414063 1093.929688 978.21875 1091.390625 972.050781 "></path>
<path style=" stroke:none;fill-rule:nonzero;fill:rgb(6.27451%,30.588235%,54.509804%);fill-opacity:1;" d="M 1064.25 983.21875 C 1061.710938 977.054688 1070.960938 973.25 1073.496094 979.414063 C 1076.035156 985.578125 1066.785156 989.382813 1064.25 983.21875 "></path>
<path style="fill:none;stroke-width:4;stroke-linecap:round;stroke-linejoin:miter;stroke:rgb(6.27451%,30.588235%,54.509804%);stroke-opacity:1;stroke-miterlimit:10;" d="M 1068.875 981.316406 L 1060.402344 1001.632813 "></path>
<path style="fill:none;stroke-width:4;stroke-linecap:round;stroke-linejoin:miter;stroke:rgb(6.27451%,30.588235%,54.509804%);stroke-opacity:1;stroke-miterlimit:10;" d="M 478.992188 659.300781 L 507.847656 678.777344 L 505.410156 713.503906 L 474.113281 728.757813 "></path>
<path style=" stroke:none;fill-rule:nonzero;fill:rgb(6.27451%,30.588235%,54.509804%);fill-opacity:1;" d="M 505.65625 674.28125 C 511.648438 671.359375 516.03125 680.347656 510.039063 683.269531 C 504.046875 686.191406 499.664063 677.203125 505.65625 674.28125 "></path>
<path style=" stroke:none;fill-rule:nonzero;fill:rgb(6.27451%,30.588235%,54.509804%);fill-opacity:1;" d="M 503.21875 709.011719 C 509.210938 706.089844 513.59375 715.078125 507.601563 718 C 501.609375 720.921875 497.226563 711.929688 503.21875 709.011719 "></path>
<path style="fill:none;stroke-width:4;stroke-linecap:round;stroke-linejoin:miter;stroke:rgb(6.27451%,30.588235%,54.509804%);stroke-opacity:1;stroke-miterlimit:10;" d="M 478.992188 659.300781 L 507.847656 678.777344 L 527.324219 649.917969 L 498.464844 630.441406 Z M 478.992188 659.300781 "></path>
<path style=" stroke:none;fill-rule:nonzero;fill:rgb(6.27451%,30.588235%,54.509804%);fill-opacity:1;" d="M 476.800781 654.804688 C 482.792969 651.882813 487.171875 660.875 481.179688 663.792969 C 475.1875 666.714844 470.808594 657.726563 476.800781 654.804688 "></path>
<path style=" stroke:none;fill-rule:nonzero;fill:rgb(6.27451%,30.588235%,54.509804%);fill-opacity:1;" d="M 505.65625 674.28125 C 511.648438 671.359375 516.03125 680.347656 510.039063 683.269531 C 504.046875 686.191406 499.664063 677.203125 505.65625 674.28125 "></path>
<path style=" stroke:none;fill-rule:nonzero;fill:rgb(6.27451%,30.588235%,54.509804%);fill-opacity:1;" d="M 525.132813 645.421875 C 531.125 642.503906 535.507813 651.492188 529.515625 654.414063 C 523.523438 657.332031 519.140625 648.34375 525.132813 645.421875 "></path>
<path style=" stroke:none;fill-rule:nonzero;fill:rgb(6.27451%,30.588235%,54.509804%);fill-opacity:1;" d="M 496.277344 625.949219 C 502.269531 623.027344 506.648438 632.015625 500.65625 634.9375 C 494.664063 637.859375 490.28125 628.867188 496.277344 625.949219 "></path>
<path style="fill:none;stroke-width:4;stroke-linecap:round;stroke-linejoin:miter;stroke:rgb(6.27451%,30.588235%,54.509804%);stroke-opacity:1;stroke-miterlimit:10;" d="M 468.082031 579.585938 L 466.953125 619.566406 L 428.578125 630.847656 L 405.988281 597.835938 L 430.40625 566.152344 Z M 468.082031 579.585938 "></path>
<path style=" stroke:none;fill-rule:nonzero;fill:rgb(6.27451%,30.588235%,54.509804%);fill-opacity:1;" d="M 466.671875 574.789063 C 473.070313 572.90625 475.890625 582.5 469.492188 584.382813 C 463.097656 586.261719 460.277344 576.667969 466.671875 574.789063 "></path>
<path style=" stroke:none;fill-rule:nonzero;fill:rgb(6.27451%,30.588235%,54.509804%);fill-opacity:1;" d="M 465.542969 614.769531 C 471.9375 612.890625 474.757813 622.484375 468.363281 624.367188 C 461.96875 626.246094 459.148438 616.652344 465.542969 614.769531 "></path>
<path style=" stroke:none;fill-rule:nonzero;fill:rgb(6.27451%,30.588235%,54.509804%);fill-opacity:1;" d="M 427.167969 626.050781 C 433.5625 624.171875 436.382813 633.765625 429.988281 635.648438 C 423.589844 637.527344 420.769531 627.933594 427.167969 626.050781 "></path>
<path style=" stroke:none;fill-rule:nonzero;fill:rgb(6.27451%,30.588235%,54.509804%);fill-opacity:1;" d="M 404.578125 593.039063 C 410.976563 591.160156 413.796875 600.753906 407.398438 602.632813 C 401.003906 604.515625 398.183594 594.921875 404.578125 593.039063 "></path>
<path style=" stroke:none;fill-rule:nonzero;fill:rgb(6.27451%,30.588235%,54.509804%);fill-opacity:1;" d="M 428.996094 561.355469 C 435.390625 559.476563 438.210938 569.070313 431.816406 570.949219 C 425.417969 572.832031 422.597656 563.238281 428.996094 561.355469 "></path>
<path style="fill:none;stroke-width:4;stroke-linecap:round;stroke-linejoin:miter;stroke:rgb(6.27451%,30.588235%,54.509804%);stroke-opacity:1;stroke-miterlimit:10;" d="M 1087.636719 389.867188 L 1116.539063 431.992188 "></path>
<path style=" stroke:none;fill-rule:nonzero;fill:rgb(6.27451%,30.588235%,54.509804%);fill-opacity:1;" d="M 1092.636719 389.867188 C 1092.636719 396.535156 1082.636719 396.535156 1082.636719 389.867188 C 1082.636719 383.203125 1092.636719 383.203125 1092.636719 389.867188 "></path>
<path style=" stroke:none;fill-rule:nonzero;fill:rgb(6.27451%,30.588235%,54.509804%);fill-opacity:1;" d="M 1121.539063 431.992188 C 1121.539063 438.660156 1111.539063 438.660156 1111.539063 431.992188 C 1111.539063 425.324219 1121.539063 425.324219 1121.539063 431.992188 "></path>
<path style="fill:none;stroke-width:4;stroke-linecap:round;stroke-linejoin:miter;stroke:rgb(6.27451%,30.588235%,54.509804%);stroke-opacity:1;stroke-miterlimit:10;" d="M 1150.957031 441.929688 L 1197.589844 413.070313 "></path>
<path style=" stroke:none;fill-rule:nonzero;fill:rgb(6.27451%,30.588235%,54.509804%);fill-opacity:1;" d="M 1155.957031 441.929688 C 1155.957031 448.597656 1145.957031 448.597656 1145.957031 441.929688 C 1145.957031 435.261719 1155.957031 435.261719 1155.957031 441.929688 "></path>
<path style=" stroke:none;fill-rule:nonzero;fill:rgb(6.27451%,30.588235%,54.509804%);fill-opacity:1;" d="M 1202.589844 413.070313 C 1202.589844 419.734375 1192.589844 419.734375 1192.589844 413.070313 C 1192.589844 406.402344 1202.589844 406.402344 1202.589844 413.070313 "></path>
<path style="fill:none;stroke-width:4;stroke-linecap:round;stroke-linejoin:miter;stroke:rgb(6.27451%,30.588235%,54.509804%);stroke-opacity:1;stroke-miterlimit:10;" d="M 1150.957031 441.929688 L 1171.519531 450.613281 "></path>
<path style=" stroke:none;fill-rule:nonzero;fill:rgb(6.27451%,30.588235%,54.509804%);fill-opacity:1;" d="M 1155.957031 441.929688 C 1155.957031 448.597656 1145.957031 448.597656 1145.957031 441.929688 C 1145.957031 435.261719 1155.957031 435.261719 1155.957031 441.929688 "></path>
<path style=" stroke:none;fill-rule:nonzero;fill:rgb(6.27451%,30.588235%,54.509804%);fill-opacity:1;" d="M 1176.519531 450.613281 C 1176.519531 457.28125 1166.519531 457.28125 1166.519531 450.613281 C 1166.519531 443.949219 1176.519531 443.949219 1176.519531 450.613281 "></path>
<path style="fill:none;stroke-width:4;stroke-linecap:round;stroke-linejoin:miter;stroke:rgb(6.27451%,30.588235%,54.509804%);stroke-opacity:1;stroke-miterlimit:10;" d="M 1224.917969 450.210938 L 1258.820313 457.203125 "></path>
<path style=" stroke:none;fill-rule:nonzero;fill:rgb(6.27451%,30.588235%,54.509804%);fill-opacity:1;" d="M 1229.917969 450.210938 C 1229.917969 456.878906 1219.917969 456.878906 1219.917969 450.210938 C 1219.917969 443.542969 1229.917969 443.542969 1229.917969 450.210938 "></path>
<path style=" stroke:none;fill-rule:nonzero;fill:rgb(6.27451%,30.588235%,54.509804%);fill-opacity:1;" d="M 1263.820313 457.203125 C 1263.820313 463.871094 1253.820313 463.871094 1253.820313 457.203125 C 1253.820313 450.535156 1263.820313 450.535156 1263.820313 457.203125 "></path>
<path style="fill:none;stroke-width:4;stroke-linecap:round;stroke-linejoin:miter;stroke:rgb(6.27451%,30.588235%,54.509804%);stroke-opacity:1;stroke-miterlimit:10;" d="M 1191.316406 488.5625 L 1193.433594 505.183594 "></path>
<path style=" stroke:none;fill-rule:nonzero;fill:rgb(6.27451%,30.588235%,54.509804%);fill-opacity:1;" d="M 1196.316406 488.5625 C 1196.316406 495.226563 1186.316406 495.226563 1186.316406 488.5625 C 1186.316406 481.894531 1196.316406 481.894531 1196.316406 488.5625 "></path>
<path style=" stroke:none;fill-rule:nonzero;fill:rgb(6.27451%,30.588235%,54.509804%);fill-opacity:1;" d="M 1198.433594 505.183594 C 1198.433594 511.851563 1188.433594 511.851563 1188.433594 505.183594 C 1188.433594 498.519531 1198.433594 498.519531 1198.433594 505.183594 "></path>
<path style="fill:none;stroke-width:4;stroke-linecap:round;stroke-linejoin:miter;stroke:rgb(6.27451%,30.588235%,54.509804%);stroke-opacity:1;stroke-miterlimit:10;" d="M 1300.78125 487.738281 L 1358.71875 519.488281 "></path>
<path style=" stroke:none;fill-rule:nonzero;fill:rgb(6.27451%,30.588235%,54.509804%);fill-opacity:1;" d="M 1305.78125 487.738281 C 1305.78125 494.40625 1295.78125 494.40625 1295.78125 487.738281 C 1295.78125 481.070313 1305.78125 481.070313 1305.78125 487.738281 "></path>
<path style=" stroke:none;fill-rule:nonzero;fill:rgb(6.27451%,30.588235%,54.509804%);fill-opacity:1;" d="M 1363.71875 519.488281 C 1363.71875 526.15625 1353.71875 526.15625 1353.71875 519.488281 C 1353.71875 512.820313 1363.71875 512.820313 1363.71875 519.488281 "></path>
<path style="fill:none;stroke-width:4;stroke-linecap:round;stroke-linejoin:miter;stroke:rgb(6.27451%,30.588235%,54.509804%);stroke-opacity:1;stroke-miterlimit:10;" d="M 1241.289063 508 L 1308.769531 519.992188 "></path>
<path style=" stroke:none;fill-rule:nonzero;fill:rgb(6.27451%,30.588235%,54.509804%);fill-opacity:1;" d="M 1246.289063 508 C 1246.289063 514.667969 1236.289063 514.667969 1236.289063 508 C 1236.289063 501.332031 1246.289063 501.332031 1246.289063 508 "></path>
<path style=" stroke:none;fill-rule:nonzero;fill:rgb(6.27451%,30.588235%,54.509804%);fill-opacity:1;" d="M 1313.769531 519.992188 C 1313.769531 526.660156 1303.769531 526.660156 1303.769531 519.992188 C 1303.769531 513.324219 1313.769531 513.324219 1313.769531 519.992188 "></path>
<path style="fill:none;stroke-width:4;stroke-linecap:round;stroke-linejoin:miter;stroke:rgb(6.27451%,30.588235%,54.509804%);stroke-opacity:1;stroke-miterlimit:10;" d="M 1375.917969 530.898438 L 1417.480469 580.132813 "></path>
<path style=" stroke:none;fill-rule:nonzero;fill:rgb(6.27451%,30.588235%,54.509804%);fill-opacity:1;" d="M 1380.917969 530.898438 C 1380.917969 537.566406 1370.917969 537.566406 1370.917969 530.898438 C 1370.917969 524.230469 1380.917969 524.230469 1380.917969 530.898438 "></path>
<path style=" stroke:none;fill-rule:nonzero;fill:rgb(6.27451%,30.588235%,54.509804%);fill-opacity:1;" d="M 1422.480469 580.132813 C 1422.480469 586.796875 1412.480469 586.796875 1412.480469 580.132813 C 1412.480469 573.464844 1422.480469 573.464844 1422.480469 580.132813 "></path>
<path style="fill:none;stroke-width:4;stroke-linecap:round;stroke-linejoin:miter;stroke:rgb(6.27451%,30.588235%,54.509804%);stroke-opacity:1;stroke-miterlimit:10;" d="M 1318.976563 540.527344 L 1289.625 602.855469 "></path>
<path style=" stroke:none;fill-rule:nonzero;fill:rgb(6.27451%,30.588235%,54.509804%);fill-opacity:1;" d="M 1323.976563 540.527344 C 1323.976563 547.195313 1313.976563 547.195313 1313.976563 540.527344 C 1313.976563 533.859375 1323.976563 533.859375 1323.976563 540.527344 "></path>
<path style=" stroke:none;fill-rule:nonzero;fill:rgb(6.27451%,30.588235%,54.509804%);fill-opacity:1;" d="M 1294.625 602.855469 C 1294.625 609.523438 1284.625 609.523438 1284.625 602.855469 C 1284.625 596.191406 1294.625 596.191406 1294.625 602.855469 "></path>
<path style="fill:none;stroke-width:4;stroke-linecap:round;stroke-linejoin:miter;stroke:rgb(6.27451%,30.588235%,54.509804%);stroke-opacity:1;stroke-miterlimit:10;" d="M 1437.121094 593.054688 L 1454.570313 672.714844 "></path>
<path style=" stroke:none;fill-rule:nonzero;fill:rgb(6.27451%,30.588235%,54.509804%);fill-opacity:1;" d="M 1442.121094 593.054688 C 1442.121094 599.722656 1432.121094 599.722656 1432.121094 593.054688 C 1432.121094 586.390625 1442.121094 586.390625 1442.121094 593.054688 "></path>
<path style=" stroke:none;fill-rule:nonzero;fill:rgb(6.27451%,30.588235%,54.509804%);fill-opacity:1;" d="M 1459.570313 672.714844 C 1459.570313 679.378906 1449.570313 679.378906 1449.570313 672.714844 C 1449.570313 666.046875 1459.570313 666.046875 1459.570313 672.714844 "></path>
<path style="fill:none;stroke-width:4;stroke-linecap:round;stroke-linejoin:miter;stroke:rgb(6.27451%,30.588235%,54.509804%);stroke-opacity:1;stroke-miterlimit:10;" d="M 1309.300781 635.910156 L 1311.875 674.929688 "></path>
<path style=" stroke:none;fill-rule:nonzero;fill:rgb(6.27451%,30.588235%,54.509804%);fill-opacity:1;" d="M 1314.300781 635.910156 C 1314.300781 642.574219 1304.300781 642.574219 1304.300781 635.910156 C 1304.300781 629.242188 1314.300781 629.242188 1314.300781 635.910156 "></path>
<path style=" stroke:none;fill-rule:nonzero;fill:rgb(6.27451%,30.588235%,54.509804%);fill-opacity:1;" d="M 1316.875 674.929688 C 1316.875 681.597656 1306.875 681.597656 1306.875 674.929688 C 1306.875 668.265625 1316.875 668.265625 1316.875 674.929688 "></path>
<path style="fill:none;stroke-width:4;stroke-linecap:round;stroke-linejoin:miter;stroke:rgb(6.27451%,30.588235%,54.509804%);stroke-opacity:1;stroke-miterlimit:10;" d="M 1421.398438 694.710938 L 1368.085938 763.84375 "></path>
<path style=" stroke:none;fill-rule:nonzero;fill:rgb(6.27451%,30.588235%,54.509804%);fill-opacity:1;" d="M 1426.398438 694.710938 C 1426.398438 701.378906 1416.398438 701.378906 1416.398438 694.710938 C 1416.398438 688.042969 1426.398438 688.042969 1426.398438 694.710938 "></path>
<path style=" stroke:none;fill-rule:nonzero;fill:rgb(6.27451%,30.588235%,54.509804%);fill-opacity:1;" d="M 1373.085938 763.84375 C 1373.085938 770.511719 1363.085938 770.511719 1363.085938 763.84375 C 1363.085938 757.179688 1373.085938 757.179688 1373.085938 763.84375 "></path>
<path style="fill:none;stroke-width:4;stroke-linecap:round;stroke-linejoin:miter;stroke:rgb(6.27451%,30.588235%,54.509804%);stroke-opacity:1;stroke-miterlimit:10;" d="M 1276.730469 690.660156 L 1269.066406 727.582031 "></path>
<path style=" stroke:none;fill-rule:nonzero;fill:rgb(6.27451%,30.588235%,54.509804%);fill-opacity:1;" d="M 1281.730469 690.660156 C 1281.730469 697.328125 1271.730469 697.328125 1271.730469 690.660156 C 1271.730469 683.996094 1281.730469 683.996094 1281.730469 690.660156 "></path>
<path style=" stroke:none;fill-rule:nonzero;fill:rgb(6.27451%,30.588235%,54.509804%);fill-opacity:1;" d="M 1274.066406 727.582031 C 1274.066406 734.246094 1264.066406 734.246094 1264.066406 727.582031 C 1264.066406 720.914063 1274.066406 720.914063 1274.066406 727.582031 "></path>
<path style="fill:none;stroke-width:4;stroke-linecap:round;stroke-linejoin:miter;stroke:rgb(6.27451%,30.588235%,54.509804%);stroke-opacity:1;stroke-miterlimit:10;" d="M 1360.957031 788.3125 L 1342.535156 843.496094 "></path>
<path style=" stroke:none;fill-rule:nonzero;fill:rgb(6.27451%,30.588235%,54.509804%);fill-opacity:1;" d="M 1365.957031 788.3125 C 1365.957031 794.976563 1355.957031 794.976563 1355.957031 788.3125 C 1355.957031 781.644531 1365.957031 781.644531 1365.957031 788.3125 "></path>
<path style=" stroke:none;fill-rule:nonzero;fill:rgb(6.27451%,30.588235%,54.509804%);fill-opacity:1;" d="M 1347.535156 843.496094 C 1347.535156 850.160156 1337.535156 850.160156 1337.535156 843.496094 C 1337.535156 836.828125 1347.535156 836.828125 1347.535156 843.496094 "></path>
<path style="fill:none;stroke-width:4;stroke-linecap:round;stroke-linejoin:miter;stroke:rgb(6.27451%,30.588235%,54.509804%);stroke-opacity:1;stroke-miterlimit:10;" d="M 1296.539063 756.273438 L 1319.609375 830.402344 "></path>
<path style=" stroke:none;fill-rule:nonzero;fill:rgb(6.27451%,30.588235%,54.509804%);fill-opacity:1;" d="M 1301.539063 756.273438 C 1301.539063 762.9375 1291.539063 762.9375 1291.539063 756.273438 C 1291.539063 749.605469 1301.539063 749.605469 1301.539063 756.273438 "></path>
<path style=" stroke:none;fill-rule:nonzero;fill:rgb(6.27451%,30.588235%,54.509804%);fill-opacity:1;" d="M 1324.609375 830.402344 C 1324.609375 837.070313 1314.609375 837.070313 1314.609375 830.402344 C 1314.609375 823.738281 1324.609375 823.738281 1324.609375 830.402344 "></path>
<path style="fill:none;stroke-width:4;stroke-linecap:round;stroke-linejoin:miter;stroke:rgb(6.27451%,30.588235%,54.509804%);stroke-opacity:1;stroke-miterlimit:10;" d="M 1342.660156 869.894531 L 1336.738281 968.371094 "></path>
<path style=" stroke:none;fill-rule:nonzero;fill:rgb(6.27451%,30.588235%,54.509804%);fill-opacity:1;" d="M 1347.660156 869.894531 C 1347.660156 876.5625 1337.660156 876.5625 1337.660156 869.894531 C 1337.660156 863.226563 1347.660156 863.226563 1347.660156 869.894531 "></path>
<path style=" stroke:none;fill-rule:nonzero;fill:rgb(6.27451%,30.588235%,54.509804%);fill-opacity:1;" d="M 1341.738281 968.371094 C 1341.738281 975.035156 1331.738281 975.035156 1331.738281 968.371094 C 1331.738281 961.703125 1341.738281 961.703125 1341.738281 968.371094 "></path>
<path style="fill:none;stroke-width:4;stroke-linecap:round;stroke-linejoin:miter;stroke:rgb(6.27451%,30.588235%,54.509804%);stroke-opacity:1;stroke-miterlimit:10;" d="M 1296.9375 870.113281 L 1273.351563 906.753906 "></path>
<path style=" stroke:none;fill-rule:nonzero;fill:rgb(6.27451%,30.588235%,54.509804%);fill-opacity:1;" d="M 1301.9375 870.113281 C 1301.9375 876.777344 1291.9375 876.777344 1291.9375 870.113281 C 1291.9375 863.445313 1301.9375 863.445313 1301.9375 870.113281 "></path>
<path style=" stroke:none;fill-rule:nonzero;fill:rgb(6.27451%,30.588235%,54.509804%);fill-opacity:1;" d="M 1278.351563 906.753906 C 1278.351563 913.421875 1268.351563 913.421875 1268.351563 906.753906 C 1268.351563 900.089844 1278.351563 900.089844 1278.351563 906.753906 "></path>
<path style="fill:none;stroke-width:4;stroke-linecap:round;stroke-linejoin:miter;stroke:rgb(6.27451%,30.588235%,54.509804%);stroke-opacity:1;stroke-miterlimit:10;" d="M 1333.292969 1039.898438 L 1268.53125 1075.703125 "></path>
<path style=" stroke:none;fill-rule:nonzero;fill:rgb(6.27451%,30.588235%,54.509804%);fill-opacity:1;" d="M 1338.292969 1039.898438 C 1338.292969 1046.566406 1328.292969 1046.566406 1328.292969 1039.898438 C 1328.292969 1033.234375 1338.292969 1033.234375 1338.292969 1039.898438 "></path>
<path style=" stroke:none;fill-rule:nonzero;fill:rgb(6.27451%,30.588235%,54.509804%);fill-opacity:1;" d="M 1273.53125 1075.703125 C 1273.53125 1082.367188 1263.53125 1082.367188 1263.53125 1075.703125 C 1263.53125 1069.035156 1273.53125 1069.035156 1273.53125 1075.703125 "></path>
<path style="fill:none;stroke-width:4;stroke-linecap:round;stroke-linejoin:miter;stroke:rgb(6.27451%,30.588235%,54.509804%);stroke-opacity:1;stroke-miterlimit:10;" d="M 1241.253906 941.59375 L 1174.183594 922.058594 "></path>
<path style=" stroke:none;fill-rule:nonzero;fill:rgb(6.27451%,30.588235%,54.509804%);fill-opacity:1;" d="M 1246.253906 941.59375 C 1246.253906 948.261719 1236.253906 948.261719 1236.253906 941.59375 C 1236.253906 934.929688 1246.253906 934.929688 1246.253906 941.59375 "></path>
<path style=" stroke:none;fill-rule:nonzero;fill:rgb(6.27451%,30.588235%,54.509804%);fill-opacity:1;" d="M 1179.183594 922.058594 C 1179.183594 928.726563 1169.183594 928.726563 1169.183594 922.058594 C 1169.183594 915.394531 1179.183594 915.394531 1179.183594 922.058594 "></path>
<path style="fill:none;stroke-width:4;stroke-linecap:round;stroke-linejoin:miter;stroke:rgb(6.27451%,30.588235%,54.509804%);stroke-opacity:1;stroke-miterlimit:10;" d="M 1208.171875 1064.894531 L 1131.402344 1056.152344 "></path>
<path style=" stroke:none;fill-rule:nonzero;fill:rgb(6.27451%,30.588235%,54.509804%);fill-opacity:1;" d="M 1213.171875 1064.894531 C 1213.171875 1071.5625 1203.171875 1071.5625 1203.171875 1064.894531 C 1203.171875 1058.230469 1213.171875 1058.230469 1213.171875 1064.894531 "></path>
<path style=" stroke:none;fill-rule:nonzero;fill:rgb(6.27451%,30.588235%,54.509804%);fill-opacity:1;" d="M 1136.402344 1056.152344 C 1136.402344 1062.820313 1126.402344 1062.820313 1126.402344 1056.152344 C 1126.402344 1049.488281 1136.402344 1049.488281 1136.402344 1056.152344 "></path>
<path style="fill:none;stroke-width:4;stroke-linecap:round;stroke-linejoin:miter;stroke:rgb(6.27451%,30.588235%,54.509804%);stroke-opacity:1;stroke-miterlimit:10;" d="M 1133.910156 950.101563 L 1096.015625 970.148438 "></path>
<path style=" stroke:none;fill-rule:nonzero;fill:rgb(6.27451%,30.588235%,54.509804%);fill-opacity:1;" d="M 1138.910156 950.101563 C 1138.910156 956.769531 1128.910156 956.769531 1128.910156 950.101563 C 1128.910156 943.4375 1138.910156 943.4375 1138.910156 950.101563 "></path>
<path style=" stroke:none;fill-rule:nonzero;fill:rgb(6.27451%,30.588235%,54.509804%);fill-opacity:1;" d="M 1101.015625 970.148438 C 1101.015625 976.816406 1091.015625 976.816406 1091.015625 970.148438 C 1091.015625 963.484375 1101.015625 963.484375 1101.015625 970.148438 "></path>
<path style="fill:none;stroke-width:4;stroke-linecap:round;stroke-linejoin:miter;stroke:rgb(6.27451%,30.588235%,54.509804%);stroke-opacity:1;stroke-miterlimit:10;" d="M 1095.789063 1087.636719 L 1059.664063 1137.367188 "></path>
<path style=" stroke:none;fill-rule:nonzero;fill:rgb(6.27451%,30.588235%,54.509804%);fill-opacity:1;" d="M 1100.789063 1087.636719 C 1100.789063 1094.304688 1090.789063 1094.304688 1090.789063 1087.636719 C 1090.789063 1080.972656 1100.789063 1080.972656 1100.789063 1087.636719 "></path>
<path style=" stroke:none;fill-rule:nonzero;fill:rgb(6.27451%,30.588235%,54.509804%);fill-opacity:1;" d="M 1064.664063 1137.367188 C 1064.664063 1144.035156 1054.664063 1144.035156 1054.664063 1137.367188 C 1054.664063 1130.703125 1064.664063 1130.703125 1064.664063 1137.367188 "></path>
<path style="fill:none;stroke-width:4;stroke-linecap:round;stroke-linejoin:miter;stroke:rgb(6.27451%,30.588235%,54.509804%);stroke-opacity:1;stroke-miterlimit:10;" d="M 1060.402344 1001.632813 L 1039.867188 1059.820313 "></path>
<path style=" stroke:none;fill-rule:nonzero;fill:rgb(6.27451%,30.588235%,54.509804%);fill-opacity:1;" d="M 1065.402344 1001.632813 C 1065.402344 1008.300781 1055.402344 1008.300781 1055.402344 1001.632813 C 1055.402344 994.96875 1065.402344 994.96875 1065.402344 1001.632813 "></path>
<path style=" stroke:none;fill-rule:nonzero;fill:rgb(6.27451%,30.588235%,54.509804%);fill-opacity:1;" d="M 1044.867188 1059.820313 C 1044.867188 1066.488281 1034.867188 1066.488281 1034.867188 1059.820313 C 1034.867188 1053.15625 1044.867188 1053.15625 1044.867188 1059.820313 "></path>
<path style="fill:none;stroke-width:4;stroke-linecap:round;stroke-linejoin:miter;stroke:rgb(6.27451%,30.588235%,54.509804%);stroke-opacity:1;stroke-miterlimit:10;" d="M 1016.964844 1161.878906 L 939.863281 1175.097656 "></path>
<path style=" stroke:none;fill-rule:nonzero;fill:rgb(6.27451%,30.588235%,54.509804%);fill-opacity:1;" d="M 1021.964844 1161.878906 C 1021.964844 1168.546875 1011.964844 1168.546875 1011.964844 1161.878906 C 1011.964844 1155.214844 1021.964844 1155.214844 1021.964844 1161.878906 "></path>
<path style=" stroke:none;fill-rule:nonzero;fill:rgb(6.27451%,30.588235%,54.509804%);fill-opacity:1;" d="M 944.863281 1175.097656 C 944.863281 1181.761719 934.863281 1181.761719 934.863281 1175.097656 C 934.863281 1168.429688 944.863281 1168.429688 944.863281 1175.097656 "></path>
<path style="fill:none;stroke-width:4;stroke-linecap:round;stroke-linejoin:miter;stroke:rgb(6.27451%,30.588235%,54.509804%);stroke-opacity:1;stroke-miterlimit:10;" d="M 993.804688 1099.503906 L 931.425781 1101.933594 "></path>
<path style=" stroke:none;fill-rule:nonzero;fill:rgb(6.27451%,30.588235%,54.509804%);fill-opacity:1;" d="M 998.804688 1099.503906 C 998.804688 1106.171875 988.804688 1106.171875 988.804688 1099.503906 C 988.804688 1092.835938 998.804688 1092.835938 998.804688 1099.503906 "></path>
<path style=" stroke:none;fill-rule:nonzero;fill:rgb(6.27451%,30.588235%,54.509804%);fill-opacity:1;" d="M 936.425781 1101.933594 C 936.425781 1108.601563 926.425781 1108.601563 926.425781 1101.933594 C 926.425781 1095.269531 936.425781 1095.269531 936.425781 1101.933594 "></path>
<path style="fill:none;stroke-width:4;stroke-linecap:round;stroke-linejoin:miter;stroke:rgb(6.27451%,30.588235%,54.509804%);stroke-opacity:1;stroke-miterlimit:10;" d="M 912.839844 1158.945313 L 814.214844 1173.023438 "></path>
<path style=" stroke:none;fill-rule:nonzero;fill:rgb(6.27451%,30.588235%,54.509804%);fill-opacity:1;" d="M 917.839844 1158.945313 C 917.839844 1165.613281 907.839844 1165.613281 907.839844 1158.945313 C 907.839844 1152.277344 917.839844 1152.277344 917.839844 1158.945313 "></path>
<path style=" stroke:none;fill-rule:nonzero;fill:rgb(6.27451%,30.588235%,54.509804%);fill-opacity:1;" d="M 819.214844 1173.023438 C 819.214844 1179.691406 809.214844 1179.691406 809.214844 1173.023438 C 809.214844 1166.355469 819.214844 1166.355469 819.214844 1173.023438 "></path>
<path style="fill:none;stroke-width:4;stroke-linecap:round;stroke-linejoin:miter;stroke:rgb(6.27451%,30.588235%,54.509804%);stroke-opacity:1;stroke-miterlimit:10;" d="M 876.429688 1107.429688 L 814.214844 1173.023438 "></path>
<path style=" stroke:none;fill-rule:nonzero;fill:rgb(6.27451%,30.588235%,54.509804%);fill-opacity:1;" d="M 881.429688 1107.429688 C 881.429688 1114.09375 871.429688 1114.09375 871.429688 1107.429688 C 871.429688 1100.761719 881.429688 1100.761719 881.429688 1107.429688 "></path>
<path style=" stroke:none;fill-rule:nonzero;fill:rgb(6.27451%,30.588235%,54.509804%);fill-opacity:1;" d="M 819.214844 1173.023438 C 819.214844 1179.691406 809.214844 1179.691406 809.214844 1173.023438 C 809.214844 1166.355469 819.214844 1166.355469 819.214844 1173.023438 "></path>
<path style="fill:none;stroke-width:4;stroke-linecap:round;stroke-linejoin:miter;stroke:rgb(6.27451%,30.588235%,54.509804%);stroke-opacity:1;stroke-miterlimit:10;" d="M 738.625 1212.675781 L 670.914063 1170.890625 "></path>
<path style=" stroke:none;fill-rule:nonzero;fill:rgb(6.27451%,30.588235%,54.509804%);fill-opacity:1;" d="M 743.625 1212.675781 C 743.625 1219.34375 733.625 1219.34375 733.625 1212.675781 C 733.625 1206.007813 743.625 1206.007813 743.625 1212.675781 "></path>
<path style=" stroke:none;fill-rule:nonzero;fill:rgb(6.27451%,30.588235%,54.509804%);fill-opacity:1;" d="M 675.914063 1170.890625 C 675.914063 1177.558594 665.914063 1177.558594 665.914063 1170.890625 C 665.914063 1164.222656 675.914063 1164.222656 675.914063 1170.890625 "></path>
<path style="fill:none;stroke-width:4;stroke-linecap:round;stroke-linejoin:miter;stroke:rgb(6.27451%,30.588235%,54.509804%);stroke-opacity:1;stroke-miterlimit:10;" d="M 639.878906 1157.625 L 560.652344 1123.558594 "></path>
<path style=" stroke:none;fill-rule:nonzero;fill:rgb(6.27451%,30.588235%,54.509804%);fill-opacity:1;" d="M 644.878906 1157.625 C 644.878906 1164.292969 634.878906 1164.292969 634.878906 1157.625 C 634.878906 1150.960938 644.878906 1150.960938 644.878906 1157.625 "></path>
<path style=" stroke:none;fill-rule:nonzero;fill:rgb(6.27451%,30.588235%,54.509804%);fill-opacity:1;" d="M 565.652344 1123.558594 C 565.652344 1130.222656 555.652344 1130.222656 555.652344 1123.558594 C 555.652344 1116.890625 565.652344 1116.890625 565.652344 1123.558594 "></path>
<path style="fill:none;stroke-width:4;stroke-linecap:round;stroke-linejoin:miter;stroke:rgb(6.27451%,30.588235%,54.509804%);stroke-opacity:1;stroke-miterlimit:10;" d="M 653.144531 1126.59375 L 620.121094 1033.40625 "></path>
<path style=" stroke:none;fill-rule:nonzero;fill:rgb(6.27451%,30.588235%,54.509804%);fill-opacity:1;" d="M 658.144531 1126.59375 C 658.144531 1133.257813 648.144531 1133.257813 648.144531 1126.59375 C 648.144531 1119.925781 658.144531 1119.925781 658.144531 1126.59375 "></path>
<path style=" stroke:none;fill-rule:nonzero;fill:rgb(6.27451%,30.588235%,54.509804%);fill-opacity:1;" d="M 625.121094 1033.40625 C 625.121094 1040.070313 615.121094 1040.070313 615.121094 1033.40625 C 615.121094 1026.738281 625.121094 1026.738281 625.121094 1033.40625 "></path>
<path style="fill:none;stroke-width:4;stroke-linecap:round;stroke-linejoin:miter;stroke:rgb(6.27451%,30.588235%,54.509804%);stroke-opacity:1;stroke-miterlimit:10;" d="M 564.253906 1063.160156 L 466.378906 1016.335938 "></path>
<path style=" stroke:none;fill-rule:nonzero;fill:rgb(6.27451%,30.588235%,54.509804%);fill-opacity:1;" d="M 569.253906 1063.160156 C 569.253906 1069.824219 559.253906 1069.824219 559.253906 1063.160156 C 559.253906 1056.492188 569.253906 1056.492188 569.253906 1063.160156 "></path>
<path style=" stroke:none;fill-rule:nonzero;fill:rgb(6.27451%,30.588235%,54.509804%);fill-opacity:1;" d="M 471.378906 1016.335938 C 471.378906 1023.003906 461.378906 1023.003906 461.378906 1016.335938 C 461.378906 1009.671875 471.378906 1009.671875 471.378906 1016.335938 "></path>
<path style="fill:none;stroke-width:4;stroke-linecap:round;stroke-linejoin:miter;stroke:rgb(6.27451%,30.588235%,54.509804%);stroke-opacity:1;stroke-miterlimit:10;" d="M 569.613281 1000.089844 L 466.378906 1016.335938 "></path>
<path style=" stroke:none;fill-rule:nonzero;fill:rgb(6.27451%,30.588235%,54.509804%);fill-opacity:1;" d="M 574.613281 1000.089844 C 574.613281 1006.753906 564.613281 1006.753906 564.613281 1000.089844 C 564.613281 993.421875 574.613281 993.421875 574.613281 1000.089844 "></path>
<path style=" stroke:none;fill-rule:nonzero;fill:rgb(6.27451%,30.588235%,54.509804%);fill-opacity:1;" d="M 471.378906 1016.335938 C 471.378906 1023.003906 461.378906 1023.003906 461.378906 1016.335938 C 461.378906 1009.671875 471.378906 1009.671875 471.378906 1016.335938 "></path>
<path style="fill:none;stroke-width:4;stroke-linecap:round;stroke-linejoin:miter;stroke:rgb(6.27451%,30.588235%,54.509804%);stroke-opacity:1;stroke-miterlimit:10;" d="M 413.890625 990.527344 L 342.886719 945.199219 "></path>
<path style=" stroke:none;fill-rule:nonzero;fill:rgb(6.27451%,30.588235%,54.509804%);fill-opacity:1;" d="M 418.890625 990.527344 C 418.890625 997.195313 408.890625 997.195313 408.890625 990.527344 C 408.890625 983.859375 418.890625 983.859375 418.890625 990.527344 "></path>
<path style=" stroke:none;fill-rule:nonzero;fill:rgb(6.27451%,30.588235%,54.509804%);fill-opacity:1;" d="M 347.886719 945.199219 C 347.886719 951.863281 337.886719 951.863281 337.886719 945.199219 C 337.886719 938.53125 347.886719 938.53125 347.886719 945.199219 "></path>
<path style="fill:none;stroke-width:4;stroke-linecap:round;stroke-linejoin:miter;stroke:rgb(6.27451%,30.588235%,54.509804%);stroke-opacity:1;stroke-miterlimit:10;" d="M 461.476563 960.035156 L 438.660156 879.894531 "></path>
<path style=" stroke:none;fill-rule:nonzero;fill:rgb(6.27451%,30.588235%,54.509804%);fill-opacity:1;" d="M 466.476563 960.035156 C 466.476563 966.699219 456.476563 966.699219 456.476563 960.035156 C 456.476563 953.367188 466.476563 953.367188 466.476563 960.035156 "></path>
<path style=" stroke:none;fill-rule:nonzero;fill:rgb(6.27451%,30.588235%,54.509804%);fill-opacity:1;" d="M 443.660156 879.894531 C 443.660156 886.5625 433.660156 886.5625 433.660156 879.894531 C 433.660156 873.226563 443.660156 873.226563 443.660156 879.894531 "></path>
<path style="fill:none;stroke-width:4;stroke-linecap:round;stroke-linejoin:miter;stroke:rgb(6.27451%,30.588235%,54.509804%);stroke-opacity:1;stroke-miterlimit:10;" d="M 361.609375 887.652344 L 365.65625 777.695313 "></path>
<path style=" stroke:none;fill-rule:nonzero;fill:rgb(6.27451%,30.588235%,54.509804%);fill-opacity:1;" d="M 366.609375 887.652344 C 366.609375 894.320313 356.609375 894.320313 356.609375 887.652344 C 356.609375 880.988281 366.609375 880.988281 366.609375 887.652344 "></path>
<path style=" stroke:none;fill-rule:nonzero;fill:rgb(6.27451%,30.588235%,54.509804%);fill-opacity:1;" d="M 370.65625 777.695313 C 370.65625 784.359375 360.65625 784.359375 360.65625 777.695313 C 360.65625 771.027344 370.65625 771.027344 370.65625 777.695313 "></path>
<path style="fill:none;stroke-width:4;stroke-linecap:round;stroke-linejoin:miter;stroke:rgb(6.27451%,30.588235%,54.509804%);stroke-opacity:1;stroke-miterlimit:10;" d="M 445.359375 782.195313 L 474.113281 728.757813 "></path>
<path style=" stroke:none;fill-rule:nonzero;fill:rgb(6.27451%,30.588235%,54.509804%);fill-opacity:1;" d="M 450.359375 782.195313 C 450.359375 788.863281 440.359375 788.863281 440.359375 782.195313 C 440.359375 775.53125 450.359375 775.53125 450.359375 782.195313 "></path>
<path style=" stroke:none;fill-rule:nonzero;fill:rgb(6.27451%,30.588235%,54.509804%);fill-opacity:1;" d="M 479.113281 728.757813 C 479.113281 735.425781 469.113281 735.425781 469.113281 728.757813 C 469.113281 722.09375 479.113281 722.09375 479.113281 728.757813 "></path>
<path style="fill:none;stroke-width:4;stroke-linecap:round;stroke-linejoin:miter;stroke:rgb(6.27451%,30.588235%,54.509804%);stroke-opacity:1;stroke-miterlimit:10;" d="M 310.0625 753.890625 L 238.703125 694.082031 "></path>
<path style=" stroke:none;fill-rule:nonzero;fill:rgb(6.27451%,30.588235%,54.509804%);fill-opacity:1;" d="M 315.0625 753.890625 C 315.0625 760.558594 305.0625 760.558594 305.0625 753.890625 C 305.0625 747.222656 315.0625 747.222656 315.0625 753.890625 "></path>
<path style=" stroke:none;fill-rule:nonzero;fill:rgb(6.27451%,30.588235%,54.509804%);fill-opacity:1;" d="M 243.703125 694.082031 C 243.703125 700.746094 233.703125 700.746094 233.703125 694.082031 C 233.703125 687.414063 243.703125 687.414063 243.703125 694.082031 "></path>
<path style="fill:none;stroke-width:4;stroke-linecap:round;stroke-linejoin:miter;stroke:rgb(6.27451%,30.588235%,54.509804%);stroke-opacity:1;stroke-miterlimit:10;" d="M 498.464844 630.441406 L 466.953125 619.566406 "></path>
<path style=" stroke:none;fill-rule:nonzero;fill:rgb(6.27451%,30.588235%,54.509804%);fill-opacity:1;" d="M 503.464844 630.441406 C 503.464844 637.109375 493.464844 637.109375 493.464844 630.441406 C 493.464844 623.773438 503.464844 623.773438 503.464844 630.441406 "></path>
<path style=" stroke:none;fill-rule:nonzero;fill:rgb(6.27451%,30.588235%,54.509804%);fill-opacity:1;" d="M 471.953125 619.566406 C 471.953125 626.234375 461.953125 626.234375 461.953125 619.566406 C 461.953125 612.902344 471.953125 612.902344 471.953125 619.566406 "></path>
</g>
</svg>