<svg xmlns="http://www.w3.org/2000/svg" xmlns:xlink="http://www.w3.org/1999/xlink" width="1760pt" height="320pt" viewBox="0 0 1760 320" version="1.1">
<g id="surface41">
<rect x="0" y="0" width="1760" height="320" style="fill:rgb(98.039216%,92.156863%,84.313725%);fill-opacity:1;stroke:none;"></rect>
<path style="fill:none;stroke-width:4;stroke-linecap:round;stroke-linejoin:miter;stroke:rgb(6.27451%,30.588235%,54.509804%);stroke-opacity:1;stroke-miterlimit:10;" d="M 415.589844 89 L 400 98 L 384.410156 89 L 384.410156 71 "></path>
<path style=" stroke:none;fill-rule:nonzero;fill:rgb(6.27451%,30.588235%,54.509804%);fill-opacity:1;" d="M 405 98 C 405 104.667969 395 104.667969 395 98 C 395 91.332031 405 91.332031 405 98 "></path>
<path style=" stroke:none;fill-rule:nonzero;fill:rgb(6.27451%,30.588235%,54.509804%);fill-opacity:1;" d="M 389.410156 89 C 389.410156 95.667969 379.410156 95.667969 379.410156 89 C 379.410156 82.332031 389.410156 82.332031 389.410156 89 "></path>
<path style="fill:none;stroke-width:4;stroke-linecap:round;stroke-linejoin:miter;stroke:rgb(6.27451%,30.588235%,54.509804%);stroke-opacity:1;stroke-miterlimit:10;" d="M 415.589844 89 L 400 98 L 409 113.589844 L 424.589844 104.589844 Z M 415.589844 89 "></path>
<path style=" stroke:none;fill-rule:nonzero;fill:rgb(6.27451%,30.588235%,54.509804%);fill-opacity:1;" d="M 420.589844 89 C 420.589844 95.667969 410.589844 95.667969 410.589844 89 C 410.589844 82.332031 420.589844 82.332031 420.589844 89 "></path>
<path style=" stroke:none;fill-rule:nonzero;fill:rgb(6.27451%,30.588235%,54.509804%);fill-opacity:1;" d="M 405 98 C 405 104.667969 395 104.667969 395 98 C 395 91.332031 405 91.332031 405 98 "></path>
<path style=" stroke:none;fill-rule:nonzero;fill:rgb(6.27451%,30.588235%,54.509804%);fill-opacity:1;" d="M 414 113.589844 C 414 120.253906 404 120.253906 404 113.589844 C 404 106.921875 414 106.921875 414 113.589844 "></path>
<path style=" stroke:none;fill-rule:nonzero;fill:rgb(6.27451%,30.588235%,54.509804%);fill-opacity:1;" d="M 429.589844 104.589844 C 429.589844 111.253906 419.589844 111.253906 419.589844 104.589844 C 419.589844 97.921875 429.589844 97.921875 429.589844 104.589844 "></path>
<path style="fill:none;stroke-width:4;stroke-linecap:round;stroke-linejoin:miter;stroke:rgb(6.27451%,30.588235%,54.509804%);stroke-opacity:1;stroke-miterlimit:10;" d="M 487 87 L 473 87 L 473 73 L 487 73 Z M 487 87 "></path>
<path style=" stroke:none;fill-rule:nonzero;fill:rgb(6.27451%,30.588235%,54.509804%);fill-opacity:1;" d="M 492 87 C 492 93.667969 482 93.667969 482 87 C 482 80.332031 492 80.332031 492 87 "></path>
<path style=" stroke:none;fill-rule:nonzero;fill:rgb(6.27451%,30.588235%,54.509804%);fill-opacity:1;" d="M 478 87 C 478 93.667969 468 93.667969 468 87 C 468 80.332031 478 80.332031 478 87 "></path>
<path style=" stroke:none;fill-rule:nonzero;fill:rgb(6.27451%,30.588235%,54.509804%);fill-opacity:1;" d="M 478 73 C 478 79.667969 468 79.667969 468 73 C 468 66.332031 478 66.332031 478 73 "></path>
<path style=" stroke:none;fill-rule:nonzero;fill:rgb(6.27451%,30.588235%,54.509804%);fill-opacity:1;" d="M 492 73 C 492 79.667969 482 79.667969 482 73 C 482 66.332031 492 66.332031 492 73 "></path>
<path style="fill:none;stroke-width:4;stroke-linecap:round;stroke-linejoin:miter;stroke:rgb(6.27451%,30.588235%,54.509804%);stroke-opacity:1;stroke-miterlimit:10;" d="M 473 73 L 487 73 L 487 59 L 473 59 Z M 473 73 "></path>
<path style=" stroke:none;fill-rule:nonzero;fill:rgb(6.27451%,30.588235%,54.509804%);fill-opacity:1;" d="M 478 73 C 478 79.667969 468 79.667969 468 73 C 468 66.332031 478 66.332031 478 73 "></path>
<path style=" stroke:none;fill-rule:nonzero;fill:rgb(6.27451%,30.588235%,54.509804%);fill-opacity:1;" d="M 492 73 C 492 79.667969 482 79.667969 482 73 C 482 66.332031 492 66.332031 492 73 "></path>
<path style=" stroke:none;fill-rule:nonzero;fill:rgb(6.27451%,30.588235%,54.509804%);fill-opacity:1;" d="M 492 59 C 492 65.667969 482 65.667969 482 59 C 482 52.332031 492 52.332031 492 59 "></path>
<path style=" stroke:none;fill-rule:nonzero;fill:rgb(6.27451%,30.588235%,54.509804%);fill-opacity:1;" d="M 478 59 C 478 65.667969 468 65.667969 468 59 C 468 52.332031 478 52.332031 478 59 "></path>
<path style="fill:none;stroke-width:4;stroke-linecap:round;stroke-linejoin:miter;stroke:rgb(6.27451%,30.588235%,54.509804%);stroke-opacity:1;stroke-miterlimit:10;" d="M 565.257813 96.179688 L 546.234375 90 L 546.234375 70 L 565.257813 63.820313 L 577.011719 80 Z M 565.257813 96.179688 "></path>
<path style=" stroke:none;fill-rule:nonzero;fill:rgb(6.27451%,30.588235%,54.509804%);fill-opacity:1;" d="M 570.257813 96.179688 C 570.257813 102.847656 560.257813 102.847656 560.257813 96.179688 C 560.257813 89.515625 570.257813 89.515625 570.257813 96.179688 "></path>
<path style=" stroke:none;fill-rule:nonzero;fill:rgb(6.27451%,30.588235%,54.509804%);fill-opacity:1;" d="M 551.234375 90 C 551.234375 96.667969 541.234375 96.667969 541.234375 90 C 541.234375 83.332031 551.234375 83.332031 551.234375 90 "></path>
<path style=" stroke:none;fill-rule:nonzero;fill:rgb(6.27451%,30.588235%,54.509804%);fill-opacity:1;" d="M 551.234375 70 C 551.234375 76.667969 541.234375 76.667969 541.234375 70 C 541.234375 63.332031 551.234375 63.332031 551.234375 70 "></path>
<path style=" stroke:none;fill-rule:nonzero;fill:rgb(6.27451%,30.588235%,54.509804%);fill-opacity:1;" d="M 570.257813 63.820313 C 570.257813 70.484375 560.257813 70.484375 560.257813 63.820313 C 560.257813 57.152344 570.257813 57.152344 570.257813 63.820313 "></path>
<path style=" stroke:none;fill-rule:nonzero;fill:rgb(6.27451%,30.588235%,54.509804%);fill-opacity:1;" d="M 582.011719 80 C 582.011719 86.667969 572.011719 86.667969 572.011719 80 C 572.011719 73.332031 582.011719 73.332031 582.011719 80 "></path>
<path style="fill:none;stroke-width:4;stroke-linecap:round;stroke-linejoin:miter;stroke:rgb(6.27451%,30.588235%,54.509804%);stroke-opacity:1;stroke-miterlimit:10;" d="M 800 98 L 784.410156 89 L 784.410156 71 L 800 62 L 815.589844 71 "></path>
<path style=" stroke:none;fill-rule:nonzero;fill:rgb(6.27451%,30.588235%,54.509804%);fill-opacity:1;" d="M 789.410156 89 C 789.410156 95.667969 779.410156 95.667969 779.410156 89 C 779.410156 82.332031 789.410156 82.332031 789.410156 89 "></path>
<path style=" stroke:none;fill-rule:nonzero;fill:rgb(6.27451%,30.588235%,54.509804%);fill-opacity:1;" d="M 789.410156 71 C 789.410156 77.667969 779.410156 77.667969 779.410156 71 C 779.410156 64.332031 789.410156 64.332031 789.410156 71 "></path>
<path style=" stroke:none;fill-rule:nonzero;fill:rgb(6.27451%,30.588235%,54.509804%);fill-opacity:1;" d="M 805 62 C 805 68.667969 795 68.667969 795 62 C 795 55.332031 805 55.332031 805 62 "></path>
<path style="fill:none;stroke-width:4;stroke-linecap:round;stroke-linejoin:miter;stroke:rgb(6.27451%,30.588235%,54.509804%);stroke-opacity:1;stroke-miterlimit:10;" d="M 800 62 L 815.589844 71 L 824.589844 55.410156 L 809 46.410156 Z M 800 62 "></path>
<path style=" stroke:none;fill-rule:nonzero;fill:rgb(6.27451%,30.588235%,54.509804%);fill-opacity:1;" d="M 805 62 C 805 68.667969 795 68.667969 795 62 C 795 55.332031 805 55.332031 805 62 "></path>
<path style=" stroke:none;fill-rule:nonzero;fill:rgb(6.27451%,30.588235%,54.509804%);fill-opacity:1;" d="M 820.589844 71 C 820.589844 77.667969 810.589844 77.667969 810.589844 71 C 810.589844 64.332031 820.589844 64.332031 820.589844 71 "></path>
<path style=" stroke:none;fill-rule:nonzero;fill:rgb(6.27451%,30.588235%,54.509804%);fill-opacity:1;" d="M 829.589844 55.410156 C 829.589844 62.078125 819.589844 62.078125 819.589844 55.410156 C 819.589844 48.746094 829.589844 48.746094 829.589844 55.410156 "></path>
<path style=" stroke:none;fill-rule:nonzero;fill:rgb(6.27451%,30.588235%,54.509804%);fill-opacity:1;" d="M 814 46.410156 C 814 53.078125 804 53.078125 804 46.410156 C 804 39.746094 814 39.746094 814 46.410156 "></path>
<path style="fill:none;stroke-width:4;stroke-linecap:round;stroke-linejoin:miter;stroke:rgb(6.27451%,30.588235%,54.509804%);stroke-opacity:1;stroke-miterlimit:10;" d="M 890 90 L 870 90 L 870 70 L 890 70 Z M 890 90 "></path>
<path style=" stroke:none;fill-rule:nonzero;fill:rgb(6.27451%,30.588235%,54.509804%);fill-opacity:1;" d="M 895 90 C 895 96.667969 885 96.667969 885 90 C 885 83.332031 895 83.332031 895 90 "></path>
<path style=" stroke:none;fill-rule:nonzero;fill:rgb(6.27451%,30.588235%,54.509804%);fill-opacity:1;" d="M 875 90 C 875 96.667969 865 96.667969 865 90 C 865 83.332031 875 83.332031 875 90 "></path>
<path style=" stroke:none;fill-rule:nonzero;fill:rgb(6.27451%,30.588235%,54.509804%);fill-opacity:1;" d="M 875 70 C 875 76.667969 865 76.667969 865 70 C 865 63.332031 875 63.332031 875 70 "></path>
<path style=" stroke:none;fill-rule:nonzero;fill:rgb(6.27451%,30.588235%,54.509804%);fill-opacity:1;" d="M 895 70 C 895 76.667969 885 76.667969 885 70 C 885 63.332031 895 63.332031 895 70 "></path>
<path style="fill:none;stroke-width:4;stroke-linecap:round;stroke-linejoin:miter;stroke:rgb(6.27451%,30.588235%,54.509804%);stroke-opacity:1;stroke-miterlimit:10;" d="M 900.605469 59.394531 L 890 70 L 890 90 L 900.605469 100.605469 "></path>
<path style=" stroke:none;fill-rule:nonzero;fill:rgb(6.27451%,30.588235%,54.509804%);fill-opacity:1;" d="M 895 70 C 895 76.667969 885 76.667969 885 70 C 885 63.332031 895 63.332031 895 70 "></path>
<path style=" stroke:none;fill-rule:nonzero;fill:rgb(6.27451%,30.588235%,54.509804%);fill-opacity:1;" d="M 895 90 C 895 96.667969 885 96.667969 885 90 C 885 83.332031 895 83.332031 895 90 "></path>
<path style="fill:none;stroke-width:4;stroke-linecap:round;stroke-linejoin:miter;stroke:rgb(6.27451%,30.588235%,54.509804%);stroke-opacity:1;stroke-miterlimit:10;" d="M 1050 90 L 1030 90 L 1030 70 L 1050 70 "></path>
<path style=" stroke:none;fill-rule:nonzero;fill:rgb(6.27451%,30.588235%,54.509804%);fill-opacity:1;" d="M 1035 90 C 1035 96.667969 1025 96.667969 1025 90 C 1025 83.332031 1035 83.332031 1035 90 "></path>
<path style=" stroke:none;fill-rule:nonzero;fill:rgb(6.27451%,30.588235%,54.509804%);fill-opacity:1;" d="M 1035 70 C 1035 76.667969 1025 76.667969 1025 70 C 1025 63.332031 1035 63.332031 1035 70 "></path>
<path style="fill:none;stroke-width:4;stroke-linecap:round;stroke-linejoin:miter;stroke:rgb(6.27451%,30.588235%,54.509804%);stroke-opacity:1;stroke-miterlimit:10;" d="M 1030 90 L 1019.394531 100.605469 "></path>
<path style="fill:none;stroke-width:4;stroke-linecap:round;stroke-linejoin:miter;stroke:rgb(6.27451%,30.588235%,54.509804%);stroke-opacity:1;stroke-miterlimit:10;" d="M 1120 100 L 1102.679688 90 L 1102.679688 70 "></path>
<path style=" stroke:none;fill-rule:nonzero;fill:rgb(6.27451%,30.588235%,54.509804%);fill-opacity:1;" d="M 1107.679688 90 C 1107.679688 96.667969 1097.679688 96.667969 1097.679688 90 C 1097.679688 83.332031 1107.679688 83.332031 1107.679688 90 "></path>
<path style="fill:none;stroke-width:4;stroke-linecap:round;stroke-linejoin:miter;stroke:rgb(6.27451%,30.588235%,54.509804%);stroke-opacity:1;stroke-miterlimit:10;" d="M 1200 98 L 1184.410156 89 L 1184.410156 71 L 1200 62 L 1215.589844 71 "></path>
<path style=" stroke:none;fill-rule:nonzero;fill:rgb(6.27451%,30.588235%,54.509804%);fill-opacity:1;" d="M 1189.410156 89 C 1189.410156 95.667969 1179.410156 95.667969 1179.410156 89 C 1179.410156 82.332031 1189.410156 82.332031 1189.410156 89 "></path>
<path style=" stroke:none;fill-rule:nonzero;fill:rgb(6.27451%,30.588235%,54.509804%);fill-opacity:1;" d="M 1189.410156 71 C 1189.410156 77.667969 1179.410156 77.667969 1179.410156 71 C 1179.410156 64.332031 1189.410156 64.332031 1189.410156 71 "></path>
<path style=" stroke:none;fill-rule:nonzero;fill:rgb(6.27451%,30.588235%,54.509804%);fill-opacity:1;" d="M 1205 62 C 1205 68.667969 1195 68.667969 1195 62 C 1195 55.332031 1205 55.332031 1205 62 "></path>
<path style="fill:none;stroke-width:4;stroke-linecap:round;stroke-linejoin:miter;stroke:rgb(6.27451%,30.588235%,54.509804%);stroke-opacity:1;stroke-miterlimit:10;" d="M 1200 62 L 1215.589844 71 L 1224.589844 55.410156 L 1209 46.410156 Z M 1200 62 "></path>
<path style=" stroke:none;fill-rule:nonzero;fill:rgb(6.27451%,30.588235%,54.509804%);fill-opacity:1;" d="M 1205 62 C 1205 68.667969 1195 68.667969 1195 62 C 1195 55.332031 1205 55.332031 1205 62 "></path>
<path style=" stroke:none;fill-rule:nonzero;fill:rgb(6.27451%,30.588235%,54.509804%);fill-opacity:1;" d="M 1220.589844 71 C 1220.589844 77.667969 1210.589844 77.667969 1210.589844 71 C 1210.589844 64.332031 1220.589844 64.332031 1220.589844 71 "></path>
<path style=" stroke:none;fill-rule:nonzero;fill:rgb(6.27451%,30.588235%,54.509804%);fill-opacity:1;" d="M 1229.589844 55.410156 C 1229.589844 62.078125 1219.589844 62.078125 1219.589844 55.410156 C 1219.589844 48.746094 1229.589844 48.746094 1229.589844 55.410156 "></path>
<path style=" stroke:none;fill-rule:nonzero;fill:rgb(6.27451%,30.588235%,54.509804%);fill-opacity:1;" d="M 1214 46.410156 C 1214 53.078125 1204 53.078125 1204 46.410156 C 1204 39.746094 1214 39.746094 1214 46.410156 "></path>
<path style="fill:none;stroke-width:4;stroke-linecap:round;stroke-linejoin:miter;stroke:rgb(6.27451%,30.588235%,54.509804%);stroke-opacity:1;stroke-miterlimit:10;" d="M 1290 70 L 1290 90 L 1270 90 L 1270 70 "></path>
<path style=" stroke:none;fill-rule:nonzero;fill:rgb(6.27451%,30.588235%,54.509804%);fill-opacity:1;" d="M 1295 90 C 1295 96.667969 1285 96.667969 1285 90 C 1285 83.332031 1295 83.332031 1295 90 "></path>
<path style=" stroke:none;fill-rule:nonzero;fill:rgb(6.27451%,30.588235%,54.509804%);fill-opacity:1;" d="M 1275 90 C 1275 96.667969 1265 96.667969 1265 90 C 1265 83.332031 1275 83.332031 1275 90 "></path>
<path style="fill:none;stroke-width:4;stroke-linecap:round;stroke-linejoin:miter;stroke:rgb(6.27451%,30.588235%,54.509804%);stroke-opacity:1;stroke-miterlimit:10;" d="M 1270 90 L 1259.394531 100.605469 "></path>
<path style="fill:none;stroke-width:4;stroke-linecap:round;stroke-linejoin:miter;stroke:rgb(6.27451%,30.588235%,54.509804%);stroke-opacity:1;stroke-miterlimit:10;" d="M 1360 100 L 1342.679688 90 L 1342.679688 70 "></path>
<path style=" stroke:none;fill-rule:nonzero;fill:rgb(6.27451%,30.588235%,54.509804%);fill-opacity:1;" d="M 1347.679688 90 C 1347.679688 96.667969 1337.679688 96.667969 1337.679688 90 C 1337.679688 83.332031 1347.679688 83.332031 1347.679688 90 "></path>
<path style="fill:none;stroke-width:4;stroke-linecap:round;stroke-linejoin:miter;stroke:rgb(6.27451%,30.588235%,54.509804%);stroke-opacity:1;stroke-miterlimit:10;" d="M 1445.257813 96.179688 L 1426.234375 90 L 1426.234375 70 L 1445.257813 63.820313 L 1457.011719 80 Z M 1445.257813 96.179688 "></path>
<path style=" stroke:none;fill-rule:nonzero;fill:rgb(6.27451%,30.588235%,54.509804%);fill-opacity:1;" d="M 1450.257813 96.179688 C 1450.257813 102.847656 1440.257813 102.847656 1440.257813 96.179688 C 1440.257813 89.515625 1450.257813 89.515625 1450.257813 96.179688 "></path>
<path style=" stroke:none;fill-rule:nonzero;fill:rgb(6.27451%,30.588235%,54.509804%);fill-opacity:1;" d="M 1431.234375 90 C 1431.234375 96.667969 1421.234375 96.667969 1421.234375 90 C 1421.234375 83.332031 1431.234375 83.332031 1431.234375 90 "></path>
<path style=" stroke:none;fill-rule:nonzero;fill:rgb(6.27451%,30.588235%,54.509804%);fill-opacity:1;" d="M 1431.234375 70 C 1431.234375 76.667969 1421.234375 76.667969 1421.234375 70 C 1421.234375 63.332031 1431.234375 63.332031 1431.234375 70 "></path>
<path style=" stroke:none;fill-rule:nonzero;fill:rgb(6.27451%,30.588235%,54.509804%);fill-opacity:1;" d="M 1450.257813 63.820313 C 1450.257813 70.484375 1440.257813 70.484375 1440.257813 63.820313 C 1440.257813 57.152344 1450.257813 57.152344 1450.257813 63.820313 "></path>
<path style=" stroke:none;fill-rule:nonzero;fill:rgb(6.27451%,30.588235%,54.509804%);fill-opacity:1;" d="M 1462.011719 80 C 1462.011719 86.667969 1452.011719 86.667969 1452.011719 80 C 1452.011719 73.332031 1462.011719 73.332031 1462.011719 80 "></path>
<path style="fill:none;stroke-width:4;stroke-linecap:round;stroke-linejoin:miter;stroke:rgb(6.27451%,30.588235%,54.509804%);stroke-opacity:1;stroke-miterlimit:10;" d="M 1445.257813 96.179688 L 1449.890625 110.445313 "></path>
<path style="fill:none;stroke-width:4;stroke-linecap:round;stroke-linejoin:miter;stroke:rgb(6.27451%,30.588235%,54.509804%);stroke-opacity:1;stroke-miterlimit:10;" d="M 1525.257813 96.179688 L 1506.234375 90 L 1506.234375 70 L 1525.257813 63.820313 L 1537.011719 80 Z M 1525.257813 96.179688 "></path>
<path style=" stroke:none;fill-rule:nonzero;fill:rgb(6.27451%,30.588235%,54.509804%);fill-opacity:1;" d="M 1530.257813 96.179688 C 1530.257813 102.847656 1520.257813 102.847656 1520.257813 96.179688 C 1520.257813 89.515625 1530.257813 89.515625 1530.257813 96.179688 "></path>
<path style=" stroke:none;fill-rule:nonzero;fill:rgb(6.27451%,30.588235%,54.509804%);fill-opacity:1;" d="M 1511.234375 90 C 1511.234375 96.667969 1501.234375 96.667969 1501.234375 90 C 1501.234375 83.332031 1511.234375 83.332031 1511.234375 90 "></path>
<path style=" stroke:none;fill-rule:nonzero;fill:rgb(6.27451%,30.588235%,54.509804%);fill-opacity:1;" d="M 1511.234375 70 C 1511.234375 76.667969 1501.234375 76.667969 1501.234375 70 C 1501.234375 63.332031 1511.234375 63.332031 1511.234375 70 "></path>
<path style=" stroke:none;fill-rule:nonzero;fill:rgb(6.27451%,30.588235%,54.509804%);fill-opacity:1;" d="M 1530.257813 63.820313 C 1530.257813 70.484375 1520.257813 70.484375 1520.257813 63.820313 C 1520.257813 57.152344 1530.257813 57.152344 1530.257813 63.820313 "></path>
<path style=" stroke:none;fill-rule:nonzero;fill:rgb(6.27451%,30.588235%,54.509804%);fill-opacity:1;" d="M 1542.011719 80 C 1542.011719 86.667969 1532.011719 86.667969 1532.011719 80 C 1532.011719 73.332031 1542.011719 73.332031 1542.011719 80 "></path>
<path style="fill:none;stroke-width:4;stroke-linecap:round;stroke-linejoin:miter;stroke:rgb(6.27451%,30.588235%,54.509804%);stroke-opacity:1;stroke-miterlimit:10;" d="M 1525.257813 63.820313 L 1529.890625 49.554688 "></path>
<path style="fill:none;stroke-width:4;stroke-linecap:round;stroke-linejoin:miter;stroke:rgb(6.27451%,30.588235%,54.509804%);stroke-opacity:1;stroke-miterlimit:10;" d="M 1697.320313 90 L 1680 100 L 1662.679688 90 L 1662.679688 70 L 1680 60 L 1697.320313 70 "></path>
<path style=" stroke:none;fill-rule:nonzero;fill:rgb(6.27451%,30.588235%,54.509804%);fill-opacity:1;" d="M 1685 100 C 1685 106.667969 1675 106.667969 1675 100 C 1675 93.332031 1685 93.332031 1685 100 "></path>
<path style=" stroke:none;fill-rule:nonzero;fill:rgb(6.27451%,30.588235%,54.509804%);fill-opacity:1;" d="M 1667.679688 90 C 1667.679688 96.667969 1657.679688 96.667969 1657.679688 90 C 1657.679688 83.332031 1667.679688 83.332031 1667.679688 90 "></path>
<path style=" stroke:none;fill-rule:nonzero;fill:rgb(6.27451%,30.588235%,54.509804%);fill-opacity:1;" d="M 1667.679688 70 C 1667.679688 76.667969 1657.679688 76.667969 1657.679688 70 C 1657.679688 63.332031 1667.679688 63.332031 1667.679688 70 "></path>
<path style=" stroke:none;fill-rule:nonzero;fill:rgb(6.27451%,30.588235%,54.509804%);fill-opacity:1;" d="M 1685 60 C 1685 66.667969 1675 66.667969 1675 60 C 1675 53.332031 1685 53.332031 1685 60 "></path>
<path style="fill:none;stroke-width:4;stroke-linecap:round;stroke-linejoin:miter;stroke:rgb(6.27451%,30.588235%,54.509804%);stroke-opacity:1;stroke-miterlimit:10;" d="M 90 170 L 70 170 L 70 150 L 90 150 Z M 90 170 "></path>
<path style=" stroke:none;fill-rule:nonzero;fill:rgb(6.27451%,30.588235%,54.509804%);fill-opacity:1;" d="M 95 170 C 95 176.667969 85 176.667969 85 170 C 85 163.332031 95 163.332031 95 170 "></path>
<path style=" stroke:none;fill-rule:nonzero;fill:rgb(6.27451%,30.588235%,54.509804%);fill-opacity:1;" d="M 75 170 C 75 176.667969 65 176.667969 65 170 C 65 163.332031 75 163.332031 75 170 "></path>
<path style=" stroke:none;fill-rule:nonzero;fill:rgb(6.27451%,30.588235%,54.509804%);fill-opacity:1;" d="M 75 150 C 75 156.667969 65 156.667969 65 150 C 65 143.332031 75 143.332031 75 150 "></path>
<path style=" stroke:none;fill-rule:nonzero;fill:rgb(6.27451%,30.588235%,54.509804%);fill-opacity:1;" d="M 95 150 C 95 156.667969 85 156.667969 85 150 C 85 143.332031 95 143.332031 95 150 "></path>
<path style="fill:none;stroke-width:4;stroke-linecap:round;stroke-linejoin:miter;stroke:rgb(6.27451%,30.588235%,54.509804%);stroke-opacity:1;stroke-miterlimit:10;" d="M 255.589844 169 L 240 178 L 224.410156 169 L 224.410156 151 "></path>
<path style=" stroke:none;fill-rule:nonzero;fill:rgb(6.27451%,30.588235%,54.509804%);fill-opacity:1;" d="M 245 178 C 245 184.667969 235 184.667969 235 178 C 235 171.332031 245 171.332031 245 178 "></path>
<path style=" stroke:none;fill-rule:nonzero;fill:rgb(6.27451%,30.588235%,54.509804%);fill-opacity:1;" d="M 229.410156 169 C 229.410156 175.667969 219.410156 175.667969 219.410156 169 C 219.410156 162.332031 229.410156 162.332031 229.410156 169 "></path>
<path style="fill:none;stroke-width:4;stroke-linecap:round;stroke-linejoin:miter;stroke:rgb(6.27451%,30.588235%,54.509804%);stroke-opacity:1;stroke-miterlimit:10;" d="M 255.589844 169 L 240 178 L 249 193.589844 L 264.589844 184.589844 Z M 255.589844 169 "></path>
<path style=" stroke:none;fill-rule:nonzero;fill:rgb(6.27451%,30.588235%,54.509804%);fill-opacity:1;" d="M 260.589844 169 C 260.589844 175.667969 250.589844 175.667969 250.589844 169 C 250.589844 162.332031 260.589844 162.332031 260.589844 169 "></path>
<path style=" stroke:none;fill-rule:nonzero;fill:rgb(6.27451%,30.588235%,54.509804%);fill-opacity:1;" d="M 245 178 C 245 184.667969 235 184.667969 235 178 C 235 171.332031 245 171.332031 245 178 "></path>
<path style=" stroke:none;fill-rule:nonzero;fill:rgb(6.27451%,30.588235%,54.509804%);fill-opacity:1;" d="M 254 193.589844 C 254 200.253906 244 200.253906 244 193.589844 C 244 186.921875 254 186.921875 254 193.589844 "></path>
<path style=" stroke:none;fill-rule:nonzero;fill:rgb(6.27451%,30.588235%,54.509804%);fill-opacity:1;" d="M 269.589844 184.589844 C 269.589844 191.253906 259.589844 191.253906 259.589844 184.589844 C 259.589844 177.921875 269.589844 177.921875 269.589844 184.589844 "></path>
<path style="fill:none;stroke-width:4;stroke-linecap:round;stroke-linejoin:miter;stroke:rgb(6.27451%,30.588235%,54.509804%);stroke-opacity:1;stroke-miterlimit:10;" d="M 325.257813 176.179688 L 306.234375 170 L 306.234375 150 L 325.257813 143.820313 L 337.011719 160 Z M 325.257813 176.179688 "></path>
<path style=" stroke:none;fill-rule:nonzero;fill:rgb(6.27451%,30.588235%,54.509804%);fill-opacity:1;" d="M 330.257813 176.179688 C 330.257813 182.847656 320.257813 182.847656 320.257813 176.179688 C 320.257813 169.515625 330.257813 169.515625 330.257813 176.179688 "></path>
<path style=" stroke:none;fill-rule:nonzero;fill:rgb(6.27451%,30.588235%,54.509804%);fill-opacity:1;" d="M 311.234375 170 C 311.234375 176.667969 301.234375 176.667969 301.234375 170 C 301.234375 163.332031 311.234375 163.332031 311.234375 170 "></path>
<path style=" stroke:none;fill-rule:nonzero;fill:rgb(6.27451%,30.588235%,54.509804%);fill-opacity:1;" d="M 311.234375 150 C 311.234375 156.667969 301.234375 156.667969 301.234375 150 C 301.234375 143.332031 311.234375 143.332031 311.234375 150 "></path>
<path style=" stroke:none;fill-rule:nonzero;fill:rgb(6.27451%,30.588235%,54.509804%);fill-opacity:1;" d="M 330.257813 143.820313 C 330.257813 150.484375 320.257813 150.484375 320.257813 143.820313 C 320.257813 137.152344 330.257813 137.152344 330.257813 143.820313 "></path>
<path style=" stroke:none;fill-rule:nonzero;fill:rgb(6.27451%,30.588235%,54.509804%);fill-opacity:1;" d="M 342.011719 160 C 342.011719 166.667969 332.011719 166.667969 332.011719 160 C 332.011719 153.332031 342.011719 153.332031 342.011719 160 "></path>
<path style="fill:none;stroke-width:4;stroke-linecap:round;stroke-linejoin:miter;stroke:rgb(6.27451%,30.588235%,54.509804%);stroke-opacity:1;stroke-miterlimit:10;" d="M 337.011719 160 L 352.011719 160 "></path>
<path style="fill:none;stroke-width:4;stroke-linecap:round;stroke-linejoin:miter;stroke:rgb(6.27451%,30.588235%,54.509804%);stroke-opacity:1;stroke-miterlimit:10;" d="M 390 170 L 390 150 L 410 150 L 410 170 "></path>
<path style=" stroke:none;fill-rule:nonzero;fill:rgb(6.27451%,30.588235%,54.509804%);fill-opacity:1;" d="M 395 150 C 395 156.667969 385 156.667969 385 150 C 385 143.332031 395 143.332031 395 150 "></path>
<path style=" stroke:none;fill-rule:nonzero;fill:rgb(6.27451%,30.588235%,54.509804%);fill-opacity:1;" d="M 415 150 C 415 156.667969 405 156.667969 405 150 C 405 143.332031 415 143.332031 415 150 "></path>
<path style="fill:none;stroke-width:4;stroke-linecap:round;stroke-linejoin:miter;stroke:rgb(6.27451%,30.588235%,54.509804%);stroke-opacity:1;stroke-miterlimit:10;" d="M 379.394531 139.394531 L 390 150 L 410 150 L 420.605469 139.394531 "></path>
<path style=" stroke:none;fill-rule:nonzero;fill:rgb(6.27451%,30.588235%,54.509804%);fill-opacity:1;" d="M 395 150 C 395 156.667969 385 156.667969 385 150 C 385 143.332031 395 143.332031 395 150 "></path>
<path style=" stroke:none;fill-rule:nonzero;fill:rgb(6.27451%,30.588235%,54.509804%);fill-opacity:1;" d="M 415 150 C 415 156.667969 405 156.667969 405 150 C 405 143.332031 415 143.332031 415 150 "></path>
<path style="fill:none;stroke-width:4;stroke-linecap:round;stroke-linejoin:miter;stroke:rgb(6.27451%,30.588235%,54.509804%);stroke-opacity:1;stroke-miterlimit:10;" d="M 650 170 L 630 170 L 630 150 L 650 150 "></path>
<path style=" stroke:none;fill-rule:nonzero;fill:rgb(6.27451%,30.588235%,54.509804%);fill-opacity:1;" d="M 635 170 C 635 176.667969 625 176.667969 625 170 C 625 163.332031 635 163.332031 635 170 "></path>
<path style=" stroke:none;fill-rule:nonzero;fill:rgb(6.27451%,30.588235%,54.509804%);fill-opacity:1;" d="M 635 150 C 635 156.667969 625 156.667969 625 150 C 625 143.332031 635 143.332031 635 150 "></path>
<path style="fill:none;stroke-width:4;stroke-linecap:round;stroke-linejoin:miter;stroke:rgb(6.27451%,30.588235%,54.509804%);stroke-opacity:1;stroke-miterlimit:10;" d="M 737.320313 170 L 720 180 L 702.679688 170 L 702.679688 150 L 720 140 "></path>
<path style=" stroke:none;fill-rule:nonzero;fill:rgb(6.27451%,30.588235%,54.509804%);fill-opacity:1;" d="M 725 180 C 725 186.667969 715 186.667969 715 180 C 715 173.332031 725 173.332031 725 180 "></path>
<path style=" stroke:none;fill-rule:nonzero;fill:rgb(6.27451%,30.588235%,54.509804%);fill-opacity:1;" d="M 707.679688 170 C 707.679688 176.667969 697.679688 176.667969 697.679688 170 C 697.679688 163.332031 707.679688 163.332031 707.679688 170 "></path>
<path style=" stroke:none;fill-rule:nonzero;fill:rgb(6.27451%,30.588235%,54.509804%);fill-opacity:1;" d="M 707.679688 150 C 707.679688 156.667969 697.679688 156.667969 697.679688 150 C 697.679688 143.332031 707.679688 143.332031 707.679688 150 "></path>
<path style="fill:none;stroke-width:4;stroke-linecap:round;stroke-linejoin:miter;stroke:rgb(6.27451%,30.588235%,54.509804%);stroke-opacity:1;stroke-miterlimit:10;" d="M 817.320313 170 L 800 180 L 782.679688 170 L 782.679688 150 L 800 140 "></path>
<path style=" stroke:none;fill-rule:nonzero;fill:rgb(6.27451%,30.588235%,54.509804%);fill-opacity:1;" d="M 805 180 C 805 186.667969 795 186.667969 795 180 C 795 173.332031 805 173.332031 805 180 "></path>
<path style=" stroke:none;fill-rule:nonzero;fill:rgb(6.27451%,30.588235%,54.509804%);fill-opacity:1;" d="M 787.679688 170 C 787.679688 176.667969 777.679688 176.667969 777.679688 170 C 777.679688 163.332031 787.679688 163.332031 787.679688 170 "></path>
<path style=" stroke:none;fill-rule:nonzero;fill:rgb(6.27451%,30.588235%,54.509804%);fill-opacity:1;" d="M 787.679688 150 C 787.679688 156.667969 777.679688 156.667969 777.679688 150 C 777.679688 143.332031 787.679688 143.332031 787.679688 150 "></path>
<path style="fill:none;stroke-width:4;stroke-linecap:round;stroke-linejoin:miter;stroke:rgb(6.27451%,30.588235%,54.509804%);stroke-opacity:1;stroke-miterlimit:10;" d="M 950 170 L 950 150 L 970 150 L 970 170 "></path>
<path style=" stroke:none;fill-rule:nonzero;fill:rgb(6.27451%,30.588235%,54.509804%);fill-opacity:1;" d="M 955 150 C 955 156.667969 945 156.667969 945 150 C 945 143.332031 955 143.332031 955 150 "></path>
<path style=" stroke:none;fill-rule:nonzero;fill:rgb(6.27451%,30.588235%,54.509804%);fill-opacity:1;" d="M 975 150 C 975 156.667969 965 156.667969 965 150 C 965 143.332031 975 143.332031 975 150 "></path>
<path style="fill:none;stroke-width:4;stroke-linecap:round;stroke-linejoin:miter;stroke:rgb(6.27451%,30.588235%,54.509804%);stroke-opacity:1;stroke-miterlimit:10;" d="M 970 150 L 980.605469 139.394531 "></path>
<path style="fill:none;stroke-width:4;stroke-linecap:round;stroke-linejoin:miter;stroke:rgb(6.27451%,30.588235%,54.509804%);stroke-opacity:1;stroke-miterlimit:10;" d="M 1040 180 L 1022.679688 170 L 1022.679688 150 L 1040 140 L 1057.320313 150 "></path>
<path style=" stroke:none;fill-rule:nonzero;fill:rgb(6.27451%,30.588235%,54.509804%);fill-opacity:1;" d="M 1027.679688 170 C 1027.679688 176.667969 1017.679688 176.667969 1017.679688 170 C 1017.679688 163.332031 1027.679688 163.332031 1027.679688 170 "></path>
<path style=" stroke:none;fill-rule:nonzero;fill:rgb(6.27451%,30.588235%,54.509804%);fill-opacity:1;" d="M 1027.679688 150 C 1027.679688 156.667969 1017.679688 156.667969 1017.679688 150 C 1017.679688 143.332031 1027.679688 143.332031 1027.679688 150 "></path>
<path style=" stroke:none;fill-rule:nonzero;fill:rgb(6.27451%,30.588235%,54.509804%);fill-opacity:1;" d="M 1045 140 C 1045 146.667969 1035 146.667969 1035 140 C 1035 133.332031 1045 133.332031 1045 140 "></path>
<path style="fill:none;stroke-width:4;stroke-linecap:round;stroke-linejoin:miter;stroke:rgb(6.27451%,30.588235%,54.509804%);stroke-opacity:1;stroke-miterlimit:10;" d="M 1120 173 L 1108.742188 166.5 L 1108.742188 153.5 L 1120 147 L 1131.257813 153.5 L 1131.257813 166.5 Z M 1120 173 "></path>
<path style=" stroke:none;fill-rule:nonzero;fill:rgb(6.27451%,30.588235%,54.509804%);fill-opacity:1;" d="M 1125 173 C 1125 179.667969 1115 179.667969 1115 173 C 1115 166.332031 1125 166.332031 1125 173 "></path>
<path style=" stroke:none;fill-rule:nonzero;fill:rgb(6.27451%,30.588235%,54.509804%);fill-opacity:1;" d="M 1113.742188 166.5 C 1113.742188 173.167969 1103.742188 173.167969 1103.742188 166.5 C 1103.742188 159.832031 1113.742188 159.832031 1113.742188 166.5 "></path>
<path style=" stroke:none;fill-rule:nonzero;fill:rgb(6.27451%,30.588235%,54.509804%);fill-opacity:1;" d="M 1113.742188 153.5 C 1113.742188 160.167969 1103.742188 160.167969 1103.742188 153.5 C 1103.742188 146.832031 1113.742188 146.832031 1113.742188 153.5 "></path>
<path style=" stroke:none;fill-rule:nonzero;fill:rgb(6.27451%,30.588235%,54.509804%);fill-opacity:1;" d="M 1125 147 C 1125 153.667969 1115 153.667969 1115 147 C 1115 140.332031 1125 140.332031 1125 147 "></path>
<path style=" stroke:none;fill-rule:nonzero;fill:rgb(6.27451%,30.588235%,54.509804%);fill-opacity:1;" d="M 1136.257813 153.5 C 1136.257813 160.167969 1126.257813 160.167969 1126.257813 153.5 C 1126.257813 146.832031 1136.257813 146.832031 1136.257813 153.5 "></path>
<path style=" stroke:none;fill-rule:nonzero;fill:rgb(6.27451%,30.588235%,54.509804%);fill-opacity:1;" d="M 1136.257813 166.5 C 1136.257813 173.167969 1126.257813 173.167969 1126.257813 166.5 C 1126.257813 159.832031 1136.257813 159.832031 1136.257813 166.5 "></path>
<path style="fill:none;stroke-width:4;stroke-linecap:round;stroke-linejoin:miter;stroke:rgb(6.27451%,30.588235%,54.509804%);stroke-opacity:1;stroke-miterlimit:10;" d="M 1143.621094 170.515625 L 1131.257813 166.5 L 1131.257813 153.5 L 1143.621094 149.484375 L 1151.261719 160 Z M 1143.621094 170.515625 "></path>
<path style=" stroke:none;fill-rule:nonzero;fill:rgb(6.27451%,30.588235%,54.509804%);fill-opacity:1;" d="M 1148.621094 170.515625 C 1148.621094 177.183594 1138.621094 177.183594 1138.621094 170.515625 C 1138.621094 163.851563 1148.621094 163.851563 1148.621094 170.515625 "></path>
<path style=" stroke:none;fill-rule:nonzero;fill:rgb(6.27451%,30.588235%,54.509804%);fill-opacity:1;" d="M 1136.257813 166.5 C 1136.257813 173.167969 1126.257813 173.167969 1126.257813 166.5 C 1126.257813 159.832031 1136.257813 159.832031 1136.257813 166.5 "></path>
<path style=" stroke:none;fill-rule:nonzero;fill:rgb(6.27451%,30.588235%,54.509804%);fill-opacity:1;" d="M 1136.257813 153.5 C 1136.257813 160.167969 1126.257813 160.167969 1126.257813 153.5 C 1126.257813 146.832031 1136.257813 146.832031 1136.257813 153.5 "></path>
<path style=" stroke:none;fill-rule:nonzero;fill:rgb(6.27451%,30.588235%,54.509804%);fill-opacity:1;" d="M 1148.621094 149.484375 C 1148.621094 156.148438 1138.621094 156.148438 1138.621094 149.484375 C 1138.621094 142.816406 1148.621094 142.816406 1148.621094 149.484375 "></path>
<path style=" stroke:none;fill-rule:nonzero;fill:rgb(6.27451%,30.588235%,54.509804%);fill-opacity:1;" d="M 1156.261719 160 C 1156.261719 166.667969 1146.261719 166.667969 1146.261719 160 C 1146.261719 153.332031 1156.261719 153.332031 1156.261719 160 "></path>
<path style="fill:none;stroke-width:4;stroke-linecap:round;stroke-linejoin:miter;stroke:rgb(6.27451%,30.588235%,54.509804%);stroke-opacity:1;stroke-miterlimit:10;" d="M 1360 180 L 1342.679688 170 L 1342.679688 150 L 1360 140 L 1377.320313 150 L 1377.320313 170 "></path>
<path style=" stroke:none;fill-rule:nonzero;fill:rgb(6.27451%,30.588235%,54.509804%);fill-opacity:1;" d="M 1347.679688 170 C 1347.679688 176.667969 1337.679688 176.667969 1337.679688 170 C 1337.679688 163.332031 1347.679688 163.332031 1347.679688 170 "></path>
<path style=" stroke:none;fill-rule:nonzero;fill:rgb(6.27451%,30.588235%,54.509804%);fill-opacity:1;" d="M 1347.679688 150 C 1347.679688 156.667969 1337.679688 156.667969 1337.679688 150 C 1337.679688 143.332031 1347.679688 143.332031 1347.679688 150 "></path>
<path style=" stroke:none;fill-rule:nonzero;fill:rgb(6.27451%,30.588235%,54.509804%);fill-opacity:1;" d="M 1365 140 C 1365 146.667969 1355 146.667969 1355 140 C 1355 133.332031 1365 133.332031 1365 140 "></path>
<path style=" stroke:none;fill-rule:nonzero;fill:rgb(6.27451%,30.588235%,54.509804%);fill-opacity:1;" d="M 1382.320313 150 C 1382.320313 156.667969 1372.320313 156.667969 1372.320313 150 C 1372.320313 143.332031 1382.320313 143.332031 1382.320313 150 "></path>
<path style="fill:none;stroke-width:4;stroke-linecap:round;stroke-linejoin:miter;stroke:rgb(6.27451%,30.588235%,54.509804%);stroke-opacity:1;stroke-miterlimit:10;" d="M 1535.589844 169 L 1520 178 L 1504.410156 169 L 1504.410156 151 L 1520 142 "></path>
<path style=" stroke:none;fill-rule:nonzero;fill:rgb(6.27451%,30.588235%,54.509804%);fill-opacity:1;" d="M 1525 178 C 1525 184.667969 1515 184.667969 1515 178 C 1515 171.332031 1525 171.332031 1525 178 "></path>
<path style=" stroke:none;fill-rule:nonzero;fill:rgb(6.27451%,30.588235%,54.509804%);fill-opacity:1;" d="M 1509.410156 169 C 1509.410156 175.667969 1499.410156 175.667969 1499.410156 169 C 1499.410156 162.332031 1509.410156 162.332031 1509.410156 169 "></path>
<path style=" stroke:none;fill-rule:nonzero;fill:rgb(6.27451%,30.588235%,54.509804%);fill-opacity:1;" d="M 1509.410156 151 C 1509.410156 157.667969 1499.410156 157.667969 1499.410156 151 C 1499.410156 144.332031 1509.410156 144.332031 1509.410156 151 "></path>
<path style="fill:none;stroke-width:4;stroke-linecap:round;stroke-linejoin:miter;stroke:rgb(6.27451%,30.588235%,54.509804%);stroke-opacity:1;stroke-miterlimit:10;" d="M 1535.589844 169 L 1520 178 L 1529 193.589844 L 1544.589844 184.589844 Z M 1535.589844 169 "></path>
<path style=" stroke:none;fill-rule:nonzero;fill:rgb(6.27451%,30.588235%,54.509804%);fill-opacity:1;" d="M 1540.589844 169 C 1540.589844 175.667969 1530.589844 175.667969 1530.589844 169 C 1530.589844 162.332031 1540.589844 162.332031 1540.589844 169 "></path>
<path style=" stroke:none;fill-rule:nonzero;fill:rgb(6.27451%,30.588235%,54.509804%);fill-opacity:1;" d="M 1525 178 C 1525 184.667969 1515 184.667969 1515 178 C 1515 171.332031 1525 171.332031 1525 178 "></path>
<path style=" stroke:none;fill-rule:nonzero;fill:rgb(6.27451%,30.588235%,54.509804%);fill-opacity:1;" d="M 1534 193.589844 C 1534 200.253906 1524 200.253906 1524 193.589844 C 1524 186.921875 1534 186.921875 1534 193.589844 "></path>
<path style=" stroke:none;fill-rule:nonzero;fill:rgb(6.27451%,30.588235%,54.509804%);fill-opacity:1;" d="M 1549.589844 184.589844 C 1549.589844 191.253906 1539.589844 191.253906 1539.589844 184.589844 C 1539.589844 177.921875 1549.589844 177.921875 1549.589844 184.589844 "></path>
<path style="fill:none;stroke-width:4;stroke-linecap:round;stroke-linejoin:miter;stroke:rgb(6.27451%,30.588235%,54.509804%);stroke-opacity:1;stroke-miterlimit:10;" d="M 1605.257813 176.179688 L 1586.234375 170 L 1586.234375 150 L 1605.257813 143.820313 L 1617.011719 160 Z M 1605.257813 176.179688 "></path>
<path style=" stroke:none;fill-rule:nonzero;fill:rgb(6.27451%,30.588235%,54.509804%);fill-opacity:1;" d="M 1610.257813 176.179688 C 1610.257813 182.847656 1600.257813 182.847656 1600.257813 176.179688 C 1600.257813 169.515625 1610.257813 169.515625 1610.257813 176.179688 "></path>
<path style=" stroke:none;fill-rule:nonzero;fill:rgb(6.27451%,30.588235%,54.509804%);fill-opacity:1;" d="M 1591.234375 170 C 1591.234375 176.667969 1581.234375 176.667969 1581.234375 170 C 1581.234375 163.332031 1591.234375 163.332031 1591.234375 170 "></path>
<path style=" stroke:none;fill-rule:nonzero;fill:rgb(6.27451%,30.588235%,54.509804%);fill-opacity:1;" d="M 1591.234375 150 C 1591.234375 156.667969 1581.234375 156.667969 1581.234375 150 C 1581.234375 143.332031 1591.234375 143.332031 1591.234375 150 "></path>
<path style=" stroke:none;fill-rule:nonzero;fill:rgb(6.27451%,30.588235%,54.509804%);fill-opacity:1;" d="M 1610.257813 143.820313 C 1610.257813 150.484375 1600.257813 150.484375 1600.257813 143.820313 C 1600.257813 137.152344 1610.257813 137.152344 1610.257813 143.820313 "></path>
<path style=" stroke:none;fill-rule:nonzero;fill:rgb(6.27451%,30.588235%,54.509804%);fill-opacity:1;" d="M 1622.011719 160 C 1622.011719 166.667969 1612.011719 166.667969 1612.011719 160 C 1612.011719 153.332031 1622.011719 153.332031 1622.011719 160 "></path>
<path style="fill:none;stroke-width:4;stroke-linecap:round;stroke-linejoin:miter;stroke:rgb(6.27451%,30.588235%,54.509804%);stroke-opacity:1;stroke-miterlimit:10;" d="M 1605.257813 143.820313 L 1609.890625 129.554688 "></path>
<path style="fill:none;stroke-width:4;stroke-linecap:round;stroke-linejoin:miter;stroke:rgb(6.27451%,30.588235%,54.509804%);stroke-opacity:1;stroke-miterlimit:10;" d="M 160 260 L 142.679688 250 L 142.679688 230 L 160 220 L 177.320313 230 "></path>
<path style=" stroke:none;fill-rule:nonzero;fill:rgb(6.27451%,30.588235%,54.509804%);fill-opacity:1;" d="M 147.679688 250 C 147.679688 256.667969 137.679688 256.667969 137.679688 250 C 137.679688 243.332031 147.679688 243.332031 147.679688 250 "></path>
<path style=" stroke:none;fill-rule:nonzero;fill:rgb(6.27451%,30.588235%,54.509804%);fill-opacity:1;" d="M 147.679688 230 C 147.679688 236.667969 137.679688 236.667969 137.679688 230 C 137.679688 223.332031 147.679688 223.332031 147.679688 230 "></path>
<path style=" stroke:none;fill-rule:nonzero;fill:rgb(6.27451%,30.588235%,54.509804%);fill-opacity:1;" d="M 165 220 C 165 226.667969 155 226.667969 155 220 C 155 213.332031 165 213.332031 165 220 "></path>
<path style="fill:none;stroke-width:4;stroke-linecap:round;stroke-linejoin:miter;stroke:rgb(6.27451%,30.588235%,54.509804%);stroke-opacity:1;stroke-miterlimit:10;" d="M 257.320313 230 L 257.320313 250 L 240 260 L 222.679688 250 L 222.679688 230 L 240 220 "></path>
<path style=" stroke:none;fill-rule:nonzero;fill:rgb(6.27451%,30.588235%,54.509804%);fill-opacity:1;" d="M 262.320313 250 C 262.320313 256.667969 252.320313 256.667969 252.320313 250 C 252.320313 243.332031 262.320313 243.332031 262.320313 250 "></path>
<path style=" stroke:none;fill-rule:nonzero;fill:rgb(6.27451%,30.588235%,54.509804%);fill-opacity:1;" d="M 245 260 C 245 266.667969 235 266.667969 235 260 C 235 253.332031 245 253.332031 245 260 "></path>
<path style=" stroke:none;fill-rule:nonzero;fill:rgb(6.27451%,30.588235%,54.509804%);fill-opacity:1;" d="M 227.679688 250 C 227.679688 256.667969 217.679688 256.667969 217.679688 250 C 217.679688 243.332031 227.679688 243.332031 227.679688 250 "></path>
<path style=" stroke:none;fill-rule:nonzero;fill:rgb(6.27451%,30.588235%,54.509804%);fill-opacity:1;" d="M 227.679688 230 C 227.679688 236.667969 217.679688 236.667969 217.679688 230 C 217.679688 223.332031 227.679688 223.332031 227.679688 230 "></path>
<path style="fill:none;stroke-width:4;stroke-linecap:round;stroke-linejoin:miter;stroke:rgb(6.27451%,30.588235%,54.509804%);stroke-opacity:1;stroke-miterlimit:10;" d="M 330 250 L 310 250 L 310 230 L 330 230 "></path>
<path style=" stroke:none;fill-rule:nonzero;fill:rgb(6.27451%,30.588235%,54.509804%);fill-opacity:1;" d="M 315 250 C 315 256.667969 305 256.667969 305 250 C 305 243.332031 315 243.332031 315 250 "></path>
<path style=" stroke:none;fill-rule:nonzero;fill:rgb(6.27451%,30.588235%,54.509804%);fill-opacity:1;" d="M 315 230 C 315 236.667969 305 236.667969 305 230 C 305 223.332031 315 223.332031 315 230 "></path>
<path style="fill:none;stroke-width:4;stroke-linecap:round;stroke-linejoin:miter;stroke:rgb(6.27451%,30.588235%,54.509804%);stroke-opacity:1;stroke-miterlimit:10;" d="M 310 250 L 299.394531 260.605469 "></path>
<path style="fill:none;stroke-width:4;stroke-linecap:round;stroke-linejoin:miter;stroke:rgb(6.27451%,30.588235%,54.509804%);stroke-opacity:1;stroke-miterlimit:10;" d="M 470 250 L 470 230 L 490 230 L 490 250 "></path>
<path style=" stroke:none;fill-rule:nonzero;fill:rgb(6.27451%,30.588235%,54.509804%);fill-opacity:1;" d="M 475 230 C 475 236.667969 465 236.667969 465 230 C 465 223.332031 475 223.332031 475 230 "></path>
<path style=" stroke:none;fill-rule:nonzero;fill:rgb(6.27451%,30.588235%,54.509804%);fill-opacity:1;" d="M 495 230 C 495 236.667969 485 236.667969 485 230 C 485 223.332031 495 223.332031 495 230 "></path>
<path style="fill:none;stroke-width:4;stroke-linecap:round;stroke-linejoin:miter;stroke:rgb(6.27451%,30.588235%,54.509804%);stroke-opacity:1;stroke-miterlimit:10;" d="M 490 230 L 500.605469 219.394531 "></path>
<path style="fill:none;stroke-width:4;stroke-linecap:round;stroke-linejoin:miter;stroke:rgb(6.27451%,30.588235%,54.509804%);stroke-opacity:1;stroke-miterlimit:10;" d="M 567 247 L 553 247 L 553 233 L 567 233 Z M 567 247 "></path>
<path style=" stroke:none;fill-rule:nonzero;fill:rgb(6.27451%,30.588235%,54.509804%);fill-opacity:1;" d="M 572 247 C 572 253.667969 562 253.667969 562 247 C 562 240.332031 572 240.332031 572 247 "></path>
<path style=" stroke:none;fill-rule:nonzero;fill:rgb(6.27451%,30.588235%,54.509804%);fill-opacity:1;" d="M 558 247 C 558 253.667969 548 253.667969 548 247 C 548 240.332031 558 240.332031 558 247 "></path>
<path style=" stroke:none;fill-rule:nonzero;fill:rgb(6.27451%,30.588235%,54.509804%);fill-opacity:1;" d="M 558 233 C 558 239.667969 548 239.667969 548 233 C 548 226.332031 558 226.332031 558 233 "></path>
<path style=" stroke:none;fill-rule:nonzero;fill:rgb(6.27451%,30.588235%,54.509804%);fill-opacity:1;" d="M 572 233 C 572 239.667969 562 239.667969 562 233 C 562 226.332031 572 226.332031 572 233 "></path>
<path style="fill:none;stroke-width:4;stroke-linecap:round;stroke-linejoin:miter;stroke:rgb(6.27451%,30.588235%,54.509804%);stroke-opacity:1;stroke-miterlimit:10;" d="M 553 233 L 567 233 L 567 219 L 553 219 Z M 553 233 "></path>
<path style=" stroke:none;fill-rule:nonzero;fill:rgb(6.27451%,30.588235%,54.509804%);fill-opacity:1;" d="M 558 233 C 558 239.667969 548 239.667969 548 233 C 548 226.332031 558 226.332031 558 233 "></path>
<path style=" stroke:none;fill-rule:nonzero;fill:rgb(6.27451%,30.588235%,54.509804%);fill-opacity:1;" d="M 572 233 C 572 239.667969 562 239.667969 562 233 C 562 226.332031 572 226.332031 572 233 "></path>
<path style=" stroke:none;fill-rule:nonzero;fill:rgb(6.27451%,30.588235%,54.509804%);fill-opacity:1;" d="M 572 219 C 572 225.667969 562 225.667969 562 219 C 562 212.332031 572 212.332031 572 219 "></path>
<path style=" stroke:none;fill-rule:nonzero;fill:rgb(6.27451%,30.588235%,54.509804%);fill-opacity:1;" d="M 558 219 C 558 225.667969 548 225.667969 548 219 C 548 212.332031 558 212.332031 558 219 "></path>
<path style="fill:none;stroke-width:4;stroke-linecap:round;stroke-linejoin:miter;stroke:rgb(6.27451%,30.588235%,54.509804%);stroke-opacity:1;stroke-miterlimit:10;" d="M 655.589844 249 L 640 258 L 624.410156 249 L 624.410156 231 L 640 222 "></path>
<path style=" stroke:none;fill-rule:nonzero;fill:rgb(6.27451%,30.588235%,54.509804%);fill-opacity:1;" d="M 645 258 C 645 264.667969 635 264.667969 635 258 C 635 251.332031 645 251.332031 645 258 "></path>
<path style=" stroke:none;fill-rule:nonzero;fill:rgb(6.27451%,30.588235%,54.509804%);fill-opacity:1;" d="M 629.410156 249 C 629.410156 255.667969 619.410156 255.667969 619.410156 249 C 619.410156 242.332031 629.410156 242.332031 629.410156 249 "></path>
<path style=" stroke:none;fill-rule:nonzero;fill:rgb(6.27451%,30.588235%,54.509804%);fill-opacity:1;" d="M 629.410156 231 C 629.410156 237.667969 619.410156 237.667969 619.410156 231 C 619.410156 224.332031 629.410156 224.332031 629.410156 231 "></path>
<path style="fill:none;stroke-width:4;stroke-linecap:round;stroke-linejoin:miter;stroke:rgb(6.27451%,30.588235%,54.509804%);stroke-opacity:1;stroke-miterlimit:10;" d="M 655.589844 249 L 640 258 L 649 273.589844 L 664.589844 264.589844 Z M 655.589844 249 "></path>
<path style=" stroke:none;fill-rule:nonzero;fill:rgb(6.27451%,30.588235%,54.509804%);fill-opacity:1;" d="M 660.589844 249 C 660.589844 255.667969 650.589844 255.667969 650.589844 249 C 650.589844 242.332031 660.589844 242.332031 660.589844 249 "></path>
<path style=" stroke:none;fill-rule:nonzero;fill:rgb(6.27451%,30.588235%,54.509804%);fill-opacity:1;" d="M 645 258 C 645 264.667969 635 264.667969 635 258 C 635 251.332031 645 251.332031 645 258 "></path>
<path style=" stroke:none;fill-rule:nonzero;fill:rgb(6.27451%,30.588235%,54.509804%);fill-opacity:1;" d="M 654 273.589844 C 654 280.253906 644 280.253906 644 273.589844 C 644 266.921875 654 266.921875 654 273.589844 "></path>
<path style=" stroke:none;fill-rule:nonzero;fill:rgb(6.27451%,30.588235%,54.509804%);fill-opacity:1;" d="M 669.589844 264.589844 C 669.589844 271.253906 659.589844 271.253906 659.589844 264.589844 C 659.589844 257.921875 669.589844 257.921875 669.589844 264.589844 "></path>
<path style="fill:none;stroke-width:4;stroke-linecap:round;stroke-linejoin:miter;stroke:rgb(6.27451%,30.588235%,54.509804%);stroke-opacity:1;stroke-miterlimit:10;" d="M 897.320313 230 L 897.320313 250 L 880 260 L 862.679688 250 L 862.679688 230 L 880 220 "></path>
<path style=" stroke:none;fill-rule:nonzero;fill:rgb(6.27451%,30.588235%,54.509804%);fill-opacity:1;" d="M 902.320313 250 C 902.320313 256.667969 892.320313 256.667969 892.320313 250 C 892.320313 243.332031 902.320313 243.332031 902.320313 250 "></path>
<path style=" stroke:none;fill-rule:nonzero;fill:rgb(6.27451%,30.588235%,54.509804%);fill-opacity:1;" d="M 885 260 C 885 266.667969 875 266.667969 875 260 C 875 253.332031 885 253.332031 885 260 "></path>
<path style=" stroke:none;fill-rule:nonzero;fill:rgb(6.27451%,30.588235%,54.509804%);fill-opacity:1;" d="M 867.679688 250 C 867.679688 256.667969 857.679688 256.667969 857.679688 250 C 857.679688 243.332031 867.679688 243.332031 867.679688 250 "></path>
<path style=" stroke:none;fill-rule:nonzero;fill:rgb(6.27451%,30.588235%,54.509804%);fill-opacity:1;" d="M 867.679688 230 C 867.679688 236.667969 857.679688 236.667969 857.679688 230 C 857.679688 223.332031 867.679688 223.332031 867.679688 230 "></path>
<path style="fill:none;stroke-width:4;stroke-linecap:round;stroke-linejoin:miter;stroke:rgb(6.27451%,30.588235%,54.509804%);stroke-opacity:1;stroke-miterlimit:10;" d="M 950 250 L 950 230 L 970 230 L 970 250 "></path>
<path style=" stroke:none;fill-rule:nonzero;fill:rgb(6.27451%,30.588235%,54.509804%);fill-opacity:1;" d="M 955 230 C 955 236.667969 945 236.667969 945 230 C 945 223.332031 955 223.332031 955 230 "></path>
<path style=" stroke:none;fill-rule:nonzero;fill:rgb(6.27451%,30.588235%,54.509804%);fill-opacity:1;" d="M 975 230 C 975 236.667969 965 236.667969 965 230 C 965 223.332031 975 223.332031 975 230 "></path>
<path style="fill:none;stroke-width:4;stroke-linecap:round;stroke-linejoin:miter;stroke:rgb(6.27451%,30.588235%,54.509804%);stroke-opacity:1;stroke-miterlimit:10;" d="M 970 230 L 980.605469 219.394531 "></path>
<path style="fill:none;stroke-width:4;stroke-linecap:round;stroke-linejoin:miter;stroke:rgb(6.27451%,30.588235%,54.509804%);stroke-opacity:1;stroke-miterlimit:10;" d="M 1615.589844 249 L 1600 258 L 1584.410156 249 L 1584.410156 231 "></path>
<path style=" stroke:none;fill-rule:nonzero;fill:rgb(6.27451%,30.588235%,54.509804%);fill-opacity:1;" d="M 1605 258 C 1605 264.667969 1595 264.667969 1595 258 C 1595 251.332031 1605 251.332031 1605 258 "></path>
<path style=" stroke:none;fill-rule:nonzero;fill:rgb(6.27451%,30.588235%,54.509804%);fill-opacity:1;" d="M 1589.410156 249 C 1589.410156 255.667969 1579.410156 255.667969 1579.410156 249 C 1579.410156 242.332031 1589.410156 242.332031 1589.410156 249 "></path>
<path style="fill:none;stroke-width:4;stroke-linecap:round;stroke-linejoin:miter;stroke:rgb(6.27451%,30.588235%,54.509804%);stroke-opacity:1;stroke-miterlimit:10;" d="M 1615.589844 249 L 1600 258 L 1609 273.589844 L 1624.589844 264.589844 Z M 1615.589844 249 "></path>
<path style=" stroke:none;fill-rule:nonzero;fill:rgb(6.27451%,30.588235%,54.509804%);fill-opacity:1;" d="M 1620.589844 249 C 1620.589844 255.667969 1610.589844 255.667969 1610.589844 249 C 1610.589844 242.332031 1620.589844 242.332031 1620.589844 249 "></path>
<path style=" stroke:none;fill-rule:nonzero;fill:rgb(6.27451%,30.588235%,54.509804%);fill-opacity:1;" d="M 1605 258 C 1605 264.667969 1595 264.667969 1595 258 C 1595 251.332031 1605 251.332031 1605 258 "></path>
<path style=" stroke:none;fill-rule:nonzero;fill:rgb(6.27451%,30.588235%,54.509804%);fill-opacity:1;" d="M 1614 273.589844 C 1614 280.253906 1604 280.253906 1604 273.589844 C 1604 266.921875 1614 266.921875 1614 273.589844 "></path>
<path style=" stroke:none;fill-rule:nonzero;fill:rgb(6.27451%,30.588235%,54.509804%);fill-opacity:1;" d="M 1629.589844 264.589844 C 1629.589844 271.253906 1619.589844 271.253906 1619.589844 264.589844 C 1619.589844 257.921875 1629.589844 257.921875 1629.589844 264.589844 "></path>
<path style="fill:none;stroke-width:4;stroke-linecap:round;stroke-linejoin:miter;stroke:rgb(6.27451%,30.588235%,54.509804%);stroke-opacity:1;stroke-miterlimit:10;" d="M 1685.257813 256.179688 L 1666.234375 250 L 1666.234375 230 L 1685.257813 223.820313 L 1697.011719 240 Z M 1685.257813 256.179688 "></path>
<path style=" stroke:none;fill-rule:nonzero;fill:rgb(6.27451%,30.588235%,54.509804%);fill-opacity:1;" d="M 1690.257813 256.179688 C 1690.257813 262.847656 1680.257813 262.847656 1680.257813 256.179688 C 1680.257813 249.515625 1690.257813 249.515625 1690.257813 256.179688 "></path>
<path style=" stroke:none;fill-rule:nonzero;fill:rgb(6.27451%,30.588235%,54.509804%);fill-opacity:1;" d="M 1671.234375 250 C 1671.234375 256.667969 1661.234375 256.667969 1661.234375 250 C 1661.234375 243.332031 1671.234375 243.332031 1671.234375 250 "></path>
<path style=" stroke:none;fill-rule:nonzero;fill:rgb(6.27451%,30.588235%,54.509804%);fill-opacity:1;" d="M 1671.234375 230 C 1671.234375 236.667969 1661.234375 236.667969 1661.234375 230 C 1661.234375 223.332031 1671.234375 223.332031 1671.234375 230 "></path>
<path style=" stroke:none;fill-rule:nonzero;fill:rgb(6.27451%,30.588235%,54.509804%);fill-opacity:1;" d="M 1690.257813 223.820313 C 1690.257813 230.484375 1680.257813 230.484375 1680.257813 223.820313 C 1680.257813 217.152344 1690.257813 217.152344 1690.257813 223.820313 "></path>
<path style=" stroke:none;fill-rule:nonzero;fill:rgb(6.27451%,30.588235%,54.509804%);fill-opacity:1;" d="M 1702.011719 240 C 1702.011719 246.667969 1692.011719 246.667969 1692.011719 240 C 1692.011719 233.332031 1702.011719 233.332031 1702.011719 240 "></path>
<path style="fill:none;stroke-width:4;stroke-linecap:round;stroke-linejoin:miter;stroke:rgb(6.27451%,30.588235%,54.509804%);stroke-opacity:1;stroke-miterlimit:10;" d="M 90 170 L 142.679688 230 "></path>
<path style=" stroke:none;fill-rule:nonzero;fill:rgb(6.27451%,30.588235%,54.509804%);fill-opacity:1;" d="M 95 170 C 95 176.667969 85 176.667969 85 170 C 85 163.332031 95 163.332031 95 170 "></path>
<path style=" stroke:none;fill-rule:nonzero;fill:rgb(6.27451%,30.588235%,54.509804%);fill-opacity:1;" d="M 147.679688 230 C 147.679688 236.667969 137.679688 236.667969 137.679688 230 C 137.679688 223.332031 147.679688 223.332031 147.679688 230 "></path>
<path style="fill:none;stroke-width:4;stroke-linecap:round;stroke-linejoin:miter;stroke:rgb(6.27451%,30.588235%,54.509804%);stroke-opacity:1;stroke-miterlimit:10;" d="M 177.320313 230 L 224.410156 169 "></path>
<path style=" stroke:none;fill-rule:nonzero;fill:rgb(6.27451%,30.588235%,54.509804%);fill-opacity:1;" d="M 182.320313 230 C 182.320313 236.667969 172.320313 236.667969 172.320313 230 C 172.320313 223.332031 182.320313 223.332031 182.320313 230 "></path>
<path style=" stroke:none;fill-rule:nonzero;fill:rgb(6.27451%,30.588235%,54.509804%);fill-opacity:1;" d="M 229.410156 169 C 229.410156 175.667969 219.410156 175.667969 219.410156 169 C 219.410156 162.332031 229.410156 162.332031 229.410156 169 "></path>
<path style="fill:none;stroke-width:4;stroke-linecap:round;stroke-linejoin:miter;stroke:rgb(6.27451%,30.588235%,54.509804%);stroke-opacity:1;stroke-miterlimit:10;" d="M 177.320313 230 L 222.679688 230 "></path>
<path style=" stroke:none;fill-rule:nonzero;fill:rgb(6.27451%,30.588235%,54.509804%);fill-opacity:1;" d="M 182.320313 230 C 182.320313 236.667969 172.320313 236.667969 172.320313 230 C 172.320313 223.332031 182.320313 223.332031 182.320313 230 "></path>
<path style=" stroke:none;fill-rule:nonzero;fill:rgb(6.27451%,30.588235%,54.509804%);fill-opacity:1;" d="M 227.679688 230 C 227.679688 236.667969 217.679688 236.667969 217.679688 230 C 217.679688 223.332031 227.679688 223.332031 227.679688 230 "></path>
<path style="fill:none;stroke-width:4;stroke-linecap:round;stroke-linejoin:miter;stroke:rgb(6.27451%,30.588235%,54.509804%);stroke-opacity:1;stroke-miterlimit:10;" d="M 264.589844 184.589844 L 306.234375 170 "></path>
<path style=" stroke:none;fill-rule:nonzero;fill:rgb(6.27451%,30.588235%,54.509804%);fill-opacity:1;" d="M 269.589844 184.589844 C 269.589844 191.253906 259.589844 191.253906 259.589844 184.589844 C 259.589844 177.921875 269.589844 177.921875 269.589844 184.589844 "></path>
<path style=" stroke:none;fill-rule:nonzero;fill:rgb(6.27451%,30.588235%,54.509804%);fill-opacity:1;" d="M 311.234375 170 C 311.234375 176.667969 301.234375 176.667969 301.234375 170 C 301.234375 163.332031 311.234375 163.332031 311.234375 170 "></path>
<path style="fill:none;stroke-width:4;stroke-linecap:round;stroke-linejoin:miter;stroke:rgb(6.27451%,30.588235%,54.509804%);stroke-opacity:1;stroke-miterlimit:10;" d="M 257.320313 250 L 299.394531 260.605469 "></path>
<path style=" stroke:none;fill-rule:nonzero;fill:rgb(6.27451%,30.588235%,54.509804%);fill-opacity:1;" d="M 262.320313 250 C 262.320313 256.667969 252.320313 256.667969 252.320313 250 C 252.320313 243.332031 262.320313 243.332031 262.320313 250 "></path>
<path style=" stroke:none;fill-rule:nonzero;fill:rgb(6.27451%,30.588235%,54.509804%);fill-opacity:1;" d="M 304.394531 260.605469 C 304.394531 267.273438 294.394531 267.273438 294.394531 260.605469 C 294.394531 253.941406 304.394531 253.941406 304.394531 260.605469 "></path>
<path style="fill:none;stroke-width:4;stroke-linecap:round;stroke-linejoin:miter;stroke:rgb(6.27451%,30.588235%,54.509804%);stroke-opacity:1;stroke-miterlimit:10;" d="M 352.011719 160 L 409 113.589844 "></path>
<path style=" stroke:none;fill-rule:nonzero;fill:rgb(6.27451%,30.588235%,54.509804%);fill-opacity:1;" d="M 357.011719 160 C 357.011719 166.667969 347.011719 166.667969 347.011719 160 C 347.011719 153.332031 357.011719 153.332031 357.011719 160 "></path>
<path style=" stroke:none;fill-rule:nonzero;fill:rgb(6.27451%,30.588235%,54.509804%);fill-opacity:1;" d="M 414 113.589844 C 414 120.253906 404 120.253906 404 113.589844 C 404 106.921875 414 106.921875 414 113.589844 "></path>
<path style="fill:none;stroke-width:4;stroke-linecap:round;stroke-linejoin:miter;stroke:rgb(6.27451%,30.588235%,54.509804%);stroke-opacity:1;stroke-miterlimit:10;" d="M 330 230 L 390 170 "></path>
<path style=" stroke:none;fill-rule:nonzero;fill:rgb(6.27451%,30.588235%,54.509804%);fill-opacity:1;" d="M 335 230 C 335 236.667969 325 236.667969 325 230 C 325 223.332031 335 223.332031 335 230 "></path>
<path style=" stroke:none;fill-rule:nonzero;fill:rgb(6.27451%,30.588235%,54.509804%);fill-opacity:1;" d="M 395 170 C 395 176.667969 385 176.667969 385 170 C 385 163.332031 395 163.332031 395 170 "></path>
<path style="fill:none;stroke-width:4;stroke-linecap:round;stroke-linejoin:miter;stroke:rgb(6.27451%,30.588235%,54.509804%);stroke-opacity:1;stroke-miterlimit:10;" d="M 424.589844 104.589844 L 473 87 "></path>
<path style=" stroke:none;fill-rule:nonzero;fill:rgb(6.27451%,30.588235%,54.509804%);fill-opacity:1;" d="M 429.589844 104.589844 C 429.589844 111.253906 419.589844 111.253906 419.589844 104.589844 C 419.589844 97.921875 429.589844 97.921875 429.589844 104.589844 "></path>
<path style=" stroke:none;fill-rule:nonzero;fill:rgb(6.27451%,30.588235%,54.509804%);fill-opacity:1;" d="M 478 87 C 478 93.667969 468 93.667969 468 87 C 468 80.332031 478 80.332031 478 87 "></path>
<path style="fill:none;stroke-width:4;stroke-linecap:round;stroke-linejoin:miter;stroke:rgb(6.27451%,30.588235%,54.509804%);stroke-opacity:1;stroke-miterlimit:10;" d="M 410 170 L 470 230 "></path>
<path style=" stroke:none;fill-rule:nonzero;fill:rgb(6.27451%,30.588235%,54.509804%);fill-opacity:1;" d="M 415 170 C 415 176.667969 405 176.667969 405 170 C 405 163.332031 415 163.332031 415 170 "></path>
<path style=" stroke:none;fill-rule:nonzero;fill:rgb(6.27451%,30.588235%,54.509804%);fill-opacity:1;" d="M 475 230 C 475 236.667969 465 236.667969 465 230 C 465 223.332031 475 223.332031 475 230 "></path>
<path style="fill:none;stroke-width:4;stroke-linecap:round;stroke-linejoin:miter;stroke:rgb(6.27451%,30.588235%,54.509804%);stroke-opacity:1;stroke-miterlimit:10;" d="M 487 73 L 546.234375 70 "></path>
<path style=" stroke:none;fill-rule:nonzero;fill:rgb(6.27451%,30.588235%,54.509804%);fill-opacity:1;" d="M 492 73 C 492 79.667969 482 79.667969 482 73 C 482 66.332031 492 66.332031 492 73 "></path>
<path style=" stroke:none;fill-rule:nonzero;fill:rgb(6.27451%,30.588235%,54.509804%);fill-opacity:1;" d="M 551.234375 70 C 551.234375 76.667969 541.234375 76.667969 541.234375 70 C 541.234375 63.332031 551.234375 63.332031 551.234375 70 "></path>
<path style="fill:none;stroke-width:4;stroke-linecap:round;stroke-linejoin:miter;stroke:rgb(6.27451%,30.588235%,54.509804%);stroke-opacity:1;stroke-miterlimit:10;" d="M 500.605469 219.394531 L 553 219 "></path>
<path style=" stroke:none;fill-rule:nonzero;fill:rgb(6.27451%,30.588235%,54.509804%);fill-opacity:1;" d="M 505.605469 219.394531 C 505.605469 226.058594 495.605469 226.058594 495.605469 219.394531 C 495.605469 212.726563 505.605469 212.726563 505.605469 219.394531 "></path>
<path style=" stroke:none;fill-rule:nonzero;fill:rgb(6.27451%,30.588235%,54.509804%);fill-opacity:1;" d="M 558 219 C 558 225.667969 548 225.667969 548 219 C 548 212.332031 558 212.332031 558 219 "></path>
<path style="fill:none;stroke-width:4;stroke-linecap:round;stroke-linejoin:miter;stroke:rgb(6.27451%,30.588235%,54.509804%);stroke-opacity:1;stroke-miterlimit:10;" d="M 565.257813 96.179688 L 630 150 "></path>
<path style=" stroke:none;fill-rule:nonzero;fill:rgb(6.27451%,30.588235%,54.509804%);fill-opacity:1;" d="M 570.257813 96.179688 C 570.257813 102.847656 560.257813 102.847656 560.257813 96.179688 C 560.257813 89.515625 570.257813 89.515625 570.257813 96.179688 "></path>
<path style=" stroke:none;fill-rule:nonzero;fill:rgb(6.27451%,30.588235%,54.509804%);fill-opacity:1;" d="M 635 150 C 635 156.667969 625 156.667969 625 150 C 625 143.332031 635 143.332031 635 150 "></path>
<path style="fill:none;stroke-width:4;stroke-linecap:round;stroke-linejoin:miter;stroke:rgb(6.27451%,30.588235%,54.509804%);stroke-opacity:1;stroke-miterlimit:10;" d="M 567 247 L 624.410156 249 "></path>
<path style=" stroke:none;fill-rule:nonzero;fill:rgb(6.27451%,30.588235%,54.509804%);fill-opacity:1;" d="M 572 247 C 572 253.667969 562 253.667969 562 247 C 562 240.332031 572 240.332031 572 247 "></path>
<path style=" stroke:none;fill-rule:nonzero;fill:rgb(6.27451%,30.588235%,54.509804%);fill-opacity:1;" d="M 629.410156 249 C 629.410156 255.667969 619.410156 255.667969 619.410156 249 C 619.410156 242.332031 629.410156 242.332031 629.410156 249 "></path>
<path style="fill:none;stroke-width:4;stroke-linecap:round;stroke-linejoin:miter;stroke:rgb(6.27451%,30.588235%,54.509804%);stroke-opacity:1;stroke-miterlimit:10;" d="M 650 150 L 702.679688 150 "></path>
<path style=" stroke:none;fill-rule:nonzero;fill:rgb(6.27451%,30.588235%,54.509804%);fill-opacity:1;" d="M 655 150 C 655 156.667969 645 156.667969 645 150 C 645 143.332031 655 143.332031 655 150 "></path>
<path style=" stroke:none;fill-rule:nonzero;fill:rgb(6.27451%,30.588235%,54.509804%);fill-opacity:1;" d="M 707.679688 150 C 707.679688 156.667969 697.679688 156.667969 697.679688 150 C 697.679688 143.332031 707.679688 143.332031 707.679688 150 "></path>
<path style="fill:none;stroke-width:4;stroke-linecap:round;stroke-linejoin:miter;stroke:rgb(6.27451%,30.588235%,54.509804%);stroke-opacity:1;stroke-miterlimit:10;" d="M 640 222 L 702.679688 170 "></path>
<path style=" stroke:none;fill-rule:nonzero;fill:rgb(6.27451%,30.588235%,54.509804%);fill-opacity:1;" d="M 645 222 C 645 228.667969 635 228.667969 635 222 C 635 215.332031 645 215.332031 645 222 "></path>
<path style=" stroke:none;fill-rule:nonzero;fill:rgb(6.27451%,30.588235%,54.509804%);fill-opacity:1;" d="M 707.679688 170 C 707.679688 176.667969 697.679688 176.667969 697.679688 170 C 697.679688 163.332031 707.679688 163.332031 707.679688 170 "></path>
<path style="fill:none;stroke-width:4;stroke-linecap:round;stroke-linejoin:miter;stroke:rgb(6.27451%,30.588235%,54.509804%);stroke-opacity:1;stroke-miterlimit:10;" d="M 720 140 L 784.410156 89 "></path>
<path style=" stroke:none;fill-rule:nonzero;fill:rgb(6.27451%,30.588235%,54.509804%);fill-opacity:1;" d="M 725 140 C 725 146.667969 715 146.667969 715 140 C 715 133.332031 725 133.332031 725 140 "></path>
<path style=" stroke:none;fill-rule:nonzero;fill:rgb(6.27451%,30.588235%,54.509804%);fill-opacity:1;" d="M 789.410156 89 C 789.410156 95.667969 779.410156 95.667969 779.410156 89 C 779.410156 82.332031 789.410156 82.332031 789.410156 89 "></path>
<path style="fill:none;stroke-width:4;stroke-linecap:round;stroke-linejoin:miter;stroke:rgb(6.27451%,30.588235%,54.509804%);stroke-opacity:1;stroke-miterlimit:10;" d="M 737.320313 170 L 782.679688 170 "></path>
<path style=" stroke:none;fill-rule:nonzero;fill:rgb(6.27451%,30.588235%,54.509804%);fill-opacity:1;" d="M 742.320313 170 C 742.320313 176.667969 732.320313 176.667969 732.320313 170 C 732.320313 163.332031 742.320313 163.332031 742.320313 170 "></path>
<path style=" stroke:none;fill-rule:nonzero;fill:rgb(6.27451%,30.588235%,54.509804%);fill-opacity:1;" d="M 787.679688 170 C 787.679688 176.667969 777.679688 176.667969 777.679688 170 C 777.679688 163.332031 787.679688 163.332031 787.679688 170 "></path>
<path style="fill:none;stroke-width:4;stroke-linecap:round;stroke-linejoin:miter;stroke:rgb(6.27451%,30.588235%,54.509804%);stroke-opacity:1;stroke-miterlimit:10;" d="M 824.589844 55.410156 L 870 70 "></path>
<path style=" stroke:none;fill-rule:nonzero;fill:rgb(6.27451%,30.588235%,54.509804%);fill-opacity:1;" d="M 829.589844 55.410156 C 829.589844 62.078125 819.589844 62.078125 819.589844 55.410156 C 819.589844 48.746094 829.589844 48.746094 829.589844 55.410156 "></path>
<path style=" stroke:none;fill-rule:nonzero;fill:rgb(6.27451%,30.588235%,54.509804%);fill-opacity:1;" d="M 875 70 C 875 76.667969 865 76.667969 865 70 C 865 63.332031 875 63.332031 875 70 "></path>
<path style="fill:none;stroke-width:4;stroke-linecap:round;stroke-linejoin:miter;stroke:rgb(6.27451%,30.588235%,54.509804%);stroke-opacity:1;stroke-miterlimit:10;" d="M 817.320313 170 L 862.679688 230 "></path>
<path style=" stroke:none;fill-rule:nonzero;fill:rgb(6.27451%,30.588235%,54.509804%);fill-opacity:1;" d="M 822.320313 170 C 822.320313 176.667969 812.320313 176.667969 812.320313 170 C 812.320313 163.332031 822.320313 163.332031 822.320313 170 "></path>
<path style=" stroke:none;fill-rule:nonzero;fill:rgb(6.27451%,30.588235%,54.509804%);fill-opacity:1;" d="M 867.679688 230 C 867.679688 236.667969 857.679688 236.667969 857.679688 230 C 857.679688 223.332031 867.679688 223.332031 867.679688 230 "></path>
<path style="fill:none;stroke-width:4;stroke-linecap:round;stroke-linejoin:miter;stroke:rgb(6.27451%,30.588235%,54.509804%);stroke-opacity:1;stroke-miterlimit:10;" d="M 900.605469 100.605469 L 950 150 "></path>
<path style=" stroke:none;fill-rule:nonzero;fill:rgb(6.27451%,30.588235%,54.509804%);fill-opacity:1;" d="M 905.605469 100.605469 C 905.605469 107.273438 895.605469 107.273438 895.605469 100.605469 C 895.605469 93.941406 905.605469 93.941406 905.605469 100.605469 "></path>
<path style=" stroke:none;fill-rule:nonzero;fill:rgb(6.27451%,30.588235%,54.509804%);fill-opacity:1;" d="M 955 150 C 955 156.667969 945 156.667969 945 150 C 945 143.332031 955 143.332031 955 150 "></path>
<path style="fill:none;stroke-width:4;stroke-linecap:round;stroke-linejoin:miter;stroke:rgb(6.27451%,30.588235%,54.509804%);stroke-opacity:1;stroke-miterlimit:10;" d="M 897.320313 230 L 950 230 "></path>
<path style=" stroke:none;fill-rule:nonzero;fill:rgb(6.27451%,30.588235%,54.509804%);fill-opacity:1;" d="M 902.320313 230 C 902.320313 236.667969 892.320313 236.667969 892.320313 230 C 892.320313 223.332031 902.320313 223.332031 902.320313 230 "></path>
<path style=" stroke:none;fill-rule:nonzero;fill:rgb(6.27451%,30.588235%,54.509804%);fill-opacity:1;" d="M 955 230 C 955 236.667969 945 236.667969 945 230 C 945 223.332031 955 223.332031 955 230 "></path>
<path style="fill:none;stroke-width:4;stroke-linecap:round;stroke-linejoin:miter;stroke:rgb(6.27451%,30.588235%,54.509804%);stroke-opacity:1;stroke-miterlimit:10;" d="M 980.605469 139.394531 L 1019.394531 100.605469 "></path>
<path style=" stroke:none;fill-rule:nonzero;fill:rgb(6.27451%,30.588235%,54.509804%);fill-opacity:1;" d="M 985.605469 139.394531 C 985.605469 146.058594 975.605469 146.058594 975.605469 139.394531 C 975.605469 132.726563 985.605469 132.726563 985.605469 139.394531 "></path>
<path style=" stroke:none;fill-rule:nonzero;fill:rgb(6.27451%,30.588235%,54.509804%);fill-opacity:1;" d="M 1024.394531 100.605469 C 1024.394531 107.273438 1014.394531 107.273438 1014.394531 100.605469 C 1014.394531 93.941406 1024.394531 93.941406 1024.394531 100.605469 "></path>
<path style="fill:none;stroke-width:4;stroke-linecap:round;stroke-linejoin:miter;stroke:rgb(6.27451%,30.588235%,54.509804%);stroke-opacity:1;stroke-miterlimit:10;" d="M 980.605469 219.394531 L 1022.679688 170 "></path>
<path style=" stroke:none;fill-rule:nonzero;fill:rgb(6.27451%,30.588235%,54.509804%);fill-opacity:1;" d="M 985.605469 219.394531 C 985.605469 226.058594 975.605469 226.058594 975.605469 219.394531 C 975.605469 212.726563 985.605469 212.726563 985.605469 219.394531 "></path>
<path style=" stroke:none;fill-rule:nonzero;fill:rgb(6.27451%,30.588235%,54.509804%);fill-opacity:1;" d="M 1027.679688 170 C 1027.679688 176.667969 1017.679688 176.667969 1017.679688 170 C 1017.679688 163.332031 1027.679688 163.332031 1027.679688 170 "></path>
<path style="fill:none;stroke-width:4;stroke-linecap:round;stroke-linejoin:miter;stroke:rgb(6.27451%,30.588235%,54.509804%);stroke-opacity:1;stroke-miterlimit:10;" d="M 1050 90 L 1102.679688 90 "></path>
<path style=" stroke:none;fill-rule:nonzero;fill:rgb(6.27451%,30.588235%,54.509804%);fill-opacity:1;" d="M 1055 90 C 1055 96.667969 1045 96.667969 1045 90 C 1045 83.332031 1055 83.332031 1055 90 "></path>
<path style=" stroke:none;fill-rule:nonzero;fill:rgb(6.27451%,30.588235%,54.509804%);fill-opacity:1;" d="M 1107.679688 90 C 1107.679688 96.667969 1097.679688 96.667969 1097.679688 90 C 1097.679688 83.332031 1107.679688 83.332031 1107.679688 90 "></path>
<path style="fill:none;stroke-width:4;stroke-linecap:round;stroke-linejoin:miter;stroke:rgb(6.27451%,30.588235%,54.509804%);stroke-opacity:1;stroke-miterlimit:10;" d="M 1057.320313 150 L 1108.742188 153.5 "></path>
<path style=" stroke:none;fill-rule:nonzero;fill:rgb(6.27451%,30.588235%,54.509804%);fill-opacity:1;" d="M 1062.320313 150 C 1062.320313 156.667969 1052.320313 156.667969 1052.320313 150 C 1052.320313 143.332031 1062.320313 143.332031 1062.320313 150 "></path>
<path style=" stroke:none;fill-rule:nonzero;fill:rgb(6.27451%,30.588235%,54.509804%);fill-opacity:1;" d="M 1113.742188 153.5 C 1113.742188 160.167969 1103.742188 160.167969 1103.742188 153.5 C 1103.742188 146.832031 1113.742188 146.832031 1113.742188 153.5 "></path>
<path style="fill:none;stroke-width:4;stroke-linecap:round;stroke-linejoin:miter;stroke:rgb(6.27451%,30.588235%,54.509804%);stroke-opacity:1;stroke-miterlimit:10;" d="M 1120 100 L 1184.410156 89 "></path>
<path style=" stroke:none;fill-rule:nonzero;fill:rgb(6.27451%,30.588235%,54.509804%);fill-opacity:1;" d="M 1125 100 C 1125 106.667969 1115 106.667969 1115 100 C 1115 93.332031 1125 93.332031 1125 100 "></path>
<path style=" stroke:none;fill-rule:nonzero;fill:rgb(6.27451%,30.588235%,54.509804%);fill-opacity:1;" d="M 1189.410156 89 C 1189.410156 95.667969 1179.410156 95.667969 1179.410156 89 C 1179.410156 82.332031 1189.410156 82.332031 1189.410156 89 "></path>
<path style="fill:none;stroke-width:4;stroke-linecap:round;stroke-linejoin:miter;stroke:rgb(6.27451%,30.588235%,54.509804%);stroke-opacity:1;stroke-miterlimit:10;" d="M 1143.621094 149.484375 L 1184.410156 89 "></path>
<path style=" stroke:none;fill-rule:nonzero;fill:rgb(6.27451%,30.588235%,54.509804%);fill-opacity:1;" d="M 1148.621094 149.484375 C 1148.621094 156.148438 1138.621094 156.148438 1138.621094 149.484375 C 1138.621094 142.816406 1148.621094 142.816406 1148.621094 149.484375 "></path>
<path style=" stroke:none;fill-rule:nonzero;fill:rgb(6.27451%,30.588235%,54.509804%);fill-opacity:1;" d="M 1189.410156 89 C 1189.410156 95.667969 1179.410156 95.667969 1179.410156 89 C 1179.410156 82.332031 1189.410156 82.332031 1189.410156 89 "></path>
<path style="fill:none;stroke-width:4;stroke-linecap:round;stroke-linejoin:miter;stroke:rgb(6.27451%,30.588235%,54.509804%);stroke-opacity:1;stroke-miterlimit:10;" d="M 1224.589844 55.410156 L 1270 70 "></path>
<path style=" stroke:none;fill-rule:nonzero;fill:rgb(6.27451%,30.588235%,54.509804%);fill-opacity:1;" d="M 1229.589844 55.410156 C 1229.589844 62.078125 1219.589844 62.078125 1219.589844 55.410156 C 1219.589844 48.746094 1229.589844 48.746094 1229.589844 55.410156 "></path>
<path style=" stroke:none;fill-rule:nonzero;fill:rgb(6.27451%,30.588235%,54.509804%);fill-opacity:1;" d="M 1275 70 C 1275 76.667969 1265 76.667969 1265 70 C 1265 63.332031 1275 63.332031 1275 70 "></path>
<path style="fill:none;stroke-width:4;stroke-linecap:round;stroke-linejoin:miter;stroke:rgb(6.27451%,30.588235%,54.509804%);stroke-opacity:1;stroke-miterlimit:10;" d="M 1290 70 L 1342.679688 70 "></path>
<path style=" stroke:none;fill-rule:nonzero;fill:rgb(6.27451%,30.588235%,54.509804%);fill-opacity:1;" d="M 1295 70 C 1295 76.667969 1285 76.667969 1285 70 C 1285 63.332031 1295 63.332031 1295 70 "></path>
<path style=" stroke:none;fill-rule:nonzero;fill:rgb(6.27451%,30.588235%,54.509804%);fill-opacity:1;" d="M 1347.679688 70 C 1347.679688 76.667969 1337.679688 76.667969 1337.679688 70 C 1337.679688 63.332031 1347.679688 63.332031 1347.679688 70 "></path>
<path style="fill:none;stroke-width:4;stroke-linecap:round;stroke-linejoin:miter;stroke:rgb(6.27451%,30.588235%,54.509804%);stroke-opacity:1;stroke-miterlimit:10;" d="M 1290 90 L 1342.679688 150 "></path>
<path style=" stroke:none;fill-rule:nonzero;fill:rgb(6.27451%,30.588235%,54.509804%);fill-opacity:1;" d="M 1295 90 C 1295 96.667969 1285 96.667969 1285 90 C 1285 83.332031 1295 83.332031 1295 90 "></path>
<path style=" stroke:none;fill-rule:nonzero;fill:rgb(6.27451%,30.588235%,54.509804%);fill-opacity:1;" d="M 1347.679688 150 C 1347.679688 156.667969 1337.679688 156.667969 1337.679688 150 C 1337.679688 143.332031 1347.679688 143.332031 1347.679688 150 "></path>
<path style="fill:none;stroke-width:4;stroke-linecap:round;stroke-linejoin:miter;stroke:rgb(6.27451%,30.588235%,54.509804%);stroke-opacity:1;stroke-miterlimit:10;" d="M 1360 100 L 1426.234375 90 "></path>
<path style=" stroke:none;fill-rule:nonzero;fill:rgb(6.27451%,30.588235%,54.509804%);fill-opacity:1;" d="M 1365 100 C 1365 106.667969 1355 106.667969 1355 100 C 1355 93.332031 1365 93.332031 1365 100 "></path>
<path style=" stroke:none;fill-rule:nonzero;fill:rgb(6.27451%,30.588235%,54.509804%);fill-opacity:1;" d="M 1431.234375 90 C 1431.234375 96.667969 1421.234375 96.667969 1421.234375 90 C 1421.234375 83.332031 1431.234375 83.332031 1431.234375 90 "></path>
<path style="fill:none;stroke-width:4;stroke-linecap:round;stroke-linejoin:miter;stroke:rgb(6.27451%,30.588235%,54.509804%);stroke-opacity:1;stroke-miterlimit:10;" d="M 1377.320313 150 L 1426.234375 90 "></path>
<path style=" stroke:none;fill-rule:nonzero;fill:rgb(6.27451%,30.588235%,54.509804%);fill-opacity:1;" d="M 1382.320313 150 C 1382.320313 156.667969 1372.320313 156.667969 1372.320313 150 C 1372.320313 143.332031 1382.320313 143.332031 1382.320313 150 "></path>
<path style=" stroke:none;fill-rule:nonzero;fill:rgb(6.27451%,30.588235%,54.509804%);fill-opacity:1;" d="M 1431.234375 90 C 1431.234375 96.667969 1421.234375 96.667969 1421.234375 90 C 1421.234375 83.332031 1431.234375 83.332031 1431.234375 90 "></path>
<path style="fill:none;stroke-width:4;stroke-linecap:round;stroke-linejoin:miter;stroke:rgb(6.27451%,30.588235%,54.509804%);stroke-opacity:1;stroke-miterlimit:10;" d="M 1457.011719 80 L 1506.234375 70 "></path>
<path style=" stroke:none;fill-rule:nonzero;fill:rgb(6.27451%,30.588235%,54.509804%);fill-opacity:1;" d="M 1462.011719 80 C 1462.011719 86.667969 1452.011719 86.667969 1452.011719 80 C 1452.011719 73.332031 1462.011719 73.332031 1462.011719 80 "></path>
<path style=" stroke:none;fill-rule:nonzero;fill:rgb(6.27451%,30.588235%,54.509804%);fill-opacity:1;" d="M 1511.234375 70 C 1511.234375 76.667969 1501.234375 76.667969 1501.234375 70 C 1501.234375 63.332031 1511.234375 63.332031 1511.234375 70 "></path>
<path style="fill:none;stroke-width:4;stroke-linecap:round;stroke-linejoin:miter;stroke:rgb(6.27451%,30.588235%,54.509804%);stroke-opacity:1;stroke-miterlimit:10;" d="M 1449.890625 110.445313 L 1504.410156 151 "></path>
<path style=" stroke:none;fill-rule:nonzero;fill:rgb(6.27451%,30.588235%,54.509804%);fill-opacity:1;" d="M 1454.890625 110.445313 C 1454.890625 117.113281 1444.890625 117.113281 1444.890625 110.445313 C 1444.890625 103.78125 1454.890625 103.78125 1454.890625 110.445313 "></path>
<path style=" stroke:none;fill-rule:nonzero;fill:rgb(6.27451%,30.588235%,54.509804%);fill-opacity:1;" d="M 1509.410156 151 C 1509.410156 157.667969 1499.410156 157.667969 1499.410156 151 C 1499.410156 144.332031 1509.410156 144.332031 1509.410156 151 "></path>
<path style="fill:none;stroke-width:4;stroke-linecap:round;stroke-linejoin:miter;stroke:rgb(6.27451%,30.588235%,54.509804%);stroke-opacity:1;stroke-miterlimit:10;" d="M 1525.257813 96.179688 L 1586.234375 150 "></path>
<path style=" stroke:none;fill-rule:nonzero;fill:rgb(6.27451%,30.588235%,54.509804%);fill-opacity:1;" d="M 1530.257813 96.179688 C 1530.257813 102.847656 1520.257813 102.847656 1520.257813 96.179688 C 1520.257813 89.515625 1530.257813 89.515625 1530.257813 96.179688 "></path>
<path style=" stroke:none;fill-rule:nonzero;fill:rgb(6.27451%,30.588235%,54.509804%);fill-opacity:1;" d="M 1591.234375 150 C 1591.234375 156.667969 1581.234375 156.667969 1581.234375 150 C 1581.234375 143.332031 1591.234375 143.332031 1591.234375 150 "></path>
<path style="fill:none;stroke-width:4;stroke-linecap:round;stroke-linejoin:miter;stroke:rgb(6.27451%,30.588235%,54.509804%);stroke-opacity:1;stroke-miterlimit:10;" d="M 1544.589844 184.589844 L 1584.410156 231 "></path>
<path style=" stroke:none;fill-rule:nonzero;fill:rgb(6.27451%,30.588235%,54.509804%);fill-opacity:1;" d="M 1549.589844 184.589844 C 1549.589844 191.253906 1539.589844 191.253906 1539.589844 184.589844 C 1539.589844 177.921875 1549.589844 177.921875 1549.589844 184.589844 "></path>
<path style=" stroke:none;fill-rule:nonzero;fill:rgb(6.27451%,30.588235%,54.509804%);fill-opacity:1;" d="M 1589.410156 231 C 1589.410156 237.667969 1579.410156 237.667969 1579.410156 231 C 1579.410156 224.332031 1589.410156 224.332031 1589.410156 231 "></path>
<path style="fill:none;stroke-width:4;stroke-linecap:round;stroke-linejoin:miter;stroke:rgb(6.27451%,30.588235%,54.509804%);stroke-opacity:1;stroke-miterlimit:10;" d="M 1609.890625 129.554688 L 1662.679688 90 "></path>
<path style=" stroke:none;fill-rule:nonzero;fill:rgb(6.27451%,30.588235%,54.509804%);fill-opacity:1;" d="M 1614.890625 129.554688 C 1614.890625 136.21875 1604.890625 136.21875 1604.890625 129.554688 C 1604.890625 122.886719 1614.890625 122.886719 1614.890625 129.554688 "></path>
<path style=" stroke:none;fill-rule:nonzero;fill:rgb(6.27451%,30.588235%,54.509804%);fill-opacity:1;" d="M 1667.679688 90 C 1667.679688 96.667969 1657.679688 96.667969 1657.679688 90 C 1657.679688 83.332031 1667.679688 83.332031 1667.679688 90 "></path>
<path style="fill:none;stroke-width:4;stroke-linecap:round;stroke-linejoin:miter;stroke:rgb(6.27451%,30.588235%,54.509804%);stroke-opacity:1;stroke-miterlimit:10;" d="M 1624.589844 264.589844 L 1666.234375 250 "></path>
<path style=" stroke:none;fill-rule:nonzero;fill:rgb(6.27451%,30.588235%,54.509804%);fill-opacity:1;" d="M 1629.589844 264.589844 C 1629.589844 271.253906 1619.589844 271.253906 1619.589844 264.589844 C 1619.589844 257.921875 1629.589844 257.921875 1629.589844 264.589844 "></path>
<path style=" stroke:none;fill-rule:nonzero;fill:rgb(6.27451%,30.588235%,54.509804%);fill-opacity:1;" d="M 1671.234375 250 C 1671.234375 256.667969 1661.234375 256.667969 1661.234375 250 C 1661.234375 243.332031 1671.234375 243.332031 1671.234375 250 "></path>
</g>
</svg>